%TF.GenerationSoftware,KiCad,Pcbnew,9.0.2*%
%TF.CreationDate,2025-05-22T13:04:18+05:30*%
%TF.ProjectId,GaN_pwr_delivery_module,47614e5f-7077-4725-9f64-656c69766572,rev?*%
%TF.SameCoordinates,Original*%
%TF.FileFunction,Legend,Top*%
%TF.FilePolarity,Positive*%
%FSLAX46Y46*%
G04 Gerber Fmt 4.6, Leading zero omitted, Abs format (unit mm)*
G04 Created by KiCad (PCBNEW 9.0.2) date 2025-05-22 13:04:18*
%MOMM*%
%LPD*%
G01*
G04 APERTURE LIST*
%ADD10C,0.150000*%
%ADD11C,0.127000*%
%ADD12C,0.200000*%
%ADD13C,0.120000*%
%ADD14C,0.152400*%
G04 APERTURE END LIST*
D10*
X239938152Y-135911904D02*
X240747675Y-135911904D01*
X240747675Y-135911904D02*
X240842913Y-135864285D01*
X240842913Y-135864285D02*
X240890533Y-135816666D01*
X240890533Y-135816666D02*
X240938152Y-135721428D01*
X240938152Y-135721428D02*
X240938152Y-135530952D01*
X240938152Y-135530952D02*
X240890533Y-135435714D01*
X240890533Y-135435714D02*
X240842913Y-135388095D01*
X240842913Y-135388095D02*
X240747675Y-135340476D01*
X240747675Y-135340476D02*
X239938152Y-135340476D01*
X240033390Y-134911904D02*
X239985771Y-134864285D01*
X239985771Y-134864285D02*
X239938152Y-134769047D01*
X239938152Y-134769047D02*
X239938152Y-134530952D01*
X239938152Y-134530952D02*
X239985771Y-134435714D01*
X239985771Y-134435714D02*
X240033390Y-134388095D01*
X240033390Y-134388095D02*
X240128628Y-134340476D01*
X240128628Y-134340476D02*
X240223866Y-134340476D01*
X240223866Y-134340476D02*
X240366723Y-134388095D01*
X240366723Y-134388095D02*
X240938152Y-134959523D01*
X240938152Y-134959523D02*
X240938152Y-134340476D01*
X238619047Y-127104819D02*
X238619047Y-126104819D01*
X238619047Y-126104819D02*
X238857142Y-126104819D01*
X238857142Y-126104819D02*
X238999999Y-126152438D01*
X238999999Y-126152438D02*
X239095237Y-126247676D01*
X239095237Y-126247676D02*
X239142856Y-126342914D01*
X239142856Y-126342914D02*
X239190475Y-126533390D01*
X239190475Y-126533390D02*
X239190475Y-126676247D01*
X239190475Y-126676247D02*
X239142856Y-126866723D01*
X239142856Y-126866723D02*
X239095237Y-126961961D01*
X239095237Y-126961961D02*
X238999999Y-127057200D01*
X238999999Y-127057200D02*
X238857142Y-127104819D01*
X238857142Y-127104819D02*
X238619047Y-127104819D01*
X239523809Y-126104819D02*
X240142856Y-126104819D01*
X240142856Y-126104819D02*
X239809523Y-126485771D01*
X239809523Y-126485771D02*
X239952380Y-126485771D01*
X239952380Y-126485771D02*
X240047618Y-126533390D01*
X240047618Y-126533390D02*
X240095237Y-126581009D01*
X240095237Y-126581009D02*
X240142856Y-126676247D01*
X240142856Y-126676247D02*
X240142856Y-126914342D01*
X240142856Y-126914342D02*
X240095237Y-127009580D01*
X240095237Y-127009580D02*
X240047618Y-127057200D01*
X240047618Y-127057200D02*
X239952380Y-127104819D01*
X239952380Y-127104819D02*
X239666666Y-127104819D01*
X239666666Y-127104819D02*
X239571428Y-127057200D01*
X239571428Y-127057200D02*
X239523809Y-127009580D01*
X240523809Y-126200057D02*
X240571428Y-126152438D01*
X240571428Y-126152438D02*
X240666666Y-126104819D01*
X240666666Y-126104819D02*
X240904761Y-126104819D01*
X240904761Y-126104819D02*
X240999999Y-126152438D01*
X240999999Y-126152438D02*
X241047618Y-126200057D01*
X241047618Y-126200057D02*
X241095237Y-126295295D01*
X241095237Y-126295295D02*
X241095237Y-126390533D01*
X241095237Y-126390533D02*
X241047618Y-126533390D01*
X241047618Y-126533390D02*
X240476190Y-127104819D01*
X240476190Y-127104819D02*
X241095237Y-127104819D01*
X246792913Y-132792857D02*
X246840533Y-132840476D01*
X246840533Y-132840476D02*
X246888152Y-132983333D01*
X246888152Y-132983333D02*
X246888152Y-133078571D01*
X246888152Y-133078571D02*
X246840533Y-133221428D01*
X246840533Y-133221428D02*
X246745294Y-133316666D01*
X246745294Y-133316666D02*
X246650056Y-133364285D01*
X246650056Y-133364285D02*
X246459580Y-133411904D01*
X246459580Y-133411904D02*
X246316723Y-133411904D01*
X246316723Y-133411904D02*
X246126247Y-133364285D01*
X246126247Y-133364285D02*
X246031009Y-133316666D01*
X246031009Y-133316666D02*
X245935771Y-133221428D01*
X245935771Y-133221428D02*
X245888152Y-133078571D01*
X245888152Y-133078571D02*
X245888152Y-132983333D01*
X245888152Y-132983333D02*
X245935771Y-132840476D01*
X245935771Y-132840476D02*
X245983390Y-132792857D01*
X246888152Y-131840476D02*
X246888152Y-132411904D01*
X246888152Y-132126190D02*
X245888152Y-132126190D01*
X245888152Y-132126190D02*
X246031009Y-132221428D01*
X246031009Y-132221428D02*
X246126247Y-132316666D01*
X246126247Y-132316666D02*
X246173866Y-132411904D01*
X245888152Y-131507142D02*
X245888152Y-130888095D01*
X245888152Y-130888095D02*
X246269104Y-131221428D01*
X246269104Y-131221428D02*
X246269104Y-131078571D01*
X246269104Y-131078571D02*
X246316723Y-130983333D01*
X246316723Y-130983333D02*
X246364342Y-130935714D01*
X246364342Y-130935714D02*
X246459580Y-130888095D01*
X246459580Y-130888095D02*
X246697675Y-130888095D01*
X246697675Y-130888095D02*
X246792913Y-130935714D01*
X246792913Y-130935714D02*
X246840533Y-130983333D01*
X246840533Y-130983333D02*
X246888152Y-131078571D01*
X246888152Y-131078571D02*
X246888152Y-131364285D01*
X246888152Y-131364285D02*
X246840533Y-131459523D01*
X246840533Y-131459523D02*
X246792913Y-131507142D01*
X229438094Y-146904819D02*
X229104761Y-146428628D01*
X228866666Y-146904819D02*
X228866666Y-145904819D01*
X228866666Y-145904819D02*
X229247618Y-145904819D01*
X229247618Y-145904819D02*
X229342856Y-145952438D01*
X229342856Y-145952438D02*
X229390475Y-146000057D01*
X229390475Y-146000057D02*
X229438094Y-146095295D01*
X229438094Y-146095295D02*
X229438094Y-146238152D01*
X229438094Y-146238152D02*
X229390475Y-146333390D01*
X229390475Y-146333390D02*
X229342856Y-146381009D01*
X229342856Y-146381009D02*
X229247618Y-146428628D01*
X229247618Y-146428628D02*
X228866666Y-146428628D01*
X229723809Y-145904819D02*
X230057142Y-146904819D01*
X230057142Y-146904819D02*
X230390475Y-145904819D01*
X231247618Y-146904819D02*
X230676190Y-146904819D01*
X230961904Y-146904819D02*
X230961904Y-145904819D01*
X230961904Y-145904819D02*
X230866666Y-146047676D01*
X230866666Y-146047676D02*
X230771428Y-146142914D01*
X230771428Y-146142914D02*
X230676190Y-146190533D01*
X217238152Y-122611904D02*
X217238152Y-122040476D01*
X218238152Y-122326190D02*
X217238152Y-122326190D01*
X218238152Y-121707142D02*
X217238152Y-121707142D01*
X217238152Y-121707142D02*
X217238152Y-121326190D01*
X217238152Y-121326190D02*
X217285771Y-121230952D01*
X217285771Y-121230952D02*
X217333390Y-121183333D01*
X217333390Y-121183333D02*
X217428628Y-121135714D01*
X217428628Y-121135714D02*
X217571485Y-121135714D01*
X217571485Y-121135714D02*
X217666723Y-121183333D01*
X217666723Y-121183333D02*
X217714342Y-121230952D01*
X217714342Y-121230952D02*
X217761961Y-121326190D01*
X217761961Y-121326190D02*
X217761961Y-121707142D01*
X217238152Y-120230952D02*
X217238152Y-120707142D01*
X217238152Y-120707142D02*
X217714342Y-120754761D01*
X217714342Y-120754761D02*
X217666723Y-120707142D01*
X217666723Y-120707142D02*
X217619104Y-120611904D01*
X217619104Y-120611904D02*
X217619104Y-120373809D01*
X217619104Y-120373809D02*
X217666723Y-120278571D01*
X217666723Y-120278571D02*
X217714342Y-120230952D01*
X217714342Y-120230952D02*
X217809580Y-120183333D01*
X217809580Y-120183333D02*
X218047675Y-120183333D01*
X218047675Y-120183333D02*
X218142913Y-120230952D01*
X218142913Y-120230952D02*
X218190533Y-120278571D01*
X218190533Y-120278571D02*
X218238152Y-120373809D01*
X218238152Y-120373809D02*
X218238152Y-120611904D01*
X218238152Y-120611904D02*
X218190533Y-120707142D01*
X218190533Y-120707142D02*
X218142913Y-120754761D01*
X228749999Y-134604819D02*
X228749999Y-135319104D01*
X228749999Y-135319104D02*
X228702380Y-135461961D01*
X228702380Y-135461961D02*
X228607142Y-135557200D01*
X228607142Y-135557200D02*
X228464285Y-135604819D01*
X228464285Y-135604819D02*
X228369047Y-135604819D01*
X229226190Y-135604819D02*
X229226190Y-134604819D01*
X229226190Y-134604819D02*
X229607142Y-134604819D01*
X229607142Y-134604819D02*
X229702380Y-134652438D01*
X229702380Y-134652438D02*
X229749999Y-134700057D01*
X229749999Y-134700057D02*
X229797618Y-134795295D01*
X229797618Y-134795295D02*
X229797618Y-134938152D01*
X229797618Y-134938152D02*
X229749999Y-135033390D01*
X229749999Y-135033390D02*
X229702380Y-135081009D01*
X229702380Y-135081009D02*
X229607142Y-135128628D01*
X229607142Y-135128628D02*
X229226190Y-135128628D01*
X230749999Y-135604819D02*
X230178571Y-135604819D01*
X230464285Y-135604819D02*
X230464285Y-134604819D01*
X230464285Y-134604819D02*
X230369047Y-134747676D01*
X230369047Y-134747676D02*
X230273809Y-134842914D01*
X230273809Y-134842914D02*
X230178571Y-134890533D01*
X233438152Y-116911904D02*
X234247675Y-116911904D01*
X234247675Y-116911904D02*
X234342913Y-116864285D01*
X234342913Y-116864285D02*
X234390533Y-116816666D01*
X234390533Y-116816666D02*
X234438152Y-116721428D01*
X234438152Y-116721428D02*
X234438152Y-116530952D01*
X234438152Y-116530952D02*
X234390533Y-116435714D01*
X234390533Y-116435714D02*
X234342913Y-116388095D01*
X234342913Y-116388095D02*
X234247675Y-116340476D01*
X234247675Y-116340476D02*
X233438152Y-116340476D01*
X233771485Y-115435714D02*
X234438152Y-115435714D01*
X233390533Y-115673809D02*
X234104818Y-115911904D01*
X234104818Y-115911904D02*
X234104818Y-115292857D01*
X218121428Y-129604819D02*
X218692856Y-129604819D01*
X218407142Y-130604819D02*
X218407142Y-129604819D01*
X219026190Y-130604819D02*
X219026190Y-129604819D01*
X219026190Y-129604819D02*
X219407142Y-129604819D01*
X219407142Y-129604819D02*
X219502380Y-129652438D01*
X219502380Y-129652438D02*
X219549999Y-129700057D01*
X219549999Y-129700057D02*
X219597618Y-129795295D01*
X219597618Y-129795295D02*
X219597618Y-129938152D01*
X219597618Y-129938152D02*
X219549999Y-130033390D01*
X219549999Y-130033390D02*
X219502380Y-130081009D01*
X219502380Y-130081009D02*
X219407142Y-130128628D01*
X219407142Y-130128628D02*
X219026190Y-130128628D01*
X219978571Y-129700057D02*
X220026190Y-129652438D01*
X220026190Y-129652438D02*
X220121428Y-129604819D01*
X220121428Y-129604819D02*
X220359523Y-129604819D01*
X220359523Y-129604819D02*
X220454761Y-129652438D01*
X220454761Y-129652438D02*
X220502380Y-129700057D01*
X220502380Y-129700057D02*
X220549999Y-129795295D01*
X220549999Y-129795295D02*
X220549999Y-129890533D01*
X220549999Y-129890533D02*
X220502380Y-130033390D01*
X220502380Y-130033390D02*
X219930952Y-130604819D01*
X219930952Y-130604819D02*
X220549999Y-130604819D01*
X237138152Y-126916666D02*
X236661961Y-127249999D01*
X237138152Y-127488094D02*
X236138152Y-127488094D01*
X236138152Y-127488094D02*
X236138152Y-127107142D01*
X236138152Y-127107142D02*
X236185771Y-127011904D01*
X236185771Y-127011904D02*
X236233390Y-126964285D01*
X236233390Y-126964285D02*
X236328628Y-126916666D01*
X236328628Y-126916666D02*
X236471485Y-126916666D01*
X236471485Y-126916666D02*
X236566723Y-126964285D01*
X236566723Y-126964285D02*
X236614342Y-127011904D01*
X236614342Y-127011904D02*
X236661961Y-127107142D01*
X236661961Y-127107142D02*
X236661961Y-127488094D01*
X236471485Y-126059523D02*
X237138152Y-126059523D01*
X236090533Y-126297618D02*
X236804818Y-126535713D01*
X236804818Y-126535713D02*
X236804818Y-125916666D01*
X242821428Y-136604819D02*
X243392856Y-136604819D01*
X243107142Y-137604819D02*
X243107142Y-136604819D01*
X243726190Y-137604819D02*
X243726190Y-136604819D01*
X243726190Y-136604819D02*
X244107142Y-136604819D01*
X244107142Y-136604819D02*
X244202380Y-136652438D01*
X244202380Y-136652438D02*
X244249999Y-136700057D01*
X244249999Y-136700057D02*
X244297618Y-136795295D01*
X244297618Y-136795295D02*
X244297618Y-136938152D01*
X244297618Y-136938152D02*
X244249999Y-137033390D01*
X244249999Y-137033390D02*
X244202380Y-137081009D01*
X244202380Y-137081009D02*
X244107142Y-137128628D01*
X244107142Y-137128628D02*
X243726190Y-137128628D01*
X244630952Y-136604819D02*
X245249999Y-136604819D01*
X245249999Y-136604819D02*
X244916666Y-136985771D01*
X244916666Y-136985771D02*
X245059523Y-136985771D01*
X245059523Y-136985771D02*
X245154761Y-137033390D01*
X245154761Y-137033390D02*
X245202380Y-137081009D01*
X245202380Y-137081009D02*
X245249999Y-137176247D01*
X245249999Y-137176247D02*
X245249999Y-137414342D01*
X245249999Y-137414342D02*
X245202380Y-137509580D01*
X245202380Y-137509580D02*
X245154761Y-137557200D01*
X245154761Y-137557200D02*
X245059523Y-137604819D01*
X245059523Y-137604819D02*
X244773809Y-137604819D01*
X244773809Y-137604819D02*
X244678571Y-137557200D01*
X244678571Y-137557200D02*
X244630952Y-137509580D01*
X244145652Y-124191666D02*
X243669461Y-124524999D01*
X244145652Y-124763094D02*
X243145652Y-124763094D01*
X243145652Y-124763094D02*
X243145652Y-124382142D01*
X243145652Y-124382142D02*
X243193271Y-124286904D01*
X243193271Y-124286904D02*
X243240890Y-124239285D01*
X243240890Y-124239285D02*
X243336128Y-124191666D01*
X243336128Y-124191666D02*
X243478985Y-124191666D01*
X243478985Y-124191666D02*
X243574223Y-124239285D01*
X243574223Y-124239285D02*
X243621842Y-124286904D01*
X243621842Y-124286904D02*
X243669461Y-124382142D01*
X243669461Y-124382142D02*
X243669461Y-124763094D01*
X244145652Y-123715475D02*
X244145652Y-123524999D01*
X244145652Y-123524999D02*
X244098033Y-123429761D01*
X244098033Y-123429761D02*
X244050413Y-123382142D01*
X244050413Y-123382142D02*
X243907556Y-123286904D01*
X243907556Y-123286904D02*
X243717080Y-123239285D01*
X243717080Y-123239285D02*
X243336128Y-123239285D01*
X243336128Y-123239285D02*
X243240890Y-123286904D01*
X243240890Y-123286904D02*
X243193271Y-123334523D01*
X243193271Y-123334523D02*
X243145652Y-123429761D01*
X243145652Y-123429761D02*
X243145652Y-123620237D01*
X243145652Y-123620237D02*
X243193271Y-123715475D01*
X243193271Y-123715475D02*
X243240890Y-123763094D01*
X243240890Y-123763094D02*
X243336128Y-123810713D01*
X243336128Y-123810713D02*
X243574223Y-123810713D01*
X243574223Y-123810713D02*
X243669461Y-123763094D01*
X243669461Y-123763094D02*
X243717080Y-123715475D01*
X243717080Y-123715475D02*
X243764699Y-123620237D01*
X243764699Y-123620237D02*
X243764699Y-123429761D01*
X243764699Y-123429761D02*
X243717080Y-123334523D01*
X243717080Y-123334523D02*
X243669461Y-123286904D01*
X243669461Y-123286904D02*
X243574223Y-123239285D01*
X222849999Y-108854819D02*
X222849999Y-109569104D01*
X222849999Y-109569104D02*
X222802380Y-109711961D01*
X222802380Y-109711961D02*
X222707142Y-109807200D01*
X222707142Y-109807200D02*
X222564285Y-109854819D01*
X222564285Y-109854819D02*
X222469047Y-109854819D01*
X223230952Y-108854819D02*
X223849999Y-108854819D01*
X223849999Y-108854819D02*
X223516666Y-109235771D01*
X223516666Y-109235771D02*
X223659523Y-109235771D01*
X223659523Y-109235771D02*
X223754761Y-109283390D01*
X223754761Y-109283390D02*
X223802380Y-109331009D01*
X223802380Y-109331009D02*
X223849999Y-109426247D01*
X223849999Y-109426247D02*
X223849999Y-109664342D01*
X223849999Y-109664342D02*
X223802380Y-109759580D01*
X223802380Y-109759580D02*
X223754761Y-109807200D01*
X223754761Y-109807200D02*
X223659523Y-109854819D01*
X223659523Y-109854819D02*
X223373809Y-109854819D01*
X223373809Y-109854819D02*
X223278571Y-109807200D01*
X223278571Y-109807200D02*
X223230952Y-109759580D01*
X233690475Y-139509580D02*
X233642856Y-139557200D01*
X233642856Y-139557200D02*
X233499999Y-139604819D01*
X233499999Y-139604819D02*
X233404761Y-139604819D01*
X233404761Y-139604819D02*
X233261904Y-139557200D01*
X233261904Y-139557200D02*
X233166666Y-139461961D01*
X233166666Y-139461961D02*
X233119047Y-139366723D01*
X233119047Y-139366723D02*
X233071428Y-139176247D01*
X233071428Y-139176247D02*
X233071428Y-139033390D01*
X233071428Y-139033390D02*
X233119047Y-138842914D01*
X233119047Y-138842914D02*
X233166666Y-138747676D01*
X233166666Y-138747676D02*
X233261904Y-138652438D01*
X233261904Y-138652438D02*
X233404761Y-138604819D01*
X233404761Y-138604819D02*
X233499999Y-138604819D01*
X233499999Y-138604819D02*
X233642856Y-138652438D01*
X233642856Y-138652438D02*
X233690475Y-138700057D01*
X234642856Y-139604819D02*
X234071428Y-139604819D01*
X234357142Y-139604819D02*
X234357142Y-138604819D01*
X234357142Y-138604819D02*
X234261904Y-138747676D01*
X234261904Y-138747676D02*
X234166666Y-138842914D01*
X234166666Y-138842914D02*
X234071428Y-138890533D01*
X235261904Y-138604819D02*
X235357142Y-138604819D01*
X235357142Y-138604819D02*
X235452380Y-138652438D01*
X235452380Y-138652438D02*
X235499999Y-138700057D01*
X235499999Y-138700057D02*
X235547618Y-138795295D01*
X235547618Y-138795295D02*
X235595237Y-138985771D01*
X235595237Y-138985771D02*
X235595237Y-139223866D01*
X235595237Y-139223866D02*
X235547618Y-139414342D01*
X235547618Y-139414342D02*
X235499999Y-139509580D01*
X235499999Y-139509580D02*
X235452380Y-139557200D01*
X235452380Y-139557200D02*
X235357142Y-139604819D01*
X235357142Y-139604819D02*
X235261904Y-139604819D01*
X235261904Y-139604819D02*
X235166666Y-139557200D01*
X235166666Y-139557200D02*
X235119047Y-139509580D01*
X235119047Y-139509580D02*
X235071428Y-139414342D01*
X235071428Y-139414342D02*
X235023809Y-139223866D01*
X235023809Y-139223866D02*
X235023809Y-138985771D01*
X235023809Y-138985771D02*
X235071428Y-138795295D01*
X235071428Y-138795295D02*
X235119047Y-138700057D01*
X235119047Y-138700057D02*
X235166666Y-138652438D01*
X235166666Y-138652438D02*
X235261904Y-138604819D01*
X228916666Y-128459580D02*
X228869047Y-128507200D01*
X228869047Y-128507200D02*
X228726190Y-128554819D01*
X228726190Y-128554819D02*
X228630952Y-128554819D01*
X228630952Y-128554819D02*
X228488095Y-128507200D01*
X228488095Y-128507200D02*
X228392857Y-128411961D01*
X228392857Y-128411961D02*
X228345238Y-128316723D01*
X228345238Y-128316723D02*
X228297619Y-128126247D01*
X228297619Y-128126247D02*
X228297619Y-127983390D01*
X228297619Y-127983390D02*
X228345238Y-127792914D01*
X228345238Y-127792914D02*
X228392857Y-127697676D01*
X228392857Y-127697676D02*
X228488095Y-127602438D01*
X228488095Y-127602438D02*
X228630952Y-127554819D01*
X228630952Y-127554819D02*
X228726190Y-127554819D01*
X228726190Y-127554819D02*
X228869047Y-127602438D01*
X228869047Y-127602438D02*
X228916666Y-127650057D01*
X229250000Y-127554819D02*
X229916666Y-127554819D01*
X229916666Y-127554819D02*
X229488095Y-128554819D01*
X230199999Y-108854819D02*
X230199999Y-109569104D01*
X230199999Y-109569104D02*
X230152380Y-109711961D01*
X230152380Y-109711961D02*
X230057142Y-109807200D01*
X230057142Y-109807200D02*
X229914285Y-109854819D01*
X229914285Y-109854819D02*
X229819047Y-109854819D01*
X230628571Y-108950057D02*
X230676190Y-108902438D01*
X230676190Y-108902438D02*
X230771428Y-108854819D01*
X230771428Y-108854819D02*
X231009523Y-108854819D01*
X231009523Y-108854819D02*
X231104761Y-108902438D01*
X231104761Y-108902438D02*
X231152380Y-108950057D01*
X231152380Y-108950057D02*
X231199999Y-109045295D01*
X231199999Y-109045295D02*
X231199999Y-109140533D01*
X231199999Y-109140533D02*
X231152380Y-109283390D01*
X231152380Y-109283390D02*
X230580952Y-109854819D01*
X230580952Y-109854819D02*
X231199999Y-109854819D01*
X226242913Y-131783333D02*
X226290533Y-131830952D01*
X226290533Y-131830952D02*
X226338152Y-131973809D01*
X226338152Y-131973809D02*
X226338152Y-132069047D01*
X226338152Y-132069047D02*
X226290533Y-132211904D01*
X226290533Y-132211904D02*
X226195294Y-132307142D01*
X226195294Y-132307142D02*
X226100056Y-132354761D01*
X226100056Y-132354761D02*
X225909580Y-132402380D01*
X225909580Y-132402380D02*
X225766723Y-132402380D01*
X225766723Y-132402380D02*
X225576247Y-132354761D01*
X225576247Y-132354761D02*
X225481009Y-132307142D01*
X225481009Y-132307142D02*
X225385771Y-132211904D01*
X225385771Y-132211904D02*
X225338152Y-132069047D01*
X225338152Y-132069047D02*
X225338152Y-131973809D01*
X225338152Y-131973809D02*
X225385771Y-131830952D01*
X225385771Y-131830952D02*
X225433390Y-131783333D01*
X225338152Y-130926190D02*
X225338152Y-131116666D01*
X225338152Y-131116666D02*
X225385771Y-131211904D01*
X225385771Y-131211904D02*
X225433390Y-131259523D01*
X225433390Y-131259523D02*
X225576247Y-131354761D01*
X225576247Y-131354761D02*
X225766723Y-131402380D01*
X225766723Y-131402380D02*
X226147675Y-131402380D01*
X226147675Y-131402380D02*
X226242913Y-131354761D01*
X226242913Y-131354761D02*
X226290533Y-131307142D01*
X226290533Y-131307142D02*
X226338152Y-131211904D01*
X226338152Y-131211904D02*
X226338152Y-131021428D01*
X226338152Y-131021428D02*
X226290533Y-130926190D01*
X226290533Y-130926190D02*
X226242913Y-130878571D01*
X226242913Y-130878571D02*
X226147675Y-130830952D01*
X226147675Y-130830952D02*
X225909580Y-130830952D01*
X225909580Y-130830952D02*
X225814342Y-130878571D01*
X225814342Y-130878571D02*
X225766723Y-130926190D01*
X225766723Y-130926190D02*
X225719104Y-131021428D01*
X225719104Y-131021428D02*
X225719104Y-131211904D01*
X225719104Y-131211904D02*
X225766723Y-131307142D01*
X225766723Y-131307142D02*
X225814342Y-131354761D01*
X225814342Y-131354761D02*
X225909580Y-131402380D01*
X242140475Y-146259580D02*
X242092856Y-146307200D01*
X242092856Y-146307200D02*
X241949999Y-146354819D01*
X241949999Y-146354819D02*
X241854761Y-146354819D01*
X241854761Y-146354819D02*
X241711904Y-146307200D01*
X241711904Y-146307200D02*
X241616666Y-146211961D01*
X241616666Y-146211961D02*
X241569047Y-146116723D01*
X241569047Y-146116723D02*
X241521428Y-145926247D01*
X241521428Y-145926247D02*
X241521428Y-145783390D01*
X241521428Y-145783390D02*
X241569047Y-145592914D01*
X241569047Y-145592914D02*
X241616666Y-145497676D01*
X241616666Y-145497676D02*
X241711904Y-145402438D01*
X241711904Y-145402438D02*
X241854761Y-145354819D01*
X241854761Y-145354819D02*
X241949999Y-145354819D01*
X241949999Y-145354819D02*
X242092856Y-145402438D01*
X242092856Y-145402438D02*
X242140475Y-145450057D01*
X243092856Y-146354819D02*
X242521428Y-146354819D01*
X242807142Y-146354819D02*
X242807142Y-145354819D01*
X242807142Y-145354819D02*
X242711904Y-145497676D01*
X242711904Y-145497676D02*
X242616666Y-145592914D01*
X242616666Y-145592914D02*
X242521428Y-145640533D01*
X244045237Y-146354819D02*
X243473809Y-146354819D01*
X243759523Y-146354819D02*
X243759523Y-145354819D01*
X243759523Y-145354819D02*
X243664285Y-145497676D01*
X243664285Y-145497676D02*
X243569047Y-145592914D01*
X243569047Y-145592914D02*
X243473809Y-145640533D01*
X218492913Y-125242857D02*
X218540533Y-125290476D01*
X218540533Y-125290476D02*
X218588152Y-125433333D01*
X218588152Y-125433333D02*
X218588152Y-125528571D01*
X218588152Y-125528571D02*
X218540533Y-125671428D01*
X218540533Y-125671428D02*
X218445294Y-125766666D01*
X218445294Y-125766666D02*
X218350056Y-125814285D01*
X218350056Y-125814285D02*
X218159580Y-125861904D01*
X218159580Y-125861904D02*
X218016723Y-125861904D01*
X218016723Y-125861904D02*
X217826247Y-125814285D01*
X217826247Y-125814285D02*
X217731009Y-125766666D01*
X217731009Y-125766666D02*
X217635771Y-125671428D01*
X217635771Y-125671428D02*
X217588152Y-125528571D01*
X217588152Y-125528571D02*
X217588152Y-125433333D01*
X217588152Y-125433333D02*
X217635771Y-125290476D01*
X217635771Y-125290476D02*
X217683390Y-125242857D01*
X218588152Y-124290476D02*
X218588152Y-124861904D01*
X218588152Y-124576190D02*
X217588152Y-124576190D01*
X217588152Y-124576190D02*
X217731009Y-124671428D01*
X217731009Y-124671428D02*
X217826247Y-124766666D01*
X217826247Y-124766666D02*
X217873866Y-124861904D01*
X217921485Y-123433333D02*
X218588152Y-123433333D01*
X217540533Y-123671428D02*
X218254818Y-123909523D01*
X218254818Y-123909523D02*
X218254818Y-123290476D01*
X218471428Y-134704819D02*
X219042856Y-134704819D01*
X218757142Y-135704819D02*
X218757142Y-134704819D01*
X219376190Y-135704819D02*
X219376190Y-134704819D01*
X219376190Y-134704819D02*
X219757142Y-134704819D01*
X219757142Y-134704819D02*
X219852380Y-134752438D01*
X219852380Y-134752438D02*
X219899999Y-134800057D01*
X219899999Y-134800057D02*
X219947618Y-134895295D01*
X219947618Y-134895295D02*
X219947618Y-135038152D01*
X219947618Y-135038152D02*
X219899999Y-135133390D01*
X219899999Y-135133390D02*
X219852380Y-135181009D01*
X219852380Y-135181009D02*
X219757142Y-135228628D01*
X219757142Y-135228628D02*
X219376190Y-135228628D01*
X220899999Y-135704819D02*
X220328571Y-135704819D01*
X220614285Y-135704819D02*
X220614285Y-134704819D01*
X220614285Y-134704819D02*
X220519047Y-134847676D01*
X220519047Y-134847676D02*
X220423809Y-134942914D01*
X220423809Y-134942914D02*
X220328571Y-134990533D01*
X236121428Y-145504819D02*
X236121428Y-146314342D01*
X236121428Y-146314342D02*
X236169047Y-146409580D01*
X236169047Y-146409580D02*
X236216666Y-146457200D01*
X236216666Y-146457200D02*
X236311904Y-146504819D01*
X236311904Y-146504819D02*
X236502380Y-146504819D01*
X236502380Y-146504819D02*
X236597618Y-146457200D01*
X236597618Y-146457200D02*
X236645237Y-146409580D01*
X236645237Y-146409580D02*
X236692856Y-146314342D01*
X236692856Y-146314342D02*
X236692856Y-145504819D01*
X237692856Y-146504819D02*
X237121428Y-146504819D01*
X237407142Y-146504819D02*
X237407142Y-145504819D01*
X237407142Y-145504819D02*
X237311904Y-145647676D01*
X237311904Y-145647676D02*
X237216666Y-145742914D01*
X237216666Y-145742914D02*
X237121428Y-145790533D01*
X226242913Y-134049999D02*
X226290533Y-134097618D01*
X226290533Y-134097618D02*
X226338152Y-134240475D01*
X226338152Y-134240475D02*
X226338152Y-134335713D01*
X226338152Y-134335713D02*
X226290533Y-134478570D01*
X226290533Y-134478570D02*
X226195294Y-134573808D01*
X226195294Y-134573808D02*
X226100056Y-134621427D01*
X226100056Y-134621427D02*
X225909580Y-134669046D01*
X225909580Y-134669046D02*
X225766723Y-134669046D01*
X225766723Y-134669046D02*
X225576247Y-134621427D01*
X225576247Y-134621427D02*
X225481009Y-134573808D01*
X225481009Y-134573808D02*
X225385771Y-134478570D01*
X225385771Y-134478570D02*
X225338152Y-134335713D01*
X225338152Y-134335713D02*
X225338152Y-134240475D01*
X225338152Y-134240475D02*
X225385771Y-134097618D01*
X225385771Y-134097618D02*
X225433390Y-134049999D01*
X225671485Y-133192856D02*
X226338152Y-133192856D01*
X225290533Y-133430951D02*
X226004818Y-133669046D01*
X226004818Y-133669046D02*
X226004818Y-133049999D01*
X234533390Y-120595238D02*
X234485771Y-120690476D01*
X234485771Y-120690476D02*
X234390533Y-120785714D01*
X234390533Y-120785714D02*
X234247675Y-120928571D01*
X234247675Y-120928571D02*
X234200056Y-121023809D01*
X234200056Y-121023809D02*
X234200056Y-121119047D01*
X234438152Y-121071428D02*
X234390533Y-121166666D01*
X234390533Y-121166666D02*
X234295294Y-121261904D01*
X234295294Y-121261904D02*
X234104818Y-121309523D01*
X234104818Y-121309523D02*
X233771485Y-121309523D01*
X233771485Y-121309523D02*
X233581009Y-121261904D01*
X233581009Y-121261904D02*
X233485771Y-121166666D01*
X233485771Y-121166666D02*
X233438152Y-121071428D01*
X233438152Y-121071428D02*
X233438152Y-120880952D01*
X233438152Y-120880952D02*
X233485771Y-120785714D01*
X233485771Y-120785714D02*
X233581009Y-120690476D01*
X233581009Y-120690476D02*
X233771485Y-120642857D01*
X233771485Y-120642857D02*
X234104818Y-120642857D01*
X234104818Y-120642857D02*
X234295294Y-120690476D01*
X234295294Y-120690476D02*
X234390533Y-120785714D01*
X234390533Y-120785714D02*
X234438152Y-120880952D01*
X234438152Y-120880952D02*
X234438152Y-121071428D01*
X234438152Y-119690476D02*
X234438152Y-120261904D01*
X234438152Y-119976190D02*
X233438152Y-119976190D01*
X233438152Y-119976190D02*
X233581009Y-120071428D01*
X233581009Y-120071428D02*
X233676247Y-120166666D01*
X233676247Y-120166666D02*
X233723866Y-120261904D01*
X245266666Y-146354819D02*
X244933333Y-145878628D01*
X244695238Y-146354819D02*
X244695238Y-145354819D01*
X244695238Y-145354819D02*
X245076190Y-145354819D01*
X245076190Y-145354819D02*
X245171428Y-145402438D01*
X245171428Y-145402438D02*
X245219047Y-145450057D01*
X245219047Y-145450057D02*
X245266666Y-145545295D01*
X245266666Y-145545295D02*
X245266666Y-145688152D01*
X245266666Y-145688152D02*
X245219047Y-145783390D01*
X245219047Y-145783390D02*
X245171428Y-145831009D01*
X245171428Y-145831009D02*
X245076190Y-145878628D01*
X245076190Y-145878628D02*
X244695238Y-145878628D01*
X245647619Y-145450057D02*
X245695238Y-145402438D01*
X245695238Y-145402438D02*
X245790476Y-145354819D01*
X245790476Y-145354819D02*
X246028571Y-145354819D01*
X246028571Y-145354819D02*
X246123809Y-145402438D01*
X246123809Y-145402438D02*
X246171428Y-145450057D01*
X246171428Y-145450057D02*
X246219047Y-145545295D01*
X246219047Y-145545295D02*
X246219047Y-145640533D01*
X246219047Y-145640533D02*
X246171428Y-145783390D01*
X246171428Y-145783390D02*
X245600000Y-146354819D01*
X245600000Y-146354819D02*
X246219047Y-146354819D01*
X245842913Y-129842857D02*
X245890533Y-129890476D01*
X245890533Y-129890476D02*
X245938152Y-130033333D01*
X245938152Y-130033333D02*
X245938152Y-130128571D01*
X245938152Y-130128571D02*
X245890533Y-130271428D01*
X245890533Y-130271428D02*
X245795294Y-130366666D01*
X245795294Y-130366666D02*
X245700056Y-130414285D01*
X245700056Y-130414285D02*
X245509580Y-130461904D01*
X245509580Y-130461904D02*
X245366723Y-130461904D01*
X245366723Y-130461904D02*
X245176247Y-130414285D01*
X245176247Y-130414285D02*
X245081009Y-130366666D01*
X245081009Y-130366666D02*
X244985771Y-130271428D01*
X244985771Y-130271428D02*
X244938152Y-130128571D01*
X244938152Y-130128571D02*
X244938152Y-130033333D01*
X244938152Y-130033333D02*
X244985771Y-129890476D01*
X244985771Y-129890476D02*
X245033390Y-129842857D01*
X245938152Y-128890476D02*
X245938152Y-129461904D01*
X245938152Y-129176190D02*
X244938152Y-129176190D01*
X244938152Y-129176190D02*
X245081009Y-129271428D01*
X245081009Y-129271428D02*
X245176247Y-129366666D01*
X245176247Y-129366666D02*
X245223866Y-129461904D01*
X245033390Y-128509523D02*
X244985771Y-128461904D01*
X244985771Y-128461904D02*
X244938152Y-128366666D01*
X244938152Y-128366666D02*
X244938152Y-128128571D01*
X244938152Y-128128571D02*
X244985771Y-128033333D01*
X244985771Y-128033333D02*
X245033390Y-127985714D01*
X245033390Y-127985714D02*
X245128628Y-127938095D01*
X245128628Y-127938095D02*
X245223866Y-127938095D01*
X245223866Y-127938095D02*
X245366723Y-127985714D01*
X245366723Y-127985714D02*
X245938152Y-128557142D01*
X245938152Y-128557142D02*
X245938152Y-127938095D01*
X226242913Y-129516666D02*
X226290533Y-129564285D01*
X226290533Y-129564285D02*
X226338152Y-129707142D01*
X226338152Y-129707142D02*
X226338152Y-129802380D01*
X226338152Y-129802380D02*
X226290533Y-129945237D01*
X226290533Y-129945237D02*
X226195294Y-130040475D01*
X226195294Y-130040475D02*
X226100056Y-130088094D01*
X226100056Y-130088094D02*
X225909580Y-130135713D01*
X225909580Y-130135713D02*
X225766723Y-130135713D01*
X225766723Y-130135713D02*
X225576247Y-130088094D01*
X225576247Y-130088094D02*
X225481009Y-130040475D01*
X225481009Y-130040475D02*
X225385771Y-129945237D01*
X225385771Y-129945237D02*
X225338152Y-129802380D01*
X225338152Y-129802380D02*
X225338152Y-129707142D01*
X225338152Y-129707142D02*
X225385771Y-129564285D01*
X225385771Y-129564285D02*
X225433390Y-129516666D01*
X225766723Y-128945237D02*
X225719104Y-129040475D01*
X225719104Y-129040475D02*
X225671485Y-129088094D01*
X225671485Y-129088094D02*
X225576247Y-129135713D01*
X225576247Y-129135713D02*
X225528628Y-129135713D01*
X225528628Y-129135713D02*
X225433390Y-129088094D01*
X225433390Y-129088094D02*
X225385771Y-129040475D01*
X225385771Y-129040475D02*
X225338152Y-128945237D01*
X225338152Y-128945237D02*
X225338152Y-128754761D01*
X225338152Y-128754761D02*
X225385771Y-128659523D01*
X225385771Y-128659523D02*
X225433390Y-128611904D01*
X225433390Y-128611904D02*
X225528628Y-128564285D01*
X225528628Y-128564285D02*
X225576247Y-128564285D01*
X225576247Y-128564285D02*
X225671485Y-128611904D01*
X225671485Y-128611904D02*
X225719104Y-128659523D01*
X225719104Y-128659523D02*
X225766723Y-128754761D01*
X225766723Y-128754761D02*
X225766723Y-128945237D01*
X225766723Y-128945237D02*
X225814342Y-129040475D01*
X225814342Y-129040475D02*
X225861961Y-129088094D01*
X225861961Y-129088094D02*
X225957199Y-129135713D01*
X225957199Y-129135713D02*
X226147675Y-129135713D01*
X226147675Y-129135713D02*
X226242913Y-129088094D01*
X226242913Y-129088094D02*
X226290533Y-129040475D01*
X226290533Y-129040475D02*
X226338152Y-128945237D01*
X226338152Y-128945237D02*
X226338152Y-128754761D01*
X226338152Y-128754761D02*
X226290533Y-128659523D01*
X226290533Y-128659523D02*
X226242913Y-128611904D01*
X226242913Y-128611904D02*
X226147675Y-128564285D01*
X226147675Y-128564285D02*
X225957199Y-128564285D01*
X225957199Y-128564285D02*
X225861961Y-128611904D01*
X225861961Y-128611904D02*
X225814342Y-128659523D01*
X225814342Y-128659523D02*
X225766723Y-128754761D01*
X226338152Y-136316666D02*
X225861961Y-136649999D01*
X226338152Y-136888094D02*
X225338152Y-136888094D01*
X225338152Y-136888094D02*
X225338152Y-136507142D01*
X225338152Y-136507142D02*
X225385771Y-136411904D01*
X225385771Y-136411904D02*
X225433390Y-136364285D01*
X225433390Y-136364285D02*
X225528628Y-136316666D01*
X225528628Y-136316666D02*
X225671485Y-136316666D01*
X225671485Y-136316666D02*
X225766723Y-136364285D01*
X225766723Y-136364285D02*
X225814342Y-136411904D01*
X225814342Y-136411904D02*
X225861961Y-136507142D01*
X225861961Y-136507142D02*
X225861961Y-136888094D01*
X226338152Y-135364285D02*
X226338152Y-135935713D01*
X226338152Y-135649999D02*
X225338152Y-135649999D01*
X225338152Y-135649999D02*
X225481009Y-135745237D01*
X225481009Y-135745237D02*
X225576247Y-135840475D01*
X225576247Y-135840475D02*
X225623866Y-135935713D01*
X233766666Y-137859580D02*
X233719047Y-137907200D01*
X233719047Y-137907200D02*
X233576190Y-137954819D01*
X233576190Y-137954819D02*
X233480952Y-137954819D01*
X233480952Y-137954819D02*
X233338095Y-137907200D01*
X233338095Y-137907200D02*
X233242857Y-137811961D01*
X233242857Y-137811961D02*
X233195238Y-137716723D01*
X233195238Y-137716723D02*
X233147619Y-137526247D01*
X233147619Y-137526247D02*
X233147619Y-137383390D01*
X233147619Y-137383390D02*
X233195238Y-137192914D01*
X233195238Y-137192914D02*
X233242857Y-137097676D01*
X233242857Y-137097676D02*
X233338095Y-137002438D01*
X233338095Y-137002438D02*
X233480952Y-136954819D01*
X233480952Y-136954819D02*
X233576190Y-136954819D01*
X233576190Y-136954819D02*
X233719047Y-137002438D01*
X233719047Y-137002438D02*
X233766666Y-137050057D01*
X234242857Y-137954819D02*
X234433333Y-137954819D01*
X234433333Y-137954819D02*
X234528571Y-137907200D01*
X234528571Y-137907200D02*
X234576190Y-137859580D01*
X234576190Y-137859580D02*
X234671428Y-137716723D01*
X234671428Y-137716723D02*
X234719047Y-137526247D01*
X234719047Y-137526247D02*
X234719047Y-137145295D01*
X234719047Y-137145295D02*
X234671428Y-137050057D01*
X234671428Y-137050057D02*
X234623809Y-137002438D01*
X234623809Y-137002438D02*
X234528571Y-136954819D01*
X234528571Y-136954819D02*
X234338095Y-136954819D01*
X234338095Y-136954819D02*
X234242857Y-137002438D01*
X234242857Y-137002438D02*
X234195238Y-137050057D01*
X234195238Y-137050057D02*
X234147619Y-137145295D01*
X234147619Y-137145295D02*
X234147619Y-137383390D01*
X234147619Y-137383390D02*
X234195238Y-137478628D01*
X234195238Y-137478628D02*
X234242857Y-137526247D01*
X234242857Y-137526247D02*
X234338095Y-137573866D01*
X234338095Y-137573866D02*
X234528571Y-137573866D01*
X234528571Y-137573866D02*
X234623809Y-137526247D01*
X234623809Y-137526247D02*
X234671428Y-137478628D01*
X234671428Y-137478628D02*
X234719047Y-137383390D01*
X218716666Y-139409580D02*
X218669047Y-139457200D01*
X218669047Y-139457200D02*
X218526190Y-139504819D01*
X218526190Y-139504819D02*
X218430952Y-139504819D01*
X218430952Y-139504819D02*
X218288095Y-139457200D01*
X218288095Y-139457200D02*
X218192857Y-139361961D01*
X218192857Y-139361961D02*
X218145238Y-139266723D01*
X218145238Y-139266723D02*
X218097619Y-139076247D01*
X218097619Y-139076247D02*
X218097619Y-138933390D01*
X218097619Y-138933390D02*
X218145238Y-138742914D01*
X218145238Y-138742914D02*
X218192857Y-138647676D01*
X218192857Y-138647676D02*
X218288095Y-138552438D01*
X218288095Y-138552438D02*
X218430952Y-138504819D01*
X218430952Y-138504819D02*
X218526190Y-138504819D01*
X218526190Y-138504819D02*
X218669047Y-138552438D01*
X218669047Y-138552438D02*
X218716666Y-138600057D01*
X219097619Y-138600057D02*
X219145238Y-138552438D01*
X219145238Y-138552438D02*
X219240476Y-138504819D01*
X219240476Y-138504819D02*
X219478571Y-138504819D01*
X219478571Y-138504819D02*
X219573809Y-138552438D01*
X219573809Y-138552438D02*
X219621428Y-138600057D01*
X219621428Y-138600057D02*
X219669047Y-138695295D01*
X219669047Y-138695295D02*
X219669047Y-138790533D01*
X219669047Y-138790533D02*
X219621428Y-138933390D01*
X219621428Y-138933390D02*
X219050000Y-139504819D01*
X219050000Y-139504819D02*
X219669047Y-139504819D01*
X217866666Y-114104819D02*
X217533333Y-113628628D01*
X217295238Y-114104819D02*
X217295238Y-113104819D01*
X217295238Y-113104819D02*
X217676190Y-113104819D01*
X217676190Y-113104819D02*
X217771428Y-113152438D01*
X217771428Y-113152438D02*
X217819047Y-113200057D01*
X217819047Y-113200057D02*
X217866666Y-113295295D01*
X217866666Y-113295295D02*
X217866666Y-113438152D01*
X217866666Y-113438152D02*
X217819047Y-113533390D01*
X217819047Y-113533390D02*
X217771428Y-113581009D01*
X217771428Y-113581009D02*
X217676190Y-113628628D01*
X217676190Y-113628628D02*
X217295238Y-113628628D01*
X218723809Y-113104819D02*
X218533333Y-113104819D01*
X218533333Y-113104819D02*
X218438095Y-113152438D01*
X218438095Y-113152438D02*
X218390476Y-113200057D01*
X218390476Y-113200057D02*
X218295238Y-113342914D01*
X218295238Y-113342914D02*
X218247619Y-113533390D01*
X218247619Y-113533390D02*
X218247619Y-113914342D01*
X218247619Y-113914342D02*
X218295238Y-114009580D01*
X218295238Y-114009580D02*
X218342857Y-114057200D01*
X218342857Y-114057200D02*
X218438095Y-114104819D01*
X218438095Y-114104819D02*
X218628571Y-114104819D01*
X218628571Y-114104819D02*
X218723809Y-114057200D01*
X218723809Y-114057200D02*
X218771428Y-114009580D01*
X218771428Y-114009580D02*
X218819047Y-113914342D01*
X218819047Y-113914342D02*
X218819047Y-113676247D01*
X218819047Y-113676247D02*
X218771428Y-113581009D01*
X218771428Y-113581009D02*
X218723809Y-113533390D01*
X218723809Y-113533390D02*
X218628571Y-113485771D01*
X218628571Y-113485771D02*
X218438095Y-113485771D01*
X218438095Y-113485771D02*
X218342857Y-113533390D01*
X218342857Y-113533390D02*
X218295238Y-113581009D01*
X218295238Y-113581009D02*
X218247619Y-113676247D01*
X227771428Y-126054819D02*
X228342856Y-126054819D01*
X228057142Y-127054819D02*
X228057142Y-126054819D01*
X228676190Y-127054819D02*
X228676190Y-126054819D01*
X228676190Y-126054819D02*
X229057142Y-126054819D01*
X229057142Y-126054819D02*
X229152380Y-126102438D01*
X229152380Y-126102438D02*
X229199999Y-126150057D01*
X229199999Y-126150057D02*
X229247618Y-126245295D01*
X229247618Y-126245295D02*
X229247618Y-126388152D01*
X229247618Y-126388152D02*
X229199999Y-126483390D01*
X229199999Y-126483390D02*
X229152380Y-126531009D01*
X229152380Y-126531009D02*
X229057142Y-126578628D01*
X229057142Y-126578628D02*
X228676190Y-126578628D01*
X230104761Y-126388152D02*
X230104761Y-127054819D01*
X229866666Y-126007200D02*
X229628571Y-126721485D01*
X229628571Y-126721485D02*
X230247618Y-126721485D01*
X231866666Y-128409580D02*
X231819047Y-128457200D01*
X231819047Y-128457200D02*
X231676190Y-128504819D01*
X231676190Y-128504819D02*
X231580952Y-128504819D01*
X231580952Y-128504819D02*
X231438095Y-128457200D01*
X231438095Y-128457200D02*
X231342857Y-128361961D01*
X231342857Y-128361961D02*
X231295238Y-128266723D01*
X231295238Y-128266723D02*
X231247619Y-128076247D01*
X231247619Y-128076247D02*
X231247619Y-127933390D01*
X231247619Y-127933390D02*
X231295238Y-127742914D01*
X231295238Y-127742914D02*
X231342857Y-127647676D01*
X231342857Y-127647676D02*
X231438095Y-127552438D01*
X231438095Y-127552438D02*
X231580952Y-127504819D01*
X231580952Y-127504819D02*
X231676190Y-127504819D01*
X231676190Y-127504819D02*
X231819047Y-127552438D01*
X231819047Y-127552438D02*
X231866666Y-127600057D01*
X232771428Y-127504819D02*
X232295238Y-127504819D01*
X232295238Y-127504819D02*
X232247619Y-127981009D01*
X232247619Y-127981009D02*
X232295238Y-127933390D01*
X232295238Y-127933390D02*
X232390476Y-127885771D01*
X232390476Y-127885771D02*
X232628571Y-127885771D01*
X232628571Y-127885771D02*
X232723809Y-127933390D01*
X232723809Y-127933390D02*
X232771428Y-127981009D01*
X232771428Y-127981009D02*
X232819047Y-128076247D01*
X232819047Y-128076247D02*
X232819047Y-128314342D01*
X232819047Y-128314342D02*
X232771428Y-128409580D01*
X232771428Y-128409580D02*
X232723809Y-128457200D01*
X232723809Y-128457200D02*
X232628571Y-128504819D01*
X232628571Y-128504819D02*
X232390476Y-128504819D01*
X232390476Y-128504819D02*
X232295238Y-128457200D01*
X232295238Y-128457200D02*
X232247619Y-128409580D01*
X222749999Y-145954819D02*
X222749999Y-146669104D01*
X222749999Y-146669104D02*
X222702380Y-146811961D01*
X222702380Y-146811961D02*
X222607142Y-146907200D01*
X222607142Y-146907200D02*
X222464285Y-146954819D01*
X222464285Y-146954819D02*
X222369047Y-146954819D01*
X223749999Y-146954819D02*
X223178571Y-146954819D01*
X223464285Y-146954819D02*
X223464285Y-145954819D01*
X223464285Y-145954819D02*
X223369047Y-146097676D01*
X223369047Y-146097676D02*
X223273809Y-146192914D01*
X223273809Y-146192914D02*
X223178571Y-146240533D01*
X217866666Y-115704819D02*
X217533333Y-115228628D01*
X217295238Y-115704819D02*
X217295238Y-114704819D01*
X217295238Y-114704819D02*
X217676190Y-114704819D01*
X217676190Y-114704819D02*
X217771428Y-114752438D01*
X217771428Y-114752438D02*
X217819047Y-114800057D01*
X217819047Y-114800057D02*
X217866666Y-114895295D01*
X217866666Y-114895295D02*
X217866666Y-115038152D01*
X217866666Y-115038152D02*
X217819047Y-115133390D01*
X217819047Y-115133390D02*
X217771428Y-115181009D01*
X217771428Y-115181009D02*
X217676190Y-115228628D01*
X217676190Y-115228628D02*
X217295238Y-115228628D01*
X218200000Y-114704819D02*
X218866666Y-114704819D01*
X218866666Y-114704819D02*
X218438095Y-115704819D01*
X235588152Y-126916666D02*
X235111961Y-127249999D01*
X235588152Y-127488094D02*
X234588152Y-127488094D01*
X234588152Y-127488094D02*
X234588152Y-127107142D01*
X234588152Y-127107142D02*
X234635771Y-127011904D01*
X234635771Y-127011904D02*
X234683390Y-126964285D01*
X234683390Y-126964285D02*
X234778628Y-126916666D01*
X234778628Y-126916666D02*
X234921485Y-126916666D01*
X234921485Y-126916666D02*
X235016723Y-126964285D01*
X235016723Y-126964285D02*
X235064342Y-127011904D01*
X235064342Y-127011904D02*
X235111961Y-127107142D01*
X235111961Y-127107142D02*
X235111961Y-127488094D01*
X234588152Y-126011904D02*
X234588152Y-126488094D01*
X234588152Y-126488094D02*
X235064342Y-126535713D01*
X235064342Y-126535713D02*
X235016723Y-126488094D01*
X235016723Y-126488094D02*
X234969104Y-126392856D01*
X234969104Y-126392856D02*
X234969104Y-126154761D01*
X234969104Y-126154761D02*
X235016723Y-126059523D01*
X235016723Y-126059523D02*
X235064342Y-126011904D01*
X235064342Y-126011904D02*
X235159580Y-125964285D01*
X235159580Y-125964285D02*
X235397675Y-125964285D01*
X235397675Y-125964285D02*
X235492913Y-126011904D01*
X235492913Y-126011904D02*
X235540533Y-126059523D01*
X235540533Y-126059523D02*
X235588152Y-126154761D01*
X235588152Y-126154761D02*
X235588152Y-126392856D01*
X235588152Y-126392856D02*
X235540533Y-126488094D01*
X235540533Y-126488094D02*
X235492913Y-126535713D01*
X241166666Y-137654819D02*
X240833333Y-137178628D01*
X240595238Y-137654819D02*
X240595238Y-136654819D01*
X240595238Y-136654819D02*
X240976190Y-136654819D01*
X240976190Y-136654819D02*
X241071428Y-136702438D01*
X241071428Y-136702438D02*
X241119047Y-136750057D01*
X241119047Y-136750057D02*
X241166666Y-136845295D01*
X241166666Y-136845295D02*
X241166666Y-136988152D01*
X241166666Y-136988152D02*
X241119047Y-137083390D01*
X241119047Y-137083390D02*
X241071428Y-137131009D01*
X241071428Y-137131009D02*
X240976190Y-137178628D01*
X240976190Y-137178628D02*
X240595238Y-137178628D01*
X241500000Y-136654819D02*
X242119047Y-136654819D01*
X242119047Y-136654819D02*
X241785714Y-137035771D01*
X241785714Y-137035771D02*
X241928571Y-137035771D01*
X241928571Y-137035771D02*
X242023809Y-137083390D01*
X242023809Y-137083390D02*
X242071428Y-137131009D01*
X242071428Y-137131009D02*
X242119047Y-137226247D01*
X242119047Y-137226247D02*
X242119047Y-137464342D01*
X242119047Y-137464342D02*
X242071428Y-137559580D01*
X242071428Y-137559580D02*
X242023809Y-137607200D01*
X242023809Y-137607200D02*
X241928571Y-137654819D01*
X241928571Y-137654819D02*
X241642857Y-137654819D01*
X241642857Y-137654819D02*
X241547619Y-137607200D01*
X241547619Y-137607200D02*
X241500000Y-137559580D01*
X229595238Y-114804819D02*
X229595238Y-113804819D01*
X229595238Y-113804819D02*
X229833333Y-113804819D01*
X229833333Y-113804819D02*
X229976190Y-113852438D01*
X229976190Y-113852438D02*
X230071428Y-113947676D01*
X230071428Y-113947676D02*
X230119047Y-114042914D01*
X230119047Y-114042914D02*
X230166666Y-114233390D01*
X230166666Y-114233390D02*
X230166666Y-114376247D01*
X230166666Y-114376247D02*
X230119047Y-114566723D01*
X230119047Y-114566723D02*
X230071428Y-114661961D01*
X230071428Y-114661961D02*
X229976190Y-114757200D01*
X229976190Y-114757200D02*
X229833333Y-114804819D01*
X229833333Y-114804819D02*
X229595238Y-114804819D01*
X231119047Y-114804819D02*
X230547619Y-114804819D01*
X230833333Y-114804819D02*
X230833333Y-113804819D01*
X230833333Y-113804819D02*
X230738095Y-113947676D01*
X230738095Y-113947676D02*
X230642857Y-114042914D01*
X230642857Y-114042914D02*
X230547619Y-114090533D01*
X225991127Y-118737932D02*
X225181431Y-118737932D01*
X225181431Y-118737932D02*
X225086173Y-118785562D01*
X225086173Y-118785562D02*
X225038544Y-118833191D01*
X225038544Y-118833191D02*
X224990914Y-118928449D01*
X224990914Y-118928449D02*
X224990914Y-119118966D01*
X224990914Y-119118966D02*
X225038544Y-119214224D01*
X225038544Y-119214224D02*
X225086173Y-119261854D01*
X225086173Y-119261854D02*
X225181431Y-119309483D01*
X225181431Y-119309483D02*
X225991127Y-119309483D01*
X225991127Y-119690516D02*
X225991127Y-120309696D01*
X225991127Y-120309696D02*
X225610094Y-119976291D01*
X225610094Y-119976291D02*
X225610094Y-120119179D01*
X225610094Y-120119179D02*
X225562465Y-120214437D01*
X225562465Y-120214437D02*
X225514835Y-120262066D01*
X225514835Y-120262066D02*
X225419577Y-120309696D01*
X225419577Y-120309696D02*
X225181431Y-120309696D01*
X225181431Y-120309696D02*
X225086173Y-120262066D01*
X225086173Y-120262066D02*
X225038544Y-120214437D01*
X225038544Y-120214437D02*
X224990914Y-120119179D01*
X224990914Y-120119179D02*
X224990914Y-119833404D01*
X224990914Y-119833404D02*
X225038544Y-119738145D01*
X225038544Y-119738145D02*
X225086173Y-119690516D01*
X223602753Y-116292049D02*
X223841278Y-116292049D01*
X223745868Y-116530574D02*
X223841278Y-116292049D01*
X223841278Y-116292049D02*
X223745868Y-116053525D01*
X224032098Y-116435164D02*
X223841278Y-116292049D01*
X223841278Y-116292049D02*
X224032098Y-116148935D01*
X223600304Y-116296599D02*
X223838500Y-116296599D01*
X223743222Y-116534796D02*
X223838500Y-116296599D01*
X223838500Y-116296599D02*
X223743222Y-116058403D01*
X224029057Y-116439517D02*
X223838500Y-116296599D01*
X223838500Y-116296599D02*
X224029057Y-116153681D01*
D11*
%TO.C,U2*%
X234333333Y-133750000D02*
X234333333Y-129850000D01*
X239383333Y-133750000D02*
X239383333Y-129850000D01*
D12*
X234653333Y-135840000D02*
G75*
G02*
X234453333Y-135840000I-100000J0D01*
G01*
X234453333Y-135840000D02*
G75*
G02*
X234653333Y-135840000I100000J0D01*
G01*
D13*
%TO.C,C1*%
X233348333Y-143611252D02*
X233348333Y-143088748D01*
X234818333Y-143611252D02*
X234818333Y-143088748D01*
%TO.C,D32*%
X238380833Y-123295000D02*
X239040833Y-123295000D01*
X238380833Y-124705000D02*
X238380833Y-123295000D01*
X240040833Y-123295000D02*
X240700833Y-123295000D01*
X240700833Y-124705000D02*
X240700833Y-123295000D01*
X238400833Y-125075000D02*
X238070833Y-125315000D01*
X238070833Y-124835000D01*
X238400833Y-125075000D01*
G36*
X238400833Y-125075000D02*
G01*
X238070833Y-125315000D01*
X238070833Y-124835000D01*
X238400833Y-125075000D01*
G37*
%TO.C,C13*%
X240973333Y-130440000D02*
X240973333Y-131140000D01*
X240973333Y-133960000D02*
X240973333Y-133260000D01*
X243603896Y-130440000D02*
X240973333Y-130440000D01*
X243603896Y-133960000D02*
X240973333Y-133960000D01*
X244303896Y-131140000D02*
X243603896Y-130440000D01*
X244303896Y-133260000D02*
X243603896Y-133960000D01*
X244920833Y-133822500D02*
X244920833Y-133447500D01*
X245108333Y-133635000D02*
X244733333Y-133635000D01*
%TO.C,R8*%
X224606269Y-123865000D02*
X225060397Y-123865000D01*
X224606269Y-125335000D02*
X225060397Y-125335000D01*
%TO.C,RV1*%
X227553333Y-135935000D02*
X227553333Y-145685000D01*
X232603333Y-135935000D02*
X227553333Y-135935000D01*
X232603333Y-135935000D02*
X232603333Y-145685000D01*
X232603333Y-145685000D02*
X227553333Y-145685000D01*
%TO.C,TP5*%
X219083333Y-118700000D02*
G75*
G02*
X217183333Y-118700000I-950000J0D01*
G01*
X217183333Y-118700000D02*
G75*
G02*
X219083333Y-118700000I950000J0D01*
G01*
%TO.C,JP1*%
X231383333Y-134800000D02*
X231383333Y-133400000D01*
X232083333Y-132700000D02*
X232683333Y-132700000D01*
X232683333Y-135500000D02*
X232083333Y-135500000D01*
X233383333Y-133400000D02*
X233383333Y-134800000D01*
X231383333Y-133400000D02*
G75*
G02*
X232083333Y-132700000I699999J1D01*
G01*
X232083333Y-135500000D02*
G75*
G02*
X231383333Y-134800000I0J700000D01*
G01*
X232683333Y-132700000D02*
G75*
G02*
X233383333Y-133400000I1J-699999D01*
G01*
X233383333Y-134800000D02*
G75*
G02*
X232683333Y-135500000I-700000J0D01*
G01*
D11*
%TO.C,U4*%
X234945833Y-117720000D02*
X234945833Y-115380000D01*
X243595833Y-117720000D02*
X243595833Y-115380000D01*
D12*
X235270833Y-120600000D02*
G75*
G02*
X235070833Y-120600000I-100000J0D01*
G01*
X235070833Y-120600000D02*
G75*
G02*
X235270833Y-120600000I100000J0D01*
G01*
D13*
%TO.C,TP2*%
X220343333Y-127950000D02*
G75*
G02*
X218443333Y-127950000I-950000J0D01*
G01*
X218443333Y-127950000D02*
G75*
G02*
X220343333Y-127950000I950000J0D01*
G01*
%TO.C,R4*%
X236497897Y-124065000D02*
X236043769Y-124065000D01*
X236497897Y-125535000D02*
X236043769Y-125535000D01*
%TO.C,TP3*%
X245033333Y-139350000D02*
G75*
G02*
X243133333Y-139350000I-950000J0D01*
G01*
X243133333Y-139350000D02*
G75*
G02*
X245033333Y-139350000I950000J0D01*
G01*
%TO.C,R9*%
X241305833Y-123797936D02*
X241305833Y-124252064D01*
X242775833Y-123797936D02*
X242775833Y-124252064D01*
%TO.C,C10*%
X237719585Y-138815000D02*
X237197081Y-138815000D01*
X237719585Y-140285000D02*
X237197081Y-140285000D01*
%TO.C,C7*%
X227323333Y-130729437D02*
X227323333Y-133360000D01*
X227323333Y-133360000D02*
X228023333Y-133360000D01*
X228023333Y-130029437D02*
X227323333Y-130729437D01*
X230143333Y-130029437D02*
X230843333Y-130729437D01*
X230518333Y-129225000D02*
X230518333Y-129600000D01*
X230705833Y-129412500D02*
X230330833Y-129412500D01*
X230843333Y-130729437D02*
X230843333Y-133360000D01*
X230843333Y-133360000D02*
X230143333Y-133360000D01*
%TO.C,C6*%
X222922081Y-129715000D02*
X223444585Y-129715000D01*
X222922081Y-131185000D02*
X223444585Y-131185000D01*
%TO.C,C11*%
X240660833Y-143611252D02*
X240660833Y-143088748D01*
X242130833Y-143611252D02*
X242130833Y-143088748D01*
%TO.C,C14*%
X220572081Y-123865000D02*
X221094585Y-123865000D01*
X220572081Y-125335000D02*
X221094585Y-125335000D01*
%TO.C,TP1*%
X220493333Y-132950000D02*
G75*
G02*
X218593333Y-132950000I-950000J0D01*
G01*
X218593333Y-132950000D02*
G75*
G02*
X220493333Y-132950000I950000J0D01*
G01*
%TO.C,U1*%
X235895833Y-141740000D02*
X238895833Y-141740000D01*
X235895833Y-144960000D02*
X238895833Y-144960000D01*
X235555833Y-141990000D02*
X235075833Y-141990000D01*
X235555833Y-141510000D01*
X235555833Y-141990000D01*
G36*
X235555833Y-141990000D02*
G01*
X235075833Y-141990000D01*
X235555833Y-141510000D01*
X235555833Y-141990000D01*
G37*
%TO.C,C4*%
X222922081Y-132215000D02*
X223444585Y-132215000D01*
X222922081Y-133685000D02*
X223444585Y-133685000D01*
D11*
%TO.C,Q1*%
X227963333Y-124625000D02*
X227963333Y-119075000D01*
X233203333Y-119075000D02*
X233203333Y-124625000D01*
D12*
X232588333Y-118250000D02*
G75*
G02*
X232388333Y-118250000I-100000J0D01*
G01*
X232388333Y-118250000D02*
G75*
G02*
X232588333Y-118250000I100000J0D01*
G01*
D13*
%TO.C,R2*%
X243160833Y-143577064D02*
X243160833Y-143122936D01*
X244630833Y-143577064D02*
X244630833Y-143122936D01*
%TO.C,C12*%
X242994585Y-128465000D02*
X242472081Y-128465000D01*
X242994585Y-129935000D02*
X242472081Y-129935000D01*
%TO.C,C8*%
X222922081Y-127215000D02*
X223444585Y-127215000D01*
X222922081Y-128685000D02*
X223444585Y-128685000D01*
%TO.C,R1*%
X222956269Y-134715000D02*
X223410397Y-134715000D01*
X222956269Y-136185000D02*
X223410397Y-136185000D01*
%TO.C,C9*%
X237719585Y-136315000D02*
X237197081Y-136315000D01*
X237719585Y-137785000D02*
X237197081Y-137785000D01*
%TO.C,C2*%
X220808333Y-137515000D02*
X221183333Y-137515000D01*
X220995833Y-137327500D02*
X220995833Y-137702500D01*
X221612770Y-137890000D02*
X222312770Y-137190000D01*
X221612770Y-140010000D02*
X222312770Y-140710000D01*
X222312770Y-137190000D02*
X224943333Y-137190000D01*
X222312770Y-140710000D02*
X224943333Y-140710000D01*
X224943333Y-137190000D02*
X224943333Y-137890000D01*
X224943333Y-140710000D02*
X224943333Y-140010000D01*
%TO.C,R6*%
X221447897Y-113865000D02*
X220993769Y-113865000D01*
X221447897Y-115335000D02*
X220993769Y-115335000D01*
%TO.C,TP4*%
X227683333Y-127350000D02*
G75*
G02*
X225783333Y-127350000I-950000J0D01*
G01*
X225783333Y-127350000D02*
G75*
G02*
X227683333Y-127350000I950000J0D01*
G01*
%TO.C,C5*%
X231398333Y-130326248D02*
X231398333Y-130848752D01*
X232868333Y-130326248D02*
X232868333Y-130848752D01*
%TO.C,R7*%
X225160397Y-113865000D02*
X224706269Y-113865000D01*
X225160397Y-115335000D02*
X224706269Y-115335000D01*
%TO.C,R5*%
X236043769Y-121815000D02*
X236497897Y-121815000D01*
X236043769Y-123285000D02*
X236497897Y-123285000D01*
%TO.C,R3*%
X240660833Y-140077064D02*
X240660833Y-139622936D01*
X242130833Y-140077064D02*
X242130833Y-139622936D01*
%TO.C,D1*%
X227673333Y-115240000D02*
X227673333Y-117460000D01*
X227673333Y-117460000D02*
X232083333Y-117460000D01*
X232083333Y-115240000D02*
X227673333Y-115240000D01*
D14*
%TO.C,U3*%
X219191733Y-117466400D02*
X219191733Y-121733600D01*
X224474933Y-121733600D02*
X224474933Y-117466400D01*
%TD*%
M02*
