%TF.GenerationSoftware,KiCad,Pcbnew,9.0.2*%
%TF.CreationDate,2025-05-22T14:02:41+05:30*%
%TF.ProjectId,GaN_pwr_delivery_module,47614e5f-7077-4725-9f64-656c69766572,rev?*%
%TF.SameCoordinates,Original*%
%TF.FileFunction,Plated,1,2,PTH,Drill*%
%TF.FilePolarity,Positive*%
%FSLAX46Y46*%
G04 Gerber Fmt 4.6, Leading zero omitted, Abs format (unit mm)*
G04 Created by KiCad (PCBNEW 9.0.2) date 2025-05-22 14:02:41*
%MOMM*%
%LPD*%
G01*
G04 APERTURE LIST*
%TA.AperFunction,ViaDrill*%
%ADD10C,0.100000*%
%TD*%
%TA.AperFunction,ViaDrill*%
%ADD11C,0.300000*%
%TD*%
%TA.AperFunction,ComponentDrill*%
%ADD12C,0.600000*%
%TD*%
%TA.AperFunction,ComponentDrill*%
%ADD13C,0.800000*%
%TD*%
G04 APERTURE END LIST*
D10*
X219083333Y-116594444D03*
X219083333Y-117400000D03*
X219283333Y-114133333D03*
X219283333Y-114938889D03*
X219300000Y-120500000D03*
X219833333Y-110183333D03*
X219833333Y-110988889D03*
X219833333Y-111794444D03*
X219833333Y-112600000D03*
X220183333Y-112950000D03*
X220233333Y-120500000D03*
X220988889Y-112950000D03*
X221033333Y-119950000D03*
X221794444Y-112950000D03*
X222600000Y-112950000D03*
X223109276Y-118275080D03*
X223283333Y-112950000D03*
X224088889Y-112950000D03*
X224695658Y-117898795D03*
X224862060Y-116002623D03*
X224894444Y-112950000D03*
X225433333Y-128050000D03*
X225691256Y-116190136D03*
X225883333Y-129200000D03*
X225883333Y-130016667D03*
X225883333Y-130950000D03*
X225883333Y-131916667D03*
X225883333Y-132850000D03*
X225883333Y-133666667D03*
X225883333Y-134600000D03*
X225883333Y-135700000D03*
X225883333Y-136516667D03*
X225883333Y-137450000D03*
X226471960Y-115899999D03*
X226633333Y-122050000D03*
X226683333Y-120850000D03*
X226728518Y-116727398D03*
X226728518Y-117535555D03*
X226783333Y-123400000D03*
X227077777Y-135300000D03*
X227183333Y-110183333D03*
X227183333Y-110988889D03*
X227183333Y-111794444D03*
X227183333Y-112600000D03*
X227203149Y-116259180D03*
X227235219Y-115585716D03*
X227408396Y-117574039D03*
X227483333Y-121600000D03*
X227533333Y-122900000D03*
X227566666Y-112950000D03*
X227583333Y-120200000D03*
X227938888Y-136650000D03*
X228194444Y-135300000D03*
X228372222Y-112950000D03*
X228744444Y-136650000D03*
X229177777Y-112950000D03*
X229227777Y-135300000D03*
X229677777Y-136650000D03*
X229983333Y-112950000D03*
X230033333Y-135300000D03*
X230533333Y-112950000D03*
X230783333Y-132166667D03*
X230783333Y-133100000D03*
X230794444Y-136650000D03*
X231338889Y-112950000D03*
X231500000Y-144250000D03*
X231827777Y-136650000D03*
X232144444Y-112950000D03*
X232483333Y-113700000D03*
X232633333Y-136650000D03*
X232950000Y-112950000D03*
X233050000Y-114700000D03*
X233300000Y-119700000D03*
X233333333Y-117800000D03*
X233400000Y-113800000D03*
X233550000Y-115650000D03*
X233583333Y-116950000D03*
X233600000Y-118850000D03*
X233600000Y-121200000D03*
X233783333Y-110533333D03*
X233783333Y-112144444D03*
X233783333Y-112950000D03*
X233800000Y-120400000D03*
X233983333Y-114700000D03*
X234183333Y-116450000D03*
X234233333Y-117800000D03*
X234233333Y-119700000D03*
X234333333Y-113800000D03*
X234483333Y-115650000D03*
X234533333Y-118850000D03*
X234533333Y-121200000D03*
X234633333Y-117200000D03*
X234733333Y-120400000D03*
X234977777Y-110500000D03*
X235033333Y-116200000D03*
X235233333Y-141550000D03*
X235233333Y-142125000D03*
X235233333Y-142700000D03*
X235433333Y-136383333D03*
X235433333Y-136850000D03*
X235433333Y-137300000D03*
X235433333Y-137766667D03*
X235433333Y-138233333D03*
X235433333Y-138700000D03*
X235433333Y-139150000D03*
X235433333Y-139616667D03*
X235433333Y-140083333D03*
X235433333Y-140550000D03*
X235516666Y-112350000D03*
X235916666Y-140550000D03*
X235983333Y-131500000D03*
X236094444Y-110500000D03*
X236383333Y-140550000D03*
X236633333Y-112350000D03*
X236683333Y-142200000D03*
X236683333Y-142583333D03*
X236683333Y-142966667D03*
X236683333Y-143350000D03*
X236683333Y-143733333D03*
X236683333Y-144116667D03*
X236683333Y-144500000D03*
X236833333Y-140550000D03*
X237083333Y-132300000D03*
X237127777Y-110500000D03*
X237150000Y-142200000D03*
X237150000Y-142583333D03*
X237150000Y-142966667D03*
X237150000Y-143350000D03*
X237150000Y-143733333D03*
X237150000Y-144116667D03*
X237150000Y-144500000D03*
X237300000Y-140550000D03*
X237458333Y-135933333D03*
X237458333Y-136400000D03*
X237458333Y-136850000D03*
X237458333Y-137316667D03*
X237458333Y-137783333D03*
X237458333Y-138250000D03*
X237458333Y-138700000D03*
X237458333Y-139166667D03*
X237458333Y-139633333D03*
X237458333Y-140100000D03*
X237533333Y-127700000D03*
X237616666Y-142200000D03*
X237616666Y-142583333D03*
X237616666Y-142966667D03*
X237616666Y-143350000D03*
X237616666Y-143733333D03*
X237616666Y-144116667D03*
X237616666Y-144500000D03*
X237666666Y-112350000D03*
X237766666Y-140550000D03*
X237933333Y-110500000D03*
X237983333Y-131350000D03*
X238083333Y-142200000D03*
X238083333Y-142583333D03*
X238083333Y-142966667D03*
X238083333Y-143350000D03*
X238083333Y-143733333D03*
X238083333Y-144116667D03*
X238083333Y-144500000D03*
X238233333Y-140550000D03*
X238472222Y-112350000D03*
X238683333Y-140550000D03*
X238738888Y-110500000D03*
X239083333Y-132200000D03*
X239150000Y-140550000D03*
X239277777Y-112350000D03*
X239283333Y-115650000D03*
X239483333Y-136383333D03*
X239483333Y-136850000D03*
X239483333Y-137300000D03*
X239483333Y-137766667D03*
X239483333Y-138233333D03*
X239483333Y-138700000D03*
X239483333Y-139150000D03*
X239483333Y-139616667D03*
X239483333Y-140083333D03*
X239483333Y-140550000D03*
X239544444Y-110500000D03*
X240083333Y-112350000D03*
X240183333Y-134400000D03*
X240183333Y-136450000D03*
X240383333Y-123850000D03*
X240477777Y-110500000D03*
X240583333Y-122944444D03*
X240600000Y-135400000D03*
X240833333Y-122150000D03*
X240833333Y-137550000D03*
X240983333Y-121500000D03*
X241016666Y-112350000D03*
X241033333Y-120750000D03*
X241116666Y-134400000D03*
X241116666Y-136450000D03*
X241483333Y-121400000D03*
X241533333Y-135400000D03*
X241594444Y-110500000D03*
X241683333Y-120700000D03*
X241766666Y-137550000D03*
X241933333Y-134400000D03*
X241933333Y-136450000D03*
X242133333Y-112350000D03*
X242350000Y-135400000D03*
X242583333Y-137550000D03*
X242627777Y-110500000D03*
X242866666Y-134400000D03*
X242866666Y-136450000D03*
X243166666Y-112350000D03*
X243283333Y-135400000D03*
X243400000Y-126150000D03*
X243400000Y-141000000D03*
X243433333Y-110500000D03*
X243450000Y-124150000D03*
X243516666Y-137550000D03*
X243800000Y-122400000D03*
X243972222Y-112350000D03*
X244100000Y-123300000D03*
X244100000Y-125000000D03*
X244333333Y-126150000D03*
X244333333Y-141000000D03*
X244350000Y-127050000D03*
X244383333Y-124150000D03*
X244577777Y-110500000D03*
X244683333Y-113450000D03*
X244683333Y-114383333D03*
X244733333Y-115150000D03*
X244733333Y-116083333D03*
X244733333Y-122400000D03*
X245033333Y-123300000D03*
X245033333Y-125000000D03*
X245283333Y-115816667D03*
X245283333Y-116750000D03*
X245283333Y-118266667D03*
X245283333Y-119200000D03*
X245283333Y-120416667D03*
X245283333Y-121350000D03*
X245283333Y-127050000D03*
X245633333Y-141350000D03*
X245633333Y-142283333D03*
X245694444Y-110500000D03*
X246727777Y-110500000D03*
X247083333Y-111500000D03*
X247183333Y-112866667D03*
X247183333Y-113800000D03*
X247183333Y-114616667D03*
X247183333Y-115550000D03*
X247183333Y-116666667D03*
X247183333Y-117600000D03*
X247183333Y-118416667D03*
X247183333Y-119350000D03*
X247183333Y-120366667D03*
X247183333Y-121300000D03*
X247183333Y-122116667D03*
X247183333Y-123050000D03*
X247183333Y-124016667D03*
X247183333Y-124950000D03*
X247183333Y-125766667D03*
X247183333Y-126700000D03*
X247183333Y-127800000D03*
X247183333Y-128616667D03*
X247183333Y-129550000D03*
D11*
X225383333Y-126050000D03*
X225583333Y-118500000D03*
X226733333Y-127350000D03*
X233733333Y-133400000D03*
X238883333Y-145600000D03*
X240133333Y-121350000D03*
D12*
%TO.C,J1*%
X221243333Y-144450000D03*
%TO.C,J3*%
X221383333Y-111400000D03*
%TO.C,J1*%
X224843333Y-144450000D03*
%TO.C,J3*%
X224983333Y-111400000D03*
%TO.C,J2*%
X228733333Y-111400000D03*
X232333333Y-111400000D03*
D13*
%TO.C,RV1*%
X230083333Y-138270000D03*
X230083333Y-140810000D03*
X230083333Y-143350000D03*
M02*
