%TF.GenerationSoftware,KiCad,Pcbnew,9.0.2*%
%TF.CreationDate,2025-05-22T13:04:18+05:30*%
%TF.ProjectId,GaN_pwr_delivery_module,47614e5f-7077-4725-9f64-656c69766572,rev?*%
%TF.SameCoordinates,Original*%
%TF.FileFunction,Copper,L1,Top*%
%TF.FilePolarity,Positive*%
%FSLAX46Y46*%
G04 Gerber Fmt 4.6, Leading zero omitted, Abs format (unit mm)*
G04 Created by KiCad (PCBNEW 9.0.2) date 2025-05-22 13:04:18*
%MOMM*%
%LPD*%
G01*
G04 APERTURE LIST*
G04 Aperture macros list*
%AMRoundRect*
0 Rectangle with rounded corners*
0 $1 Rounding radius*
0 $2 $3 $4 $5 $6 $7 $8 $9 X,Y pos of 4 corners*
0 Add a 4 corners polygon primitive as box body*
4,1,4,$2,$3,$4,$5,$6,$7,$8,$9,$2,$3,0*
0 Add four circle primitives for the rounded corners*
1,1,$1+$1,$2,$3*
1,1,$1+$1,$4,$5*
1,1,$1+$1,$6,$7*
1,1,$1+$1,$8,$9*
0 Add four rect primitives between the rounded corners*
20,1,$1+$1,$2,$3,$4,$5,0*
20,1,$1+$1,$4,$5,$6,$7,0*
20,1,$1+$1,$6,$7,$8,$9,0*
20,1,$1+$1,$8,$9,$2,$3,0*%
%AMFreePoly0*
4,1,23,0.500000,-0.750000,0.000000,-0.750000,0.000000,-0.745722,-0.065263,-0.745722,-0.191342,-0.711940,-0.304381,-0.646677,-0.396677,-0.554381,-0.461940,-0.441342,-0.495722,-0.315263,-0.495722,-0.250000,-0.500000,-0.250000,-0.500000,0.250000,-0.495722,0.250000,-0.495722,0.315263,-0.461940,0.441342,-0.396677,0.554381,-0.304381,0.646677,-0.191342,0.711940,-0.065263,0.745722,0.000000,0.745722,
0.000000,0.750000,0.500000,0.750000,0.500000,-0.750000,0.500000,-0.750000,$1*%
%AMFreePoly1*
4,1,23,0.000000,0.745722,0.065263,0.745722,0.191342,0.711940,0.304381,0.646677,0.396677,0.554381,0.461940,0.441342,0.495722,0.315263,0.495722,0.250000,0.500000,0.250000,0.500000,-0.250000,0.495722,-0.250000,0.495722,-0.315263,0.461940,-0.441342,0.396677,-0.554381,0.304381,-0.646677,0.191342,-0.711940,0.065263,-0.745722,0.000000,-0.745722,0.000000,-0.750000,-0.500000,-0.750000,
-0.500000,0.750000,0.000000,0.750000,0.000000,0.745722,0.000000,0.745722,$1*%
%AMFreePoly2*
4,1,45,2.061036,2.303536,2.062500,2.300000,2.062500,2.160000,2.607500,2.160000,2.611036,2.158536,2.612500,2.155000,2.612500,1.655000,2.611036,1.651464,2.607500,1.650000,2.062500,1.650000,2.062500,0.890000,2.607500,0.890000,2.611036,0.888536,2.612500,0.885000,2.612500,0.385000,2.611036,0.381464,2.607500,0.380000,2.062500,0.380000,2.062500,-0.380000,2.607500,-0.380000,
2.611036,-0.381464,2.612500,-0.385000,2.612500,-0.885000,2.611036,-0.888536,2.607500,-0.890000,2.062500,-0.890000,2.062500,-1.650000,2.607500,-1.650000,2.611036,-1.651464,2.612500,-1.655000,2.612500,-2.155000,2.611036,-2.158536,2.607500,-2.160000,2.062500,-2.160000,2.062500,-2.300000,2.061036,-2.303536,2.057500,-2.305000,-2.062500,-2.305000,-2.066036,-2.303536,-2.067500,-2.300000,
-2.067500,2.300000,-2.066036,2.303536,-2.062500,2.305000,2.057500,2.305000,2.061036,2.303536,2.061036,2.303536,$1*%
G04 Aperture macros list end*
%TA.AperFunction,Conductor*%
%ADD10C,0.200000*%
%TD*%
%TA.AperFunction,SMDPad,CuDef*%
%ADD11RoundRect,0.075000X0.225000X-0.910000X0.225000X0.910000X-0.225000X0.910000X-0.225000X-0.910000X0*%
%TD*%
%TA.AperFunction,SMDPad,CuDef*%
%ADD12RoundRect,0.250000X0.475000X-0.337500X0.475000X0.337500X-0.475000X0.337500X-0.475000X-0.337500X0*%
%TD*%
%TA.AperFunction,SMDPad,CuDef*%
%ADD13RoundRect,0.112500X-0.112500X-0.237500X0.112500X-0.237500X0.112500X0.237500X-0.112500X0.237500X0*%
%TD*%
%TA.AperFunction,SMDPad,CuDef*%
%ADD14R,2.200000X1.600000*%
%TD*%
%TA.AperFunction,SMDPad,CuDef*%
%ADD15RoundRect,0.250000X-0.262500X-0.450000X0.262500X-0.450000X0.262500X0.450000X-0.262500X0.450000X0*%
%TD*%
%TA.AperFunction,ComponentPad*%
%ADD16C,1.440000*%
%TD*%
%TA.AperFunction,SMDPad,CuDef*%
%ADD17C,1.500000*%
%TD*%
%TA.AperFunction,SMDPad,CuDef*%
%ADD18FreePoly0,270.000000*%
%TD*%
%TA.AperFunction,SMDPad,CuDef*%
%ADD19FreePoly1,270.000000*%
%TD*%
%TA.AperFunction,SMDPad,CuDef*%
%ADD20RoundRect,0.150000X0.150000X-0.835000X0.150000X0.835000X-0.150000X0.835000X-0.150000X-0.835000X0*%
%TD*%
%TA.AperFunction,SMDPad,CuDef*%
%ADD21RoundRect,0.250000X0.262500X0.450000X-0.262500X0.450000X-0.262500X-0.450000X0.262500X-0.450000X0*%
%TD*%
%TA.AperFunction,SMDPad,CuDef*%
%ADD22RoundRect,0.250000X-0.450000X0.262500X-0.450000X-0.262500X0.450000X-0.262500X0.450000X0.262500X0*%
%TD*%
%TA.AperFunction,ComponentPad*%
%ADD23RoundRect,0.250000X-0.550000X-0.550000X0.550000X-0.550000X0.550000X0.550000X-0.550000X0.550000X0*%
%TD*%
%TA.AperFunction,ComponentPad*%
%ADD24C,1.600000*%
%TD*%
%TA.AperFunction,SMDPad,CuDef*%
%ADD25RoundRect,0.250000X0.337500X0.475000X-0.337500X0.475000X-0.337500X-0.475000X0.337500X-0.475000X0*%
%TD*%
%TA.AperFunction,SMDPad,CuDef*%
%ADD26R,1.600000X2.200000*%
%TD*%
%TA.AperFunction,SMDPad,CuDef*%
%ADD27RoundRect,0.250000X-0.250000X-0.475000X0.250000X-0.475000X0.250000X0.475000X-0.250000X0.475000X0*%
%TD*%
%TA.AperFunction,SMDPad,CuDef*%
%ADD28RoundRect,0.250000X0.475000X-0.250000X0.475000X0.250000X-0.475000X0.250000X-0.475000X-0.250000X0*%
%TD*%
%TA.AperFunction,SMDPad,CuDef*%
%ADD29RoundRect,0.250000X-0.337500X-0.475000X0.337500X-0.475000X0.337500X0.475000X-0.337500X0.475000X0*%
%TD*%
%TA.AperFunction,SMDPad,CuDef*%
%ADD30R,0.630000X0.450000*%
%TD*%
%TA.AperFunction,SMDPad,CuDef*%
%ADD31R,1.700000X2.600000*%
%TD*%
%TA.AperFunction,SMDPad,CuDef*%
%ADD32R,0.500000X0.650000*%
%TD*%
%TA.AperFunction,SMDPad,CuDef*%
%ADD33FreePoly2,270.000000*%
%TD*%
%TA.AperFunction,SMDPad,CuDef*%
%ADD34RoundRect,0.250000X0.450000X-0.262500X0.450000X0.262500X-0.450000X0.262500X-0.450000X-0.262500X0*%
%TD*%
%TA.AperFunction,SMDPad,CuDef*%
%ADD35RoundRect,0.250000X-0.475000X0.337500X-0.475000X-0.337500X0.475000X-0.337500X0.475000X0.337500X0*%
%TD*%
%TA.AperFunction,ComponentPad*%
%ADD36RoundRect,0.250000X0.550000X0.550000X-0.550000X0.550000X-0.550000X-0.550000X0.550000X-0.550000X0*%
%TD*%
%TA.AperFunction,SMDPad,CuDef*%
%ADD37RoundRect,0.250000X-0.400000X-0.600000X0.400000X-0.600000X0.400000X0.600000X-0.400000X0.600000X0*%
%TD*%
%TA.AperFunction,SMDPad,CuDef*%
%ADD38R,0.533400X1.600000*%
%TD*%
%TA.AperFunction,ViaPad*%
%ADD39C,0.200000*%
%TD*%
%TA.AperFunction,ViaPad*%
%ADD40C,0.600000*%
%TD*%
%TA.AperFunction,Conductor*%
%ADD41C,0.500000*%
%TD*%
%TA.AperFunction,Conductor*%
%ADD42C,0.700000*%
%TD*%
G04 APERTURE END LIST*
%TO.N,GND*%
D10*
X235357933Y-136050000D02*
X235483333Y-136050000D01*
X235483333Y-140550000D01*
X235357933Y-140550000D01*
X235357933Y-136050000D01*
%TA.AperFunction,Conductor*%
G36*
X235357933Y-136050000D02*
G01*
X235483333Y-136050000D01*
X235483333Y-140550000D01*
X235357933Y-140550000D01*
X235357933Y-136050000D01*
G37*
%TD.AperFunction*%
X239408333Y-136050000D02*
X239558333Y-136050000D01*
X239558333Y-140550000D01*
X239408333Y-140550000D01*
X239408333Y-136050000D01*
%TA.AperFunction,Conductor*%
G36*
X239408333Y-136050000D02*
G01*
X239558333Y-136050000D01*
X239558333Y-140550000D01*
X239408333Y-140550000D01*
X239408333Y-136050000D01*
G37*
%TD.AperFunction*%
X235358333Y-140550000D02*
X239558333Y-140550000D01*
X239558333Y-140575400D01*
X235358333Y-140575400D01*
X235358333Y-140550000D01*
%TA.AperFunction,Conductor*%
G36*
X235358333Y-140550000D02*
G01*
X239558333Y-140550000D01*
X239558333Y-140575400D01*
X235358333Y-140575400D01*
X235358333Y-140550000D01*
G37*
%TD.AperFunction*%
X237383333Y-136000000D02*
X237533333Y-136000000D01*
X237533333Y-140500000D01*
X237383333Y-140500000D01*
X237383333Y-136000000D01*
%TA.AperFunction,Conductor*%
G36*
X237383333Y-136000000D02*
G01*
X237533333Y-136000000D01*
X237533333Y-140500000D01*
X237383333Y-140500000D01*
X237383333Y-136000000D01*
G37*
%TD.AperFunction*%
%TD*%
D11*
%TO.P,U2,1,FC*%
%TO.N,Net-(JP1-B)*%
X234953333Y-134270000D03*
%TO.P,U2,2,CAP+*%
%TO.N,Net-(U2-CAP+)*%
X236223333Y-134270000D03*
%TO.P,U2,3,GND*%
%TO.N,GND*%
X237493333Y-134270000D03*
%TO.P,U2,4,CAP-*%
%TO.N,Net-(U2-CAP-)*%
X238763333Y-134270000D03*
%TO.P,U2,5,OUT*%
%TO.N,negGateV*%
X238763333Y-129330000D03*
%TO.P,U2,6,LV*%
%TO.N,GND*%
X237493333Y-129330000D03*
%TO.P,U2,7,OSC*%
%TO.N,unconnected-(U2-OSC-Pad7)*%
X236223333Y-129330000D03*
%TO.P,U2,8,V+*%
%TO.N,posGateV*%
X234953333Y-129330000D03*
%TD*%
D12*
%TO.P,C1,1*%
%TO.N,+28V*%
X234083333Y-144387500D03*
%TO.P,C1,2*%
%TO.N,GND*%
X234083333Y-142312500D03*
%TD*%
D13*
%TO.P,D32,1,A*%
%TO.N,Net-(D32-A)*%
X238890833Y-125025000D03*
%TO.P,D32,2,K*%
%TO.N,GND*%
X240190833Y-125025000D03*
%TO.P,D32,3,COM*%
%TO.N,unconnected-(D32-COM-Pad3)*%
X239540833Y-123025000D03*
%TD*%
D14*
%TO.P,C13,1*%
%TO.N,negGateV*%
X244233333Y-132200000D03*
%TO.P,C13,2*%
%TO.N,GND*%
X241233333Y-132200000D03*
%TD*%
D15*
%TO.P,R8,1*%
%TO.N,+28V*%
X223920833Y-124600000D03*
%TO.P,R8,2*%
%TO.N,Net-(U3-SENSE)*%
X225745833Y-124600000D03*
%TD*%
D16*
%TO.P,RV1,1,1*%
%TO.N,Net-(R3-Pad2)*%
X230083333Y-143350000D03*
%TO.P,RV1,2,2*%
%TO.N,GND*%
X230083333Y-140810000D03*
%TO.P,RV1,3,3*%
X230083333Y-138270000D03*
%TD*%
D17*
%TO.P,TP5,1,1*%
%TO.N,Net-(U3-PWRGD)*%
X218133333Y-118700000D03*
%TD*%
D18*
%TO.P,JP1,1,A*%
%TO.N,posGateV*%
X232383333Y-133450000D03*
D19*
%TO.P,JP1,2,B*%
%TO.N,Net-(JP1-B)*%
X232383333Y-134750000D03*
%TD*%
D20*
%TO.P,U4,1*%
%TO.N,isGateOn*%
X235460833Y-119025000D03*
%TO.P,U4,2,-*%
%TO.N,Net-(U4A--)*%
X236730833Y-119025000D03*
%TO.P,U4,3,+*%
%TO.N,Net-(D32-A)*%
X238000833Y-119025000D03*
%TO.P,U4,4,V+*%
%TO.N,+28V*%
X239270833Y-119025000D03*
%TO.P,U4,5,+*%
%TO.N,unconnected-(U4B-+-Pad5)*%
X240540833Y-119025000D03*
%TO.P,U4,6,-*%
%TO.N,unconnected-(U4B---Pad6)*%
X241810833Y-119025000D03*
%TO.P,U4,7*%
%TO.N,unconnected-(U4-Pad7)*%
X243080833Y-119025000D03*
%TO.P,U4,8*%
%TO.N,unconnected-(U4-Pad8)*%
X243080833Y-114075000D03*
%TO.P,U4,9,-*%
%TO.N,unconnected-(U4C---Pad9)*%
X241810833Y-114075000D03*
%TO.P,U4,10,+*%
%TO.N,unconnected-(U4C-+-Pad10)*%
X240540833Y-114075000D03*
%TO.P,U4,11,V-*%
%TO.N,GND*%
X239270833Y-114075000D03*
%TO.P,U4,12,+*%
%TO.N,unconnected-(U4D-+-Pad12)*%
X238000833Y-114075000D03*
%TO.P,U4,13,-*%
%TO.N,unconnected-(U4D---Pad13)*%
X236730833Y-114075000D03*
%TO.P,U4,14*%
%TO.N,unconnected-(U4-Pad14)*%
X235460833Y-114075000D03*
%TD*%
D17*
%TO.P,TP2,1,1*%
%TO.N,GND*%
X219393333Y-127950000D03*
%TD*%
D21*
%TO.P,R4,1*%
%TO.N,Net-(U4A--)*%
X237183333Y-124800000D03*
%TO.P,R4,2*%
%TO.N,negGateV*%
X235358333Y-124800000D03*
%TD*%
D17*
%TO.P,TP3,1,1*%
%TO.N,posGateV*%
X244083333Y-139350000D03*
%TD*%
D22*
%TO.P,R9,1*%
%TO.N,isGateOn*%
X242040833Y-123112500D03*
%TO.P,R9,2*%
%TO.N,Net-(D32-A)*%
X242040833Y-124937500D03*
%TD*%
D23*
%TO.P,J3,1,Pin_1*%
%TO.N,GND*%
X221383333Y-111400000D03*
D24*
%TO.P,J3,2,Pin_2*%
%TO.N,drainV*%
X224983333Y-111400000D03*
%TD*%
D25*
%TO.P,C10,1*%
%TO.N,Net-(U2-CAP-)*%
X238495833Y-139550000D03*
%TO.P,C10,2*%
%TO.N,Net-(U2-CAP+)*%
X236420833Y-139550000D03*
%TD*%
D26*
%TO.P,C7,1*%
%TO.N,posGateV*%
X229083333Y-130100000D03*
%TO.P,C7,2*%
%TO.N,GND*%
X229083333Y-133100000D03*
%TD*%
D23*
%TO.P,J2,1,Pin_1*%
%TO.N,GND*%
X228733333Y-111400000D03*
D24*
%TO.P,J2,2,Pin_2*%
%TO.N,negGateV*%
X232333333Y-111400000D03*
%TD*%
D27*
%TO.P,C6,1*%
%TO.N,+28V*%
X222233333Y-130450000D03*
%TO.P,C6,2*%
%TO.N,GND*%
X224133333Y-130450000D03*
%TD*%
D28*
%TO.P,C11,1*%
%TO.N,posGateV*%
X241395833Y-144300000D03*
%TO.P,C11,2*%
%TO.N,Net-(U1-ADJ)*%
X241395833Y-142400000D03*
%TD*%
D29*
%TO.P,C14,1*%
%TO.N,Net-(U3-TIMER)*%
X219795833Y-124600000D03*
%TO.P,C14,2*%
%TO.N,GND*%
X221870833Y-124600000D03*
%TD*%
D17*
%TO.P,TP1,1,1*%
%TO.N,+28V*%
X219543333Y-132950000D03*
%TD*%
D30*
%TO.P,U1,1,GND*%
%TO.N,GND*%
X236055833Y-142400000D03*
%TO.P,U1,2,EN*%
%TO.N,+28V*%
X236055833Y-143350000D03*
%TO.P,U1,3,Vin*%
X236055833Y-144300000D03*
%TO.P,U1,4,Vout*%
%TO.N,posGateV*%
X238735833Y-144300000D03*
%TO.P,U1,5,Vsense*%
X238735833Y-143350000D03*
%TO.P,U1,6,ADJ*%
%TO.N,Net-(U1-ADJ)*%
X238735833Y-142400000D03*
D31*
%TO.P,U1,7,GND*%
%TO.N,GND*%
X237395833Y-143350000D03*
%TD*%
D27*
%TO.P,C4,1*%
%TO.N,+28V*%
X222233333Y-132950000D03*
%TO.P,C4,2*%
%TO.N,GND*%
X224133333Y-132950000D03*
%TD*%
D32*
%TO.P,Q1,1*%
%TO.N,drainV*%
X232488333Y-119095000D03*
%TO.P,Q1,2*%
X231218333Y-119095000D03*
%TO.P,Q1,3*%
X229948333Y-119095000D03*
%TO.P,Q1,4*%
%TO.N,Net-(D1-K)*%
X228678333Y-119095000D03*
D33*
%TO.P,Q1,5_8*%
%TO.N,Net-(U3-SENSE)*%
X230583333Y-122312500D03*
%TD*%
D34*
%TO.P,R2,1*%
%TO.N,posGateV*%
X243895833Y-144262500D03*
%TO.P,R2,2*%
%TO.N,Net-(U1-ADJ)*%
X243895833Y-142437500D03*
%TD*%
D25*
%TO.P,C12,1*%
%TO.N,negGateV*%
X243770833Y-129200000D03*
%TO.P,C12,2*%
%TO.N,GND*%
X241695833Y-129200000D03*
%TD*%
D27*
%TO.P,C8,1*%
%TO.N,+28V*%
X222233333Y-127950000D03*
%TO.P,C8,2*%
%TO.N,GND*%
X224133333Y-127950000D03*
%TD*%
D15*
%TO.P,R1,1*%
%TO.N,+28V*%
X222270833Y-135450000D03*
%TO.P,R1,2*%
%TO.N,GND*%
X224095833Y-135450000D03*
%TD*%
D25*
%TO.P,C9,1*%
%TO.N,Net-(U2-CAP-)*%
X238495833Y-137050000D03*
%TO.P,C9,2*%
%TO.N,Net-(U2-CAP+)*%
X236420833Y-137050000D03*
%TD*%
D14*
%TO.P,C2,1*%
%TO.N,+28V*%
X221683333Y-138950000D03*
%TO.P,C2,2*%
%TO.N,GND*%
X224683333Y-138950000D03*
%TD*%
D21*
%TO.P,R6,1*%
%TO.N,Net-(U3-FB)*%
X222133333Y-114600000D03*
%TO.P,R6,2*%
%TO.N,GND*%
X220308333Y-114600000D03*
%TD*%
D17*
%TO.P,TP4,1,1*%
%TO.N,isGateOn*%
X226733333Y-127350000D03*
%TD*%
D35*
%TO.P,C5,1*%
%TO.N,posGateV*%
X232133333Y-129550000D03*
%TO.P,C5,2*%
%TO.N,GND*%
X232133333Y-131625000D03*
%TD*%
D36*
%TO.P,J1,1,Pin_1*%
%TO.N,GND*%
X224843333Y-144450000D03*
D24*
%TO.P,J1,2,Pin_2*%
%TO.N,+28V*%
X221243333Y-144450000D03*
%TD*%
D21*
%TO.P,R7,1*%
%TO.N,drainV*%
X225845833Y-114600000D03*
%TO.P,R7,2*%
%TO.N,Net-(U3-FB)*%
X224020833Y-114600000D03*
%TD*%
D15*
%TO.P,R5,1*%
%TO.N,isGateOn*%
X235358333Y-122550000D03*
%TO.P,R5,2*%
%TO.N,Net-(U4A--)*%
X237183333Y-122550000D03*
%TD*%
D34*
%TO.P,R3,1*%
%TO.N,Net-(U1-ADJ)*%
X241395833Y-140762500D03*
%TO.P,R3,2*%
%TO.N,Net-(R3-Pad2)*%
X241395833Y-138937500D03*
%TD*%
D37*
%TO.P,D1,1,K*%
%TO.N,Net-(D1-K)*%
X228583333Y-116350000D03*
%TO.P,D1,2,A*%
%TO.N,drainV*%
X232083333Y-116350000D03*
%TD*%
D38*
%TO.P,U3,1,UV*%
%TO.N,isGateOn*%
X223738333Y-117009200D03*
%TO.P,U3,2,FB*%
%TO.N,Net-(U3-FB)*%
X222468333Y-117009200D03*
%TO.P,U3,3,PWRGD*%
%TO.N,Net-(U3-PWRGD)*%
X221198333Y-117009200D03*
%TO.P,U3,4,GND*%
%TO.N,GND*%
X219928333Y-117009200D03*
%TO.P,U3,5,TIMER*%
%TO.N,Net-(U3-TIMER)*%
X219928333Y-122190800D03*
%TO.P,U3,6,GATE*%
%TO.N,Net-(D1-K)*%
X221198333Y-122190800D03*
%TO.P,U3,7,SENSE*%
%TO.N,Net-(U3-SENSE)*%
X222468333Y-122190800D03*
%TO.P,U3,8,VCC*%
%TO.N,+28V*%
X223738333Y-122190800D03*
%TD*%
D39*
%TO.N,GND*%
X241933333Y-134400000D03*
X235433333Y-139150000D03*
X232483333Y-113700000D03*
X235433333Y-140083333D03*
X238738888Y-110500000D03*
X219083333Y-116594444D03*
X239483333Y-138700000D03*
X244100000Y-123300000D03*
X224695658Y-117898795D03*
X234533333Y-121200000D03*
X245033333Y-123300000D03*
X233300000Y-119700000D03*
X237458333Y-139166667D03*
X228372222Y-112950000D03*
X219083333Y-117400000D03*
X237127777Y-110500000D03*
X247183333Y-118416667D03*
X241033333Y-120750000D03*
X220233333Y-120500000D03*
X231338889Y-112950000D03*
X244683333Y-114383333D03*
X232950000Y-112950000D03*
X245633333Y-141350000D03*
X235433333Y-140550000D03*
X242350000Y-135400000D03*
X235433333Y-138700000D03*
X225883333Y-133666667D03*
X245283333Y-116750000D03*
X247083333Y-111500000D03*
X237150000Y-142966667D03*
X234183333Y-116450000D03*
X234633333Y-117200000D03*
X240833333Y-137550000D03*
X236683333Y-143733333D03*
X240477777Y-110500000D03*
X237083333Y-132300000D03*
X237458333Y-137316667D03*
X238683333Y-140550000D03*
X225883333Y-129200000D03*
X244100000Y-125000000D03*
X227183333Y-110988889D03*
X243516666Y-137550000D03*
X237616666Y-142966667D03*
X221033333Y-119950000D03*
X245283333Y-127050000D03*
X239483333Y-136850000D03*
X237616666Y-142200000D03*
X222600000Y-112950000D03*
X227938888Y-136650000D03*
X239483333Y-136383333D03*
X238083333Y-143733333D03*
X240183333Y-136450000D03*
X245283333Y-119200000D03*
X247183333Y-113800000D03*
X240383333Y-123850000D03*
X236383333Y-140550000D03*
X233050000Y-114700000D03*
X230783333Y-133100000D03*
X229227777Y-135300000D03*
X230533333Y-112950000D03*
X230783333Y-132166667D03*
X243433333Y-110500000D03*
X237150000Y-142583333D03*
X225883333Y-136516667D03*
X238233333Y-140550000D03*
X237458333Y-138700000D03*
X238472222Y-112350000D03*
X247183333Y-122116667D03*
X243972222Y-112350000D03*
X237150000Y-144500000D03*
X231827777Y-136650000D03*
X233550000Y-115650000D03*
X234733333Y-120400000D03*
X237616666Y-143733333D03*
X247183333Y-125766667D03*
X233783333Y-110533333D03*
X244683333Y-113450000D03*
X244733333Y-116083333D03*
X225883333Y-137450000D03*
X219833333Y-110988889D03*
X241116666Y-136450000D03*
X226633333Y-122050000D03*
X245283333Y-118266667D03*
X236683333Y-142200000D03*
X229677777Y-136650000D03*
X233600000Y-121200000D03*
X236633333Y-112350000D03*
X235433333Y-137300000D03*
X221794444Y-112950000D03*
X244383333Y-124150000D03*
X241766666Y-137550000D03*
X239083333Y-132200000D03*
X233333333Y-117800000D03*
X242866666Y-136450000D03*
X233583333Y-116950000D03*
X227183333Y-110183333D03*
X240983333Y-121500000D03*
X237983333Y-131350000D03*
X233400000Y-113800000D03*
X240083333Y-112350000D03*
X238083333Y-144116667D03*
X238083333Y-142200000D03*
X238083333Y-142966667D03*
X219833333Y-110183333D03*
X225433333Y-128050000D03*
X245033333Y-125000000D03*
X233783333Y-112950000D03*
X245283333Y-115816667D03*
X235033333Y-116200000D03*
X244733333Y-122400000D03*
X247183333Y-114616667D03*
X240833333Y-122150000D03*
X227183333Y-111794444D03*
X232144444Y-112950000D03*
X235433333Y-136850000D03*
X219833333Y-112600000D03*
X236094444Y-110500000D03*
X247183333Y-120366667D03*
X235233333Y-142125000D03*
X241016666Y-112350000D03*
X239483333Y-137766667D03*
X219283333Y-114133333D03*
X234233333Y-119700000D03*
X247183333Y-121300000D03*
X226683333Y-120850000D03*
X235433333Y-138233333D03*
X236833333Y-140550000D03*
X247183333Y-124950000D03*
X227533333Y-122900000D03*
X233600000Y-118850000D03*
X237150000Y-143733333D03*
X225883333Y-135700000D03*
X234977777Y-110500000D03*
X244333333Y-126150000D03*
X247183333Y-129550000D03*
X237458333Y-135933333D03*
X237458333Y-139633333D03*
X239277777Y-112350000D03*
X234333333Y-113800000D03*
X237458333Y-136400000D03*
X229983333Y-112950000D03*
X237458333Y-138250000D03*
X239150000Y-140550000D03*
X228744444Y-136650000D03*
X246727777Y-110500000D03*
X242627777Y-110500000D03*
X242583333Y-137550000D03*
X235233333Y-142700000D03*
X225691256Y-116190136D03*
X244350000Y-127050000D03*
X238083333Y-144500000D03*
X239544444Y-110500000D03*
X237458333Y-140100000D03*
X237666666Y-112350000D03*
X238083333Y-142583333D03*
X225883333Y-131916667D03*
X234533333Y-118850000D03*
X235916666Y-140550000D03*
X237616666Y-144500000D03*
X237150000Y-144116667D03*
X244333333Y-141000000D03*
X233783333Y-112144444D03*
X247183333Y-128616667D03*
X240583333Y-122944444D03*
X241594444Y-110500000D03*
X239283333Y-115650000D03*
X227408396Y-117574039D03*
X235433333Y-136383333D03*
X242866666Y-134400000D03*
X227203149Y-116259180D03*
X247183333Y-126700000D03*
X239483333Y-139616667D03*
X224088889Y-112950000D03*
X241683333Y-120700000D03*
X224862060Y-116002623D03*
X241483333Y-121400000D03*
X243400000Y-126150000D03*
X247183333Y-112866667D03*
X231500000Y-144250000D03*
X220988889Y-112950000D03*
X227583333Y-120200000D03*
X224894444Y-112950000D03*
X237616666Y-142583333D03*
X243800000Y-122400000D03*
X226783333Y-123400000D03*
X239483333Y-140550000D03*
X243283333Y-135400000D03*
X247183333Y-117600000D03*
X234233333Y-117800000D03*
X244733333Y-115150000D03*
X230033333Y-135300000D03*
X225883333Y-134600000D03*
X236683333Y-142583333D03*
X237458333Y-137783333D03*
X226471960Y-115899999D03*
X245283333Y-121350000D03*
X226728518Y-116727398D03*
X235983333Y-131500000D03*
X219283333Y-114938889D03*
X237533333Y-127700000D03*
X247183333Y-127800000D03*
X239483333Y-138233333D03*
X232633333Y-136650000D03*
X247183333Y-116666667D03*
X225883333Y-130950000D03*
X241533333Y-135400000D03*
X247183333Y-119350000D03*
X243166666Y-112350000D03*
X227235219Y-115585716D03*
X235516666Y-112350000D03*
X226728518Y-117535555D03*
X229177777Y-112950000D03*
X225883333Y-130016667D03*
X241933333Y-136450000D03*
X237766666Y-140550000D03*
X237616666Y-144116667D03*
X244577777Y-110500000D03*
X223283333Y-112950000D03*
X236683333Y-142966667D03*
X237150000Y-142200000D03*
X237300000Y-140550000D03*
X243400000Y-141000000D03*
X233983333Y-114700000D03*
X247183333Y-123050000D03*
X239483333Y-139150000D03*
X236683333Y-143350000D03*
X220183333Y-112950000D03*
X235433333Y-137766667D03*
X239483333Y-140083333D03*
X237616666Y-143350000D03*
X230794444Y-136650000D03*
X235433333Y-139616667D03*
X245694444Y-110500000D03*
X225883333Y-132850000D03*
X238083333Y-143350000D03*
X219300000Y-120500000D03*
X245283333Y-120416667D03*
X240600000Y-135400000D03*
X233800000Y-120400000D03*
X240183333Y-134400000D03*
X236683333Y-144116667D03*
X243450000Y-124150000D03*
X236683333Y-144500000D03*
X219833333Y-111794444D03*
X227483333Y-121600000D03*
X242133333Y-112350000D03*
X227566666Y-112950000D03*
X247183333Y-115550000D03*
X227183333Y-112600000D03*
X241116666Y-134400000D03*
X239483333Y-137300000D03*
X234483333Y-115650000D03*
X227077777Y-135300000D03*
X237458333Y-136850000D03*
X237933333Y-110500000D03*
X237150000Y-143350000D03*
X247183333Y-124016667D03*
X235233333Y-141550000D03*
X228194444Y-135300000D03*
X245633333Y-142283333D03*
X223109276Y-118275080D03*
D40*
%TO.N,posGateV*%
X233733333Y-133400000D03*
X238883333Y-145600000D03*
%TO.N,+28V*%
X240133333Y-121350000D03*
X225383333Y-126050000D03*
%TO.N,isGateOn*%
X226733333Y-127350000D03*
X225583333Y-118500000D03*
%TD*%
D10*
%TO.N,GND*%
X219928333Y-117009200D02*
X219928333Y-116005000D01*
X220308333Y-115625000D02*
X220308333Y-114600000D01*
X219928333Y-116005000D02*
X220308333Y-115625000D01*
%TO.N,posGateV*%
X241395833Y-144300000D02*
X239745833Y-144300000D01*
X233383333Y-129550000D02*
X233583333Y-129350000D01*
X233583333Y-129350000D02*
X233583333Y-128050000D01*
X241395833Y-144300000D02*
X241845833Y-144300000D01*
X241883333Y-144262500D02*
X243895833Y-144262500D01*
X234953333Y-130430000D02*
X234953333Y-129330000D01*
X239695833Y-143350000D02*
X239895833Y-143550000D01*
X243895833Y-144262500D02*
X245620833Y-144262500D01*
X233733333Y-131650000D02*
X234953333Y-130430000D01*
X232383333Y-133450000D02*
X233683333Y-133450000D01*
X241845833Y-144300000D02*
X241883333Y-144262500D01*
X233583333Y-128050000D02*
X233883333Y-127750000D01*
X241033333Y-145600000D02*
X241395833Y-145237500D01*
X233733333Y-133400000D02*
X233733333Y-131650000D01*
X239745833Y-144300000D02*
X238830833Y-144300000D01*
X238883333Y-145600000D02*
X241033333Y-145600000D01*
X233883333Y-127750000D02*
X234808333Y-127750000D01*
X246483333Y-140250000D02*
X245583333Y-139350000D01*
X230783333Y-129550000D02*
X232133333Y-129550000D01*
X238830833Y-143350000D02*
X239695833Y-143350000D01*
X232133333Y-129550000D02*
X233383333Y-129550000D01*
X230233333Y-130100000D02*
X230783333Y-129550000D01*
X233683333Y-133450000D02*
X233733333Y-133400000D01*
X234953333Y-127895000D02*
X234953333Y-129330000D01*
X239895833Y-143550000D02*
X239895833Y-144300000D01*
X246483333Y-143400000D02*
X246483333Y-140250000D01*
X234808333Y-127750000D02*
X234953333Y-127895000D01*
X245583333Y-139350000D02*
X244083333Y-139350000D01*
X229083333Y-130100000D02*
X230233333Y-130100000D01*
X241395833Y-144300000D02*
X241395833Y-145237500D01*
X245620833Y-144262500D02*
X246483333Y-143400000D01*
%TO.N,negGateV*%
X238763333Y-127630000D02*
X238033333Y-126900000D01*
X243770833Y-127937500D02*
X243383333Y-127550000D01*
X238763333Y-127700000D02*
X238763333Y-129330000D01*
X235358333Y-126175000D02*
X235358333Y-124800000D01*
X238763333Y-129330000D02*
X238763333Y-127630000D01*
X243770833Y-130450000D02*
X244233333Y-130912500D01*
X244833333Y-111400000D02*
X246133333Y-112700000D01*
X245333333Y-129200000D02*
X243770833Y-129200000D01*
X243383333Y-127550000D02*
X238913333Y-127550000D01*
X232333333Y-111400000D02*
X244833333Y-111400000D01*
X238033333Y-126900000D02*
X236083333Y-126900000D01*
X244233333Y-130912500D02*
X244233333Y-132200000D01*
X243770833Y-129200000D02*
X243770833Y-127937500D01*
X236083333Y-126900000D02*
X235358333Y-126175000D01*
X246133333Y-128400000D02*
X245333333Y-129200000D01*
X243770833Y-129200000D02*
X243770833Y-130450000D01*
X246133333Y-112700000D02*
X246133333Y-128400000D01*
X238913333Y-127550000D02*
X238763333Y-127700000D01*
%TO.N,+28V*%
X225383333Y-126050000D02*
X224008333Y-126050000D01*
D41*
X221683333Y-138950000D02*
X221683333Y-140850000D01*
D10*
X235145833Y-143537500D02*
X235145833Y-144387500D01*
D41*
X223533333Y-126350000D02*
X223920833Y-125962500D01*
D10*
X235333333Y-143350000D02*
X235145833Y-143537500D01*
X240133333Y-121300000D02*
X240133333Y-121350000D01*
D41*
X221243333Y-141750000D02*
X221683333Y-141310000D01*
D10*
X228133333Y-145150000D02*
X232133333Y-145150000D01*
X239270833Y-120437500D02*
X239683333Y-120850000D01*
D41*
X222270833Y-132987500D02*
X222233333Y-132950000D01*
D10*
X239683333Y-120850000D02*
X240133333Y-121300000D01*
D41*
X221683333Y-138950000D02*
X221683333Y-137650000D01*
D10*
X222233333Y-132950000D02*
X219543333Y-132950000D01*
X223920833Y-123687500D02*
X223920833Y-124600000D01*
X235233333Y-144300000D02*
X236055833Y-144300000D01*
X236055833Y-143350000D02*
X235333333Y-143350000D01*
X235145833Y-144387500D02*
X235233333Y-144300000D01*
X227633333Y-144650000D02*
X228133333Y-145150000D01*
D41*
X222233333Y-132950000D02*
X222233333Y-130450000D01*
X222233333Y-130450000D02*
X222233333Y-127950000D01*
X222233333Y-126950000D02*
X222833333Y-126350000D01*
D10*
X223738333Y-123505000D02*
X223920833Y-123687500D01*
X239270833Y-119025000D02*
X239270833Y-120437500D01*
X227033333Y-141500000D02*
X227633333Y-142100000D01*
D41*
X221683333Y-141310000D02*
X221683333Y-138950000D01*
X222833333Y-126350000D02*
X223533333Y-126350000D01*
X222270833Y-135450000D02*
X222270833Y-132987500D01*
D10*
X223738333Y-122190800D02*
X223738333Y-123505000D01*
X224008333Y-126050000D02*
X223920833Y-125962500D01*
X222333333Y-141500000D02*
X227033333Y-141500000D01*
D41*
X222233333Y-127950000D02*
X222233333Y-126950000D01*
X221683333Y-140850000D02*
X222333333Y-141500000D01*
X223920833Y-125962500D02*
X223920833Y-124600000D01*
D10*
X227633333Y-142100000D02*
X227633333Y-144650000D01*
D41*
X221243333Y-144450000D02*
X221243333Y-141750000D01*
X222270833Y-137062500D02*
X222270833Y-135450000D01*
D10*
X232133333Y-145150000D02*
X232895833Y-144387500D01*
D41*
X221683333Y-137650000D02*
X222270833Y-137062500D01*
D10*
X234083333Y-144387500D02*
X235145833Y-144387500D01*
X232895833Y-144387500D02*
X234083333Y-144387500D01*
D41*
%TO.N,drainV*%
X232488333Y-119095000D02*
X232488333Y-118005000D01*
X232083333Y-117755000D02*
X231833333Y-118005000D01*
X231218333Y-118120000D02*
X231333333Y-118005000D01*
X225845833Y-112262500D02*
X224983333Y-111400000D01*
X232333333Y-118005000D02*
X232488333Y-118005000D01*
X225845833Y-114600000D02*
X225845833Y-112262500D01*
X232083333Y-115150000D02*
X231533333Y-114600000D01*
X232083333Y-117755000D02*
X232333333Y-118005000D01*
X232083333Y-117600000D02*
X232083333Y-116350000D01*
X229948333Y-118235000D02*
X230178333Y-118005000D01*
X231218333Y-119095000D02*
X231218333Y-118120000D01*
X231333333Y-118005000D02*
X231833333Y-118005000D01*
X231833333Y-118005000D02*
X232488333Y-118005000D01*
X229948333Y-119095000D02*
X229948333Y-118235000D01*
X232083333Y-116350000D02*
X232083333Y-115150000D01*
X225845833Y-114600000D02*
X231533333Y-114600000D01*
X232083333Y-116350000D02*
X232083333Y-117755000D01*
X230178333Y-118005000D02*
X231333333Y-118005000D01*
D10*
%TO.N,Net-(D1-K)*%
X228583333Y-117850000D02*
X228583333Y-116350000D01*
X228678333Y-119095000D02*
X228678333Y-118145000D01*
X221198333Y-120985000D02*
X221198333Y-122190800D01*
X228583333Y-118050000D02*
X228583333Y-117850000D01*
X227183333Y-118350000D02*
X226833333Y-118700000D01*
X226583333Y-119850000D02*
X222333333Y-119850000D01*
X222333333Y-119850000D02*
X221198333Y-120985000D01*
X228583333Y-117850000D02*
X228083333Y-118350000D01*
X228083333Y-118350000D02*
X227183333Y-118350000D01*
X226833333Y-118700000D02*
X226833333Y-119600000D01*
X226833333Y-119600000D02*
X226583333Y-119850000D01*
X228678333Y-118145000D02*
X228583333Y-118050000D01*
%TO.N,isGateOn*%
X242040833Y-121825000D02*
X242640833Y-121225000D01*
X232683333Y-127400000D02*
X233883333Y-126200000D01*
X242040833Y-123112500D02*
X242040833Y-121825000D01*
X235460833Y-119025000D02*
X235460833Y-122447500D01*
X235460833Y-117005000D02*
X235460833Y-119025000D01*
X225792533Y-117009200D02*
X223738333Y-117009200D01*
X226783333Y-127400000D02*
X232683333Y-127400000D01*
X226733333Y-127350000D02*
X226783333Y-127400000D01*
X225933333Y-117150000D02*
X225792533Y-117009200D01*
X233883333Y-126200000D02*
X233883333Y-123200000D01*
X243765833Y-116550000D02*
X235915833Y-116550000D01*
X234533333Y-122550000D02*
X235358333Y-122550000D01*
X235915833Y-116550000D02*
X235460833Y-117005000D01*
X233883333Y-123200000D02*
X234533333Y-122550000D01*
X225933333Y-118150000D02*
X225933333Y-117150000D01*
X242640833Y-121225000D02*
X244040833Y-121225000D01*
X244040833Y-121225000D02*
X244240833Y-121025000D01*
X244240833Y-117025000D02*
X243765833Y-116550000D01*
X235460833Y-122447500D02*
X235358333Y-122550000D01*
X244240833Y-121025000D02*
X244240833Y-117025000D01*
X225583333Y-118500000D02*
X225933333Y-118150000D01*
%TO.N,Net-(R3-Pad2)*%
X232383333Y-142850000D02*
X231883333Y-143350000D01*
X240133333Y-139100000D02*
X240133333Y-140800000D01*
X241395833Y-138937500D02*
X240295833Y-138937500D01*
X240295833Y-138937500D02*
X240133333Y-139100000D01*
X232683333Y-141100000D02*
X232383333Y-141400000D01*
X232383333Y-141400000D02*
X232383333Y-142850000D01*
X239833333Y-141100000D02*
X232683333Y-141100000D01*
X240133333Y-140800000D02*
X239833333Y-141100000D01*
X231883333Y-143350000D02*
X230083333Y-143350000D01*
D42*
%TO.N,Net-(U3-SENSE)*%
X230333333Y-125600000D02*
X227833333Y-125600000D01*
D10*
X222468333Y-122190800D02*
X222468333Y-120985000D01*
D42*
X227833333Y-125600000D02*
X226833333Y-124600000D01*
X225745833Y-124600000D02*
X226833333Y-124600000D01*
X230583333Y-122312500D02*
X230583333Y-125350000D01*
D10*
X222853333Y-120600000D02*
X225333333Y-120600000D01*
X225745833Y-121012500D02*
X225745833Y-124600000D01*
D42*
X230583333Y-125350000D02*
X230333333Y-125600000D01*
D10*
X222468333Y-120985000D02*
X222853333Y-120600000D01*
X225333333Y-120600000D02*
X225745833Y-121012500D01*
%TO.N,Net-(JP1-B)*%
X232583333Y-135750000D02*
X232383333Y-135550000D01*
X234953333Y-135580000D02*
X234783333Y-135750000D01*
X234953333Y-134270000D02*
X234953333Y-135580000D01*
X234783333Y-135750000D02*
X232583333Y-135750000D01*
X232383333Y-135550000D02*
X232383333Y-134750000D01*
%TO.N,Net-(U4A--)*%
X236730833Y-120760000D02*
X236730833Y-119025000D01*
X237183333Y-121212500D02*
X236730833Y-120760000D01*
X237183333Y-122550000D02*
X237183333Y-121212500D01*
X237183333Y-124800000D02*
X237183333Y-122550000D01*
%TO.N,Net-(U3-FB)*%
X222133333Y-114600000D02*
X224020833Y-114600000D01*
X222468333Y-117009200D02*
X222468333Y-116035000D01*
X222468333Y-116035000D02*
X222133333Y-115700000D01*
X222133333Y-115700000D02*
X222133333Y-114600000D01*
%TO.N,Net-(U2-CAP-)*%
X238763333Y-135895000D02*
X238495833Y-136162500D01*
X238495833Y-137050000D02*
X238495833Y-139550000D01*
X238763333Y-134270000D02*
X238763333Y-135895000D01*
X238495833Y-136162500D02*
X238495833Y-137050000D01*
%TO.N,Net-(U2-CAP+)*%
X236223333Y-135915000D02*
X236420833Y-136112500D01*
X236223333Y-134270000D02*
X236223333Y-135915000D01*
X236420833Y-139550000D02*
X236420833Y-137050000D01*
X236420833Y-136112500D02*
X236420833Y-137050000D01*
%TO.N,Net-(U1-ADJ)*%
X238830833Y-142400000D02*
X241395833Y-142400000D01*
X243858333Y-142400000D02*
X243895833Y-142437500D01*
X241395833Y-142400000D02*
X243858333Y-142400000D01*
X241395833Y-142400000D02*
X241395833Y-140762500D01*
%TO.N,Net-(U3-TIMER)*%
X219928333Y-122190800D02*
X219928333Y-124467500D01*
X219928333Y-124467500D02*
X219795833Y-124600000D01*
%TO.N,Net-(U3-PWRGD)*%
X220233333Y-119600000D02*
X221198333Y-118635000D01*
X218133333Y-118700000D02*
X219033333Y-119600000D01*
X221198333Y-118635000D02*
X221198333Y-117009200D01*
X219033333Y-119600000D02*
X220233333Y-119600000D01*
%TO.N,Net-(D32-A)*%
X238000833Y-120585000D02*
X238000833Y-119025000D01*
X238890833Y-125975000D02*
X239140833Y-126225000D01*
X241840833Y-126225000D02*
X242040833Y-126025000D01*
X238890833Y-124175000D02*
X238440833Y-123725000D01*
X238440833Y-121025000D02*
X238000833Y-120585000D01*
X242040833Y-126025000D02*
X242040833Y-124937500D01*
X238890833Y-125025000D02*
X238890833Y-125975000D01*
X238890833Y-125025000D02*
X238890833Y-124175000D01*
X238440833Y-123725000D02*
X238440833Y-121025000D01*
X239140833Y-126225000D02*
X241840833Y-126225000D01*
%TD*%
%TA.AperFunction,Conductor*%
%TO.N,GND*%
G36*
X224870606Y-126670185D02*
G01*
X224872458Y-126671398D01*
X225004147Y-126759390D01*
X225004160Y-126759397D01*
X225149831Y-126819735D01*
X225149836Y-126819737D01*
X225304486Y-126850499D01*
X225304489Y-126850500D01*
X225410105Y-126850500D01*
X225477144Y-126870185D01*
X225522899Y-126922989D01*
X225532843Y-126992147D01*
X225528036Y-127012819D01*
X225513623Y-127057173D01*
X225482833Y-127251577D01*
X225482833Y-127448422D01*
X225513623Y-127642826D01*
X225574450Y-127830029D01*
X225652828Y-127983853D01*
X225663809Y-128005405D01*
X225779505Y-128164646D01*
X225918687Y-128303828D01*
X226077928Y-128419524D01*
X226120637Y-128441285D01*
X226253303Y-128508882D01*
X226253305Y-128508882D01*
X226253308Y-128508884D01*
X226353650Y-128541487D01*
X226440506Y-128569709D01*
X226634911Y-128600500D01*
X226634916Y-128600500D01*
X226831755Y-128600500D01*
X227026159Y-128569709D01*
X227050771Y-128561712D01*
X227213358Y-128508884D01*
X227388738Y-128419524D01*
X227547979Y-128303828D01*
X227687161Y-128164646D01*
X227769283Y-128051614D01*
X227824613Y-128008949D01*
X227869601Y-128000500D01*
X232596664Y-128000500D01*
X232596680Y-128000501D01*
X232604276Y-128000501D01*
X232762387Y-128000501D01*
X232762390Y-128000501D01*
X232826740Y-127983258D01*
X232851732Y-127983853D01*
X232876476Y-127980295D01*
X232886057Y-127984670D01*
X232896588Y-127984921D01*
X232917292Y-127998934D01*
X232940032Y-128009318D01*
X232945726Y-128018178D01*
X232954451Y-128024083D01*
X232964293Y-128047067D01*
X232977808Y-128068095D01*
X232980088Y-128083951D01*
X232981955Y-128088311D01*
X232982832Y-128103030D01*
X232982832Y-128129057D01*
X232982832Y-128129059D01*
X232982833Y-128139053D01*
X232982833Y-128374246D01*
X232963148Y-128441285D01*
X232910344Y-128487040D01*
X232841186Y-128496984D01*
X232819830Y-128491952D01*
X232761132Y-128472501D01*
X232761128Y-128472500D01*
X232658343Y-128462000D01*
X231608331Y-128462000D01*
X231608313Y-128462001D01*
X231505536Y-128472500D01*
X231505533Y-128472501D01*
X231339001Y-128527685D01*
X231338996Y-128527687D01*
X231189675Y-128619789D01*
X231065622Y-128743842D01*
X231057097Y-128757664D01*
X230981319Y-128880521D01*
X230975104Y-128890597D01*
X230923156Y-128937321D01*
X230869565Y-128949500D01*
X230704274Y-128949500D01*
X230666667Y-128959576D01*
X230666668Y-128959577D01*
X230551544Y-128990424D01*
X230547956Y-128991911D01*
X230544686Y-128992262D01*
X230543699Y-128992527D01*
X230543657Y-128992372D01*
X230478486Y-128999377D01*
X230416008Y-128968099D01*
X230380359Y-128908009D01*
X230378014Y-128895013D01*
X230377425Y-128892520D01*
X230327130Y-128757671D01*
X230327126Y-128757664D01*
X230240880Y-128642455D01*
X230240877Y-128642452D01*
X230125668Y-128556206D01*
X230125661Y-128556202D01*
X229990815Y-128505908D01*
X229990816Y-128505908D01*
X229931216Y-128499501D01*
X229931214Y-128499500D01*
X229931206Y-128499500D01*
X229931197Y-128499500D01*
X228235462Y-128499500D01*
X228235456Y-128499501D01*
X228175849Y-128505908D01*
X228041004Y-128556202D01*
X228040997Y-128556206D01*
X227925788Y-128642452D01*
X227925785Y-128642455D01*
X227839539Y-128757664D01*
X227839535Y-128757671D01*
X227789241Y-128892517D01*
X227782834Y-128952116D01*
X227782833Y-128952135D01*
X227782833Y-131247870D01*
X227782834Y-131247876D01*
X227789241Y-131307483D01*
X227839535Y-131442328D01*
X227839539Y-131442335D01*
X227925785Y-131557544D01*
X227925788Y-131557547D01*
X228040997Y-131643793D01*
X228041004Y-131643797D01*
X228175850Y-131694091D01*
X228175849Y-131694091D01*
X228182777Y-131694835D01*
X228235460Y-131700500D01*
X229931205Y-131700499D01*
X229990816Y-131694091D01*
X230125664Y-131643796D01*
X230240879Y-131557546D01*
X230327129Y-131442331D01*
X230377424Y-131307483D01*
X230383833Y-131247873D01*
X230383832Y-130776099D01*
X230387565Y-130763385D01*
X230386573Y-130750173D01*
X230397216Y-130730514D01*
X230403516Y-130709061D01*
X230414275Y-130699007D01*
X230419840Y-130688731D01*
X230439098Y-130675814D01*
X230448019Y-130667480D01*
X230459766Y-130661010D01*
X230465118Y-130659577D01*
X230520678Y-130627499D01*
X230602049Y-130580520D01*
X230713853Y-130468716D01*
X230713853Y-130468714D01*
X230724056Y-130458512D01*
X230724060Y-130458506D01*
X230863474Y-130319092D01*
X230924795Y-130285609D01*
X230994487Y-130290593D01*
X231050420Y-130332465D01*
X231056681Y-130341662D01*
X231065621Y-130356156D01*
X231189677Y-130480212D01*
X231338999Y-130572314D01*
X231505536Y-130627499D01*
X231608324Y-130638000D01*
X232658341Y-130637999D01*
X232658349Y-130637998D01*
X232658352Y-130637998D01*
X232714635Y-130632248D01*
X232761130Y-130627499D01*
X232927667Y-130572314D01*
X233076989Y-130480212D01*
X233201045Y-130356156D01*
X233291561Y-130209404D01*
X233343509Y-130162680D01*
X233397100Y-130150501D01*
X233462387Y-130150501D01*
X233462390Y-130150501D01*
X233615118Y-130109577D01*
X233665237Y-130080639D01*
X233752049Y-130030520D01*
X233863853Y-129918716D01*
X233863853Y-129918714D01*
X233941153Y-129841414D01*
X234002476Y-129807931D01*
X234072168Y-129812916D01*
X234128101Y-129854787D01*
X234152517Y-129920252D01*
X234152833Y-129929097D01*
X234152833Y-130277718D01*
X234156897Y-130308595D01*
X234146129Y-130377630D01*
X234121638Y-130412457D01*
X233364619Y-131169478D01*
X233252814Y-131281282D01*
X233252812Y-131281285D01*
X233237687Y-131307483D01*
X233211912Y-131352127D01*
X233173756Y-131418215D01*
X233132832Y-131570943D01*
X233132832Y-131570945D01*
X233132832Y-131739046D01*
X233132833Y-131739059D01*
X233132833Y-132382986D01*
X233113148Y-132450025D01*
X233060344Y-132495780D01*
X232991186Y-132505724D01*
X232961386Y-132497549D01*
X232957167Y-132495801D01*
X232829991Y-132461724D01*
X232699166Y-132444500D01*
X232699159Y-132444500D01*
X232067507Y-132444500D01*
X232067499Y-132444500D01*
X231936674Y-132461724D01*
X231809503Y-132495800D01*
X231687582Y-132546302D01*
X231687581Y-132546303D01*
X231573583Y-132612120D01*
X231573565Y-132612132D01*
X231468888Y-132692455D01*
X231468878Y-132692464D01*
X231375797Y-132785545D01*
X231375788Y-132785555D01*
X231295465Y-132890232D01*
X231295453Y-132890250D01*
X231229636Y-133004248D01*
X231229635Y-133004249D01*
X231179133Y-133126170D01*
X231145057Y-133253341D01*
X231127833Y-133384166D01*
X231127833Y-133950002D01*
X231132977Y-134021939D01*
X231143936Y-134059262D01*
X231147696Y-134111841D01*
X231127833Y-134249998D01*
X231127833Y-134815833D01*
X231145057Y-134946658D01*
X231179133Y-135073829D01*
X231229635Y-135195750D01*
X231229636Y-135195751D01*
X231295453Y-135309749D01*
X231295465Y-135309767D01*
X231311172Y-135330236D01*
X231375792Y-135414449D01*
X231468884Y-135507541D01*
X231468888Y-135507544D01*
X231573565Y-135587867D01*
X231573569Y-135587869D01*
X231573576Y-135587875D01*
X231573583Y-135587879D01*
X231687579Y-135653695D01*
X231687581Y-135653696D01*
X231687590Y-135653701D01*
X231745656Y-135677753D01*
X231800058Y-135721593D01*
X231811080Y-135740985D01*
X231815324Y-135750318D01*
X231823756Y-135781785D01*
X231848418Y-135824500D01*
X231886342Y-135890187D01*
X231902812Y-135918714D01*
X231902814Y-135918717D01*
X232032053Y-136047956D01*
X232032058Y-136047960D01*
X232214617Y-136230520D01*
X232214619Y-136230521D01*
X232214623Y-136230524D01*
X232351542Y-136309573D01*
X232351545Y-136309575D01*
X232351549Y-136309577D01*
X232504276Y-136350501D01*
X232504278Y-136350501D01*
X232669987Y-136350501D01*
X232670003Y-136350500D01*
X234696664Y-136350500D01*
X234696680Y-136350501D01*
X234704276Y-136350501D01*
X234862387Y-136350501D01*
X234862390Y-136350501D01*
X235015118Y-136309577D01*
X235108494Y-136255666D01*
X235152049Y-136230520D01*
X235170955Y-136211613D01*
X235179978Y-136205329D01*
X235203095Y-136197596D01*
X235224490Y-136185913D01*
X235235638Y-136186709D01*
X235246239Y-136183164D01*
X235269867Y-136189156D01*
X235294182Y-136190895D01*
X235303130Y-136197593D01*
X235313964Y-136200341D01*
X235330601Y-136218156D01*
X235350117Y-136232765D01*
X235354023Y-136243237D01*
X235361652Y-136251406D01*
X235366015Y-136275387D01*
X235374536Y-136298228D01*
X235372759Y-136312446D01*
X235374161Y-136320147D01*
X235370770Y-136328366D01*
X235368558Y-136346081D01*
X235343334Y-136422200D01*
X235343333Y-136422204D01*
X235332833Y-136524983D01*
X235332833Y-137575001D01*
X235332834Y-137575019D01*
X235343333Y-137677796D01*
X235343334Y-137677799D01*
X235381328Y-137792455D01*
X235398519Y-137844334D01*
X235490621Y-137993656D01*
X235614677Y-138117712D01*
X235739108Y-138194461D01*
X235785832Y-138246409D01*
X235797055Y-138315372D01*
X235769211Y-138379454D01*
X235739108Y-138405539D01*
X235614675Y-138482289D01*
X235490622Y-138606342D01*
X235398520Y-138755663D01*
X235398518Y-138755668D01*
X235377413Y-138819359D01*
X235343334Y-138922203D01*
X235343334Y-138922204D01*
X235343333Y-138922204D01*
X235332833Y-139024983D01*
X235332833Y-140075001D01*
X235332834Y-140075019D01*
X235343333Y-140177796D01*
X235343334Y-140177799D01*
X235395922Y-140336496D01*
X235398324Y-140406324D01*
X235362592Y-140466366D01*
X235300072Y-140497559D01*
X235278216Y-140499500D01*
X232604276Y-140499500D01*
X232451545Y-140540423D01*
X232418508Y-140559499D01*
X232418505Y-140559500D01*
X232314623Y-140619475D01*
X232314615Y-140619481D01*
X231902814Y-141031282D01*
X231902810Y-141031287D01*
X231877572Y-141075003D01*
X231877569Y-141075009D01*
X231823756Y-141168215D01*
X231782832Y-141320943D01*
X231782832Y-141320944D01*
X231782832Y-141489046D01*
X231782833Y-141489059D01*
X231782833Y-142549901D01*
X231774189Y-142579337D01*
X231767666Y-142609327D01*
X231763910Y-142614344D01*
X231763148Y-142616940D01*
X231746515Y-142637582D01*
X231670917Y-142713181D01*
X231609594Y-142746666D01*
X231583235Y-142749500D01*
X231218846Y-142749500D01*
X231151807Y-142729815D01*
X231118528Y-142698386D01*
X231106046Y-142681206D01*
X231014278Y-142554898D01*
X230878435Y-142419055D01*
X230723014Y-142306135D01*
X230613825Y-142250500D01*
X230551839Y-142218916D01*
X230369135Y-142159553D01*
X230225598Y-142136819D01*
X230179388Y-142129500D01*
X229987278Y-142129500D01*
X229941068Y-142136819D01*
X229797530Y-142159553D01*
X229614826Y-142218916D01*
X229443651Y-142306135D01*
X229385018Y-142348735D01*
X229288231Y-142419055D01*
X229288229Y-142419057D01*
X229288228Y-142419057D01*
X229152390Y-142554895D01*
X229152390Y-142554896D01*
X229152388Y-142554898D01*
X229134632Y-142579337D01*
X229039468Y-142710318D01*
X228952249Y-142881493D01*
X228892886Y-143064197D01*
X228876321Y-143168784D01*
X228862833Y-143253945D01*
X228862833Y-143446055D01*
X228864729Y-143458028D01*
X228892886Y-143635802D01*
X228952249Y-143818506D01*
X228998653Y-143909577D01*
X229039468Y-143989681D01*
X229152388Y-144145102D01*
X229288231Y-144280945D01*
X229288234Y-144280947D01*
X229349118Y-144325182D01*
X229391784Y-144380512D01*
X229397763Y-144450125D01*
X229365157Y-144511920D01*
X229304319Y-144546277D01*
X229276233Y-144549500D01*
X228433431Y-144549500D01*
X228403990Y-144540855D01*
X228374004Y-144534332D01*
X228368988Y-144530577D01*
X228366392Y-144529815D01*
X228345750Y-144513181D01*
X228270152Y-144437583D01*
X228236667Y-144376260D01*
X228233833Y-144349902D01*
X228233833Y-142020945D01*
X228233833Y-142020943D01*
X228210180Y-141932669D01*
X228192910Y-141868215D01*
X228153237Y-141799500D01*
X228128966Y-141757461D01*
X228113854Y-141731285D01*
X227997718Y-141615149D01*
X227997707Y-141615139D01*
X227520923Y-141138355D01*
X227520921Y-141138352D01*
X227402050Y-141019481D01*
X227402042Y-141019475D01*
X227289511Y-140954506D01*
X227289510Y-140954505D01*
X227272365Y-140944607D01*
X227265118Y-140940423D01*
X227112390Y-140899499D01*
X226954276Y-140899499D01*
X226946680Y-140899499D01*
X226946664Y-140899500D01*
X222845563Y-140899500D01*
X222778524Y-140879815D01*
X222757882Y-140863181D01*
X222470152Y-140575451D01*
X222455448Y-140548523D01*
X222438856Y-140522705D01*
X222437964Y-140516504D01*
X222436667Y-140514128D01*
X222433833Y-140487770D01*
X222433833Y-140374499D01*
X222453518Y-140307460D01*
X222506322Y-140261705D01*
X222557833Y-140250499D01*
X222831204Y-140250499D01*
X222831205Y-140250499D01*
X222890816Y-140244091D01*
X223025664Y-140193796D01*
X223140879Y-140107546D01*
X223227129Y-139992331D01*
X223277424Y-139857483D01*
X223283833Y-139797873D01*
X223283832Y-138102128D01*
X223277424Y-138042517D01*
X223259200Y-137993657D01*
X223227130Y-137907671D01*
X223227126Y-137907664D01*
X223140880Y-137792455D01*
X223140877Y-137792452D01*
X223025668Y-137706206D01*
X223025661Y-137706202D01*
X222946501Y-137676678D01*
X222890567Y-137634807D01*
X222866150Y-137569343D01*
X222881001Y-137501070D01*
X222886720Y-137491622D01*
X222935917Y-137417995D01*
X222992491Y-137281413D01*
X223021333Y-137136418D01*
X223021333Y-136524730D01*
X223041018Y-136457691D01*
X223057652Y-136437049D01*
X223072501Y-136422200D01*
X223126045Y-136368656D01*
X223218147Y-136219334D01*
X223273332Y-136052797D01*
X223283833Y-135950009D01*
X223283832Y-134949992D01*
X223283491Y-134946658D01*
X223273332Y-134847203D01*
X223273331Y-134847200D01*
X223262932Y-134815819D01*
X223218147Y-134680666D01*
X223126045Y-134531344D01*
X223057652Y-134462951D01*
X223024167Y-134401628D01*
X223021333Y-134375270D01*
X223021333Y-133999730D01*
X223041018Y-133932691D01*
X223057652Y-133912049D01*
X223065876Y-133903825D01*
X223076045Y-133893656D01*
X223168147Y-133744334D01*
X223223332Y-133577797D01*
X223233833Y-133475009D01*
X223233832Y-132424992D01*
X223223332Y-132322203D01*
X223168147Y-132155666D01*
X223076045Y-132006344D01*
X223020152Y-131950451D01*
X222986667Y-131889128D01*
X222983833Y-131862770D01*
X222983833Y-131537230D01*
X223003518Y-131470191D01*
X223020152Y-131449549D01*
X223027373Y-131442328D01*
X223076045Y-131393656D01*
X223168147Y-131244334D01*
X223223332Y-131077797D01*
X223233833Y-130975009D01*
X223233832Y-129924992D01*
X223229797Y-129885496D01*
X223223332Y-129822203D01*
X223223331Y-129822200D01*
X223218603Y-129807931D01*
X223168147Y-129655666D01*
X223076045Y-129506344D01*
X223020152Y-129450451D01*
X222986667Y-129389128D01*
X222983833Y-129362770D01*
X222983833Y-129037230D01*
X223003518Y-128970191D01*
X223020152Y-128949549D01*
X223032380Y-128937321D01*
X223076045Y-128893656D01*
X223168147Y-128744334D01*
X223223332Y-128577797D01*
X223233833Y-128475009D01*
X223233832Y-127424992D01*
X223230089Y-127388355D01*
X223223332Y-127322203D01*
X223203880Y-127263503D01*
X223201479Y-127193676D01*
X223237211Y-127133634D01*
X223299731Y-127102441D01*
X223321587Y-127100500D01*
X223607253Y-127100500D01*
X223725335Y-127077011D01*
X223752246Y-127071658D01*
X223888828Y-127015084D01*
X223942746Y-126979057D01*
X224011749Y-126932952D01*
X224257882Y-126686819D01*
X224319205Y-126653334D01*
X224345563Y-126650500D01*
X224803567Y-126650500D01*
X224870606Y-126670185D01*
G37*
%TD.AperFunction*%
%TA.AperFunction,Conductor*%
G36*
X237537784Y-137960713D02*
G01*
X237563870Y-137990817D01*
X237565621Y-137993656D01*
X237689677Y-138117712D01*
X237814108Y-138194461D01*
X237860832Y-138246409D01*
X237872055Y-138315372D01*
X237844211Y-138379454D01*
X237814108Y-138405539D01*
X237689675Y-138482289D01*
X237565618Y-138606346D01*
X237563870Y-138609182D01*
X237562162Y-138610717D01*
X237561140Y-138612011D01*
X237560918Y-138611836D01*
X237511922Y-138655905D01*
X237442959Y-138667126D01*
X237378877Y-138639282D01*
X237352796Y-138609182D01*
X237351047Y-138606346D01*
X237226988Y-138482287D01*
X237102558Y-138405539D01*
X237055833Y-138353591D01*
X237044610Y-138284629D01*
X237072453Y-138220547D01*
X237102558Y-138194461D01*
X237226989Y-138117712D01*
X237351045Y-137993656D01*
X237352794Y-137990819D01*
X237354502Y-137989283D01*
X237355526Y-137987989D01*
X237355747Y-137988163D01*
X237404739Y-137944096D01*
X237473701Y-137932872D01*
X237537784Y-137960713D01*
G37*
%TD.AperFunction*%
%TA.AperFunction,Conductor*%
G36*
X242449678Y-120351304D02*
G01*
X242480009Y-120351111D01*
X242486218Y-120353898D01*
X242489107Y-120354104D01*
X242494744Y-120357726D01*
X242512206Y-120365567D01*
X242523802Y-120372915D01*
X242528968Y-120378081D01*
X242573701Y-120404536D01*
X242575295Y-120405546D01*
X242597131Y-120430424D01*
X242619726Y-120454623D01*
X242620080Y-120456570D01*
X242621386Y-120458058D01*
X242626308Y-120490809D01*
X242632230Y-120523365D01*
X242631475Y-120525193D01*
X242631770Y-120527151D01*
X242618202Y-120557368D01*
X242605585Y-120587954D01*
X242603962Y-120589084D01*
X242603151Y-120590891D01*
X242575406Y-120608971D01*
X242548250Y-120627885D01*
X242546272Y-120627958D01*
X242544614Y-120629039D01*
X242541016Y-120630062D01*
X242409046Y-120665423D01*
X242385432Y-120679058D01*
X242385431Y-120679058D01*
X242272120Y-120744477D01*
X242272115Y-120744481D01*
X241560314Y-121456282D01*
X241560313Y-121456284D01*
X241526154Y-121515451D01*
X241516724Y-121531784D01*
X241516722Y-121531786D01*
X241481258Y-121593209D01*
X241481256Y-121593212D01*
X241469536Y-121636954D01*
X241440332Y-121745943D01*
X241440332Y-121745945D01*
X241440332Y-121914046D01*
X241440333Y-121914059D01*
X241440333Y-122019699D01*
X241420648Y-122086738D01*
X241367844Y-122132493D01*
X241355340Y-122137403D01*
X241339979Y-122142494D01*
X241271501Y-122165185D01*
X241271496Y-122165187D01*
X241122175Y-122257289D01*
X240998122Y-122381342D01*
X240906020Y-122530663D01*
X240906018Y-122530668D01*
X240879660Y-122610212D01*
X240850834Y-122697203D01*
X240850834Y-122697204D01*
X240850833Y-122697204D01*
X240840333Y-122799983D01*
X240840333Y-123425001D01*
X240840334Y-123425019D01*
X240850833Y-123527796D01*
X240850834Y-123527799D01*
X240902739Y-123684436D01*
X240906019Y-123694334D01*
X240989423Y-123829555D01*
X240998122Y-123843657D01*
X241091784Y-123937319D01*
X241125269Y-123998642D01*
X241120285Y-124068334D01*
X241091784Y-124112681D01*
X240998122Y-124206342D01*
X240906020Y-124355663D01*
X240906019Y-124355666D01*
X240850834Y-124522203D01*
X240850834Y-124522204D01*
X240850833Y-124522204D01*
X240840333Y-124624983D01*
X240840333Y-125250001D01*
X240840334Y-125250019D01*
X240850833Y-125352796D01*
X240864517Y-125394089D01*
X240886854Y-125461498D01*
X240889256Y-125531324D01*
X240853525Y-125591366D01*
X240791005Y-125622559D01*
X240769148Y-125624500D01*
X239701661Y-125624500D01*
X239634622Y-125604815D01*
X239588867Y-125552011D01*
X239578923Y-125482853D01*
X239582581Y-125465915D01*
X239613598Y-125359156D01*
X239616333Y-125324405D01*
X239616332Y-124725596D01*
X239613598Y-124690844D01*
X239570388Y-124542113D01*
X239534746Y-124481847D01*
X239508601Y-124437636D01*
X239491333Y-124374515D01*
X239491333Y-124095945D01*
X239491333Y-124095943D01*
X239474090Y-124031591D01*
X239475753Y-123961742D01*
X239514916Y-123903880D01*
X239579144Y-123876376D01*
X239593865Y-123875499D01*
X239715227Y-123875499D01*
X239715237Y-123875499D01*
X239749989Y-123872765D01*
X239898720Y-123829555D01*
X240032031Y-123750715D01*
X240141548Y-123641198D01*
X240220388Y-123507887D01*
X240263598Y-123359156D01*
X240266333Y-123324405D01*
X240266332Y-122725596D01*
X240263598Y-122690844D01*
X240220388Y-122542113D01*
X240141548Y-122408802D01*
X240141546Y-122408800D01*
X240141543Y-122408796D01*
X240094928Y-122362181D01*
X240061443Y-122300858D01*
X240066427Y-122231166D01*
X240108299Y-122175233D01*
X240173763Y-122150816D01*
X240182609Y-122150500D01*
X240212177Y-122150500D01*
X240212178Y-122150499D01*
X240366830Y-122119737D01*
X240488162Y-122069480D01*
X240512505Y-122059397D01*
X240512505Y-122059396D01*
X240512512Y-122059394D01*
X240643622Y-121971789D01*
X240755122Y-121860289D01*
X240842727Y-121729179D01*
X240903070Y-121583497D01*
X240933833Y-121428842D01*
X240933833Y-121271158D01*
X240933833Y-121271155D01*
X240933832Y-121271153D01*
X240928392Y-121243803D01*
X240903070Y-121116503D01*
X240868588Y-121033255D01*
X240842730Y-120970827D01*
X240842723Y-120970814D01*
X240755122Y-120839711D01*
X240755119Y-120839707D01*
X240639315Y-120723903D01*
X240640815Y-120722402D01*
X240606896Y-120672600D01*
X240605030Y-120602756D01*
X240641221Y-120542989D01*
X240703979Y-120512277D01*
X240724898Y-120510500D01*
X240756519Y-120510500D01*
X240756527Y-120510500D01*
X240793402Y-120507598D01*
X240793404Y-120507597D01*
X240793406Y-120507597D01*
X240835024Y-120495505D01*
X240951231Y-120461744D01*
X241092698Y-120378081D01*
X241092703Y-120378075D01*
X241098864Y-120373298D01*
X241100766Y-120375750D01*
X241149412Y-120349155D01*
X241219107Y-120354104D01*
X241251528Y-120374940D01*
X241252802Y-120373298D01*
X241258965Y-120378078D01*
X241258968Y-120378081D01*
X241400435Y-120461744D01*
X241442057Y-120473836D01*
X241558259Y-120507597D01*
X241558262Y-120507597D01*
X241558264Y-120507598D01*
X241595139Y-120510500D01*
X241595147Y-120510500D01*
X242026519Y-120510500D01*
X242026527Y-120510500D01*
X242063402Y-120507598D01*
X242063404Y-120507597D01*
X242063406Y-120507597D01*
X242105024Y-120495505D01*
X242221231Y-120461744D01*
X242362698Y-120378081D01*
X242362703Y-120378075D01*
X242368864Y-120373298D01*
X242370766Y-120375750D01*
X242384725Y-120368118D01*
X242410141Y-120351556D01*
X242415077Y-120351524D01*
X242419412Y-120349155D01*
X242449678Y-120351304D01*
G37*
%TD.AperFunction*%
%TA.AperFunction,Conductor*%
G36*
X227870872Y-118970185D02*
G01*
X227916627Y-119022989D01*
X227927833Y-119074500D01*
X227927833Y-119467870D01*
X227927834Y-119467876D01*
X227934241Y-119527483D01*
X227984535Y-119662328D01*
X227984537Y-119662331D01*
X227992145Y-119672494D01*
X228016562Y-119737959D01*
X228001710Y-119806232D01*
X227977373Y-119837561D01*
X227882660Y-119925740D01*
X227882659Y-119925740D01*
X227809243Y-120049474D01*
X227806314Y-120056547D01*
X227806306Y-120056568D01*
X227788309Y-120107582D01*
X227784994Y-120130639D01*
X227767834Y-120249997D01*
X227767833Y-120250001D01*
X227767833Y-124032348D01*
X227748148Y-124099387D01*
X227695344Y-124145142D01*
X227626186Y-124155086D01*
X227562630Y-124126061D01*
X227556152Y-124120029D01*
X227375498Y-123939375D01*
X227375494Y-123939372D01*
X227236202Y-123846299D01*
X227236190Y-123846292D01*
X227125636Y-123800501D01*
X227125634Y-123800500D01*
X227081419Y-123782185D01*
X227081407Y-123782182D01*
X226917104Y-123749500D01*
X226917100Y-123749500D01*
X226712291Y-123749500D01*
X226645252Y-123729815D01*
X226606753Y-123690598D01*
X226601045Y-123681344D01*
X226476988Y-123557287D01*
X226405235Y-123513029D01*
X226358511Y-123461081D01*
X226346333Y-123407491D01*
X226346333Y-120933445D01*
X226346333Y-120933443D01*
X226305410Y-120780715D01*
X226276472Y-120730595D01*
X226226353Y-120643784D01*
X226226249Y-120643680D01*
X226222123Y-120636539D01*
X226215718Y-120610181D01*
X226205924Y-120584892D01*
X226207591Y-120576735D01*
X226205626Y-120568645D01*
X226214487Y-120543012D01*
X226219921Y-120516439D01*
X226225734Y-120510478D01*
X226228455Y-120502609D01*
X226249770Y-120485833D01*
X226268705Y-120466420D01*
X226277298Y-120464169D01*
X226283360Y-120459399D01*
X226302525Y-120457561D01*
X226329488Y-120450500D01*
X226496664Y-120450500D01*
X226496680Y-120450501D01*
X226504276Y-120450501D01*
X226662387Y-120450501D01*
X226662390Y-120450501D01*
X226815118Y-120409577D01*
X226886757Y-120368216D01*
X226952049Y-120330520D01*
X227063853Y-120218716D01*
X227063853Y-120218714D01*
X227074056Y-120208512D01*
X227074060Y-120208506D01*
X227191839Y-120090728D01*
X227191844Y-120090724D01*
X227202047Y-120080520D01*
X227202049Y-120080520D01*
X227313853Y-119968716D01*
X227392910Y-119831784D01*
X227433833Y-119679057D01*
X227433833Y-119074500D01*
X227436383Y-119065814D01*
X227435095Y-119056853D01*
X227446073Y-119032812D01*
X227453518Y-119007461D01*
X227460358Y-119001533D01*
X227464120Y-118993297D01*
X227486354Y-118979007D01*
X227506322Y-118961706D01*
X227516836Y-118959418D01*
X227522898Y-118955523D01*
X227557833Y-118950500D01*
X227803833Y-118950500D01*
X227870872Y-118970185D01*
G37*
%TD.AperFunction*%
%TA.AperFunction,Conductor*%
G36*
X227420403Y-115370185D02*
G01*
X227466158Y-115422989D01*
X227476102Y-115492147D01*
X227471072Y-115513492D01*
X227446716Y-115586996D01*
X227443333Y-115597206D01*
X227432833Y-115699983D01*
X227432833Y-117000001D01*
X227432834Y-117000008D01*
X227443333Y-117102796D01*
X227443334Y-117102799D01*
X227498518Y-117269331D01*
X227498520Y-117269336D01*
X227507158Y-117283340D01*
X227578091Y-117398342D01*
X227590622Y-117418657D01*
X227709784Y-117537819D01*
X227743269Y-117599142D01*
X227738285Y-117668834D01*
X227696413Y-117724767D01*
X227630949Y-117749184D01*
X227622103Y-117749500D01*
X227270003Y-117749500D01*
X227269987Y-117749499D01*
X227262391Y-117749499D01*
X227104276Y-117749499D01*
X227027912Y-117769961D01*
X226951547Y-117790423D01*
X226951542Y-117790426D01*
X226814623Y-117869475D01*
X226814615Y-117869481D01*
X226745514Y-117938583D01*
X226684191Y-117972068D01*
X226614499Y-117967084D01*
X226558566Y-117925212D01*
X226534149Y-117859748D01*
X226533833Y-117850902D01*
X226533833Y-117070946D01*
X226533833Y-117070943D01*
X226514827Y-117000009D01*
X226492910Y-116918215D01*
X226441064Y-116828416D01*
X226413853Y-116781284D01*
X226302049Y-116669480D01*
X226302046Y-116669478D01*
X226280123Y-116647555D01*
X226280121Y-116647552D01*
X226161250Y-116528681D01*
X226161242Y-116528675D01*
X226051685Y-116465423D01*
X226051684Y-116465422D01*
X226051684Y-116465423D01*
X226024318Y-116449623D01*
X225871590Y-116408699D01*
X225713476Y-116408699D01*
X225705880Y-116408699D01*
X225705864Y-116408700D01*
X224629532Y-116408700D01*
X224562493Y-116389015D01*
X224516738Y-116336211D01*
X224505532Y-116284700D01*
X224505532Y-116161329D01*
X224505531Y-116161323D01*
X224505530Y-116161316D01*
X224499124Y-116101717D01*
X224487100Y-116069480D01*
X224448830Y-115966871D01*
X224448826Y-115966864D01*
X224443413Y-115959633D01*
X224418995Y-115894169D01*
X224433846Y-115825896D01*
X224483251Y-115776490D01*
X224503667Y-115767619D01*
X224602667Y-115734814D01*
X224751989Y-115642712D01*
X224845652Y-115549049D01*
X224906975Y-115515564D01*
X224976667Y-115520548D01*
X225021014Y-115549049D01*
X225114677Y-115642712D01*
X225263999Y-115734814D01*
X225430536Y-115789999D01*
X225533324Y-115800500D01*
X226158341Y-115800499D01*
X226158349Y-115800498D01*
X226158352Y-115800498D01*
X226214635Y-115794748D01*
X226261130Y-115789999D01*
X226427667Y-115734814D01*
X226576989Y-115642712D01*
X226701045Y-115518656D01*
X226768432Y-115409402D01*
X226820380Y-115362679D01*
X226873971Y-115350500D01*
X227353364Y-115350500D01*
X227420403Y-115370185D01*
G37*
%TD.AperFunction*%
%TA.AperFunction,Conductor*%
G36*
X248525872Y-107570185D02*
G01*
X248571627Y-107622989D01*
X248582833Y-107674500D01*
X248582833Y-147725500D01*
X248563148Y-147792539D01*
X248510344Y-147838294D01*
X248458833Y-147849500D01*
X216507833Y-147849500D01*
X216440794Y-147829815D01*
X216395039Y-147777011D01*
X216383833Y-147725500D01*
X216383833Y-118601577D01*
X216882833Y-118601577D01*
X216882833Y-118798422D01*
X216913623Y-118992826D01*
X216974450Y-119180029D01*
X217063809Y-119355405D01*
X217179505Y-119514646D01*
X217318687Y-119653828D01*
X217477928Y-119769524D01*
X217499266Y-119780396D01*
X217653303Y-119858882D01*
X217653305Y-119858882D01*
X217653308Y-119858884D01*
X217753650Y-119891487D01*
X217840506Y-119919709D01*
X218034911Y-119950500D01*
X218034916Y-119950500D01*
X218231755Y-119950500D01*
X218430787Y-119918976D01*
X218436212Y-119919677D01*
X218441339Y-119917765D01*
X218470489Y-119924106D01*
X218500080Y-119927930D01*
X218505685Y-119931762D01*
X218509612Y-119932617D01*
X218537866Y-119953768D01*
X218548472Y-119964374D01*
X218548482Y-119964385D01*
X218552812Y-119968715D01*
X218552813Y-119968716D01*
X218664617Y-120080520D01*
X218733681Y-120120393D01*
X218751428Y-120130639D01*
X218751430Y-120130641D01*
X218801546Y-120159576D01*
X218801548Y-120159577D01*
X218954275Y-120200500D01*
X218954276Y-120200500D01*
X220146664Y-120200500D01*
X220146680Y-120200501D01*
X220154276Y-120200501D01*
X220312387Y-120200501D01*
X220312390Y-120200501D01*
X220465118Y-120159577D01*
X220515237Y-120130639D01*
X220602049Y-120080520D01*
X220713853Y-119968716D01*
X220713853Y-119968714D01*
X220724061Y-119958507D01*
X220724063Y-119958504D01*
X221556839Y-119125728D01*
X221556844Y-119125724D01*
X221567047Y-119115520D01*
X221567049Y-119115520D01*
X221678853Y-119003716D01*
X221733204Y-118909577D01*
X221757910Y-118866785D01*
X221798833Y-118714057D01*
X221798833Y-118555943D01*
X221798833Y-118371738D01*
X221818518Y-118304699D01*
X221871322Y-118258944D01*
X221940480Y-118249000D01*
X221966165Y-118255555D01*
X222094150Y-118303291D01*
X222153760Y-118309700D01*
X222782905Y-118309699D01*
X222842516Y-118303291D01*
X222977364Y-118252996D01*
X223029022Y-118214324D01*
X223094485Y-118189907D01*
X223162758Y-118204758D01*
X223177639Y-118214321D01*
X223199774Y-118230891D01*
X223229301Y-118252995D01*
X223229304Y-118252997D01*
X223245249Y-118258944D01*
X223364150Y-118303291D01*
X223423760Y-118309700D01*
X224052905Y-118309699D01*
X224112516Y-118303291D01*
X224247364Y-118252996D01*
X224362579Y-118166746D01*
X224448829Y-118051531D01*
X224499124Y-117916683D01*
X224505533Y-117857073D01*
X224505533Y-117733700D01*
X224525218Y-117666661D01*
X224578022Y-117620906D01*
X224629533Y-117609700D01*
X225066125Y-117609700D01*
X225133164Y-117629385D01*
X225178919Y-117682189D01*
X225188863Y-117751347D01*
X225159838Y-117814903D01*
X225135016Y-117836802D01*
X225073044Y-117878210D01*
X225073040Y-117878213D01*
X224961546Y-117989707D01*
X224961543Y-117989711D01*
X224873942Y-118120814D01*
X224873935Y-118120827D01*
X224813597Y-118266498D01*
X224813594Y-118266510D01*
X224782833Y-118421153D01*
X224782833Y-118578846D01*
X224813594Y-118733489D01*
X224813597Y-118733501D01*
X224873935Y-118879172D01*
X224873942Y-118879185D01*
X224961543Y-119010288D01*
X224961546Y-119010292D01*
X224989073Y-119037819D01*
X225022558Y-119099142D01*
X225017574Y-119168834D01*
X224975702Y-119224767D01*
X224910238Y-119249184D01*
X224901392Y-119249500D01*
X222254274Y-119249500D01*
X222216667Y-119259576D01*
X222216668Y-119259577D01*
X222101547Y-119290423D01*
X222101542Y-119290426D01*
X221964623Y-119369475D01*
X221964615Y-119369481D01*
X220717814Y-120616282D01*
X220717808Y-120616290D01*
X220674893Y-120690621D01*
X220674888Y-120690631D01*
X220669769Y-120699500D01*
X220638756Y-120753215D01*
X220606999Y-120871731D01*
X220604888Y-120877363D01*
X220587372Y-120900680D01*
X220572189Y-120925590D01*
X220566633Y-120928288D01*
X220562924Y-120933227D01*
X220535575Y-120943375D01*
X220509342Y-120956119D01*
X220502893Y-120955503D01*
X220497419Y-120957535D01*
X220476786Y-120953010D01*
X220445446Y-120950018D01*
X220302519Y-120896710D01*
X220302518Y-120896709D01*
X220302516Y-120896709D01*
X220242906Y-120890300D01*
X220242896Y-120890300D01*
X219613762Y-120890300D01*
X219613756Y-120890301D01*
X219554149Y-120896708D01*
X219419304Y-120947002D01*
X219419297Y-120947006D01*
X219304088Y-121033252D01*
X219304085Y-121033255D01*
X219217839Y-121148464D01*
X219217835Y-121148471D01*
X219167541Y-121283317D01*
X219161134Y-121342916D01*
X219161133Y-121342935D01*
X219161133Y-123038670D01*
X219161134Y-123038676D01*
X219167541Y-123098283D01*
X219217835Y-123233128D01*
X219217837Y-123233131D01*
X219223164Y-123240247D01*
X219247582Y-123305711D01*
X219232731Y-123373984D01*
X219183326Y-123423390D01*
X219162905Y-123432264D01*
X219139003Y-123440184D01*
X219138996Y-123440187D01*
X218989675Y-123532289D01*
X218865622Y-123656342D01*
X218773520Y-123805663D01*
X218773518Y-123805668D01*
X218750379Y-123875498D01*
X218718334Y-123972203D01*
X218718334Y-123972204D01*
X218718333Y-123972204D01*
X218707833Y-124074983D01*
X218707833Y-125125001D01*
X218707834Y-125125019D01*
X218718333Y-125227796D01*
X218718334Y-125227799D01*
X218773518Y-125394331D01*
X218773520Y-125394336D01*
X218792912Y-125425776D01*
X218865621Y-125543656D01*
X218989677Y-125667712D01*
X219138999Y-125759814D01*
X219305536Y-125814999D01*
X219408324Y-125825500D01*
X220183341Y-125825499D01*
X220183349Y-125825498D01*
X220183352Y-125825498D01*
X220239635Y-125819748D01*
X220286130Y-125814999D01*
X220452667Y-125759814D01*
X220601989Y-125667712D01*
X220726045Y-125543656D01*
X220818147Y-125394334D01*
X220873332Y-125227797D01*
X220883833Y-125125009D01*
X220883832Y-124074992D01*
X220873332Y-123972203D01*
X220818147Y-123805666D01*
X220738699Y-123676860D01*
X220720260Y-123609469D01*
X220741183Y-123542806D01*
X220794825Y-123498036D01*
X220857494Y-123488476D01*
X220883760Y-123491300D01*
X221512905Y-123491299D01*
X221572516Y-123484891D01*
X221707364Y-123434596D01*
X221759022Y-123395924D01*
X221824485Y-123371507D01*
X221892758Y-123386358D01*
X221907639Y-123395921D01*
X221953964Y-123430600D01*
X221959301Y-123434595D01*
X221959304Y-123434597D01*
X221974292Y-123440187D01*
X222094150Y-123484891D01*
X222153760Y-123491300D01*
X222782905Y-123491299D01*
X222842516Y-123484891D01*
X222970500Y-123437155D01*
X223001108Y-123434966D01*
X223031479Y-123430600D01*
X223035634Y-123432497D01*
X223040190Y-123432172D01*
X223067116Y-123446875D01*
X223095035Y-123459625D01*
X223097505Y-123463468D01*
X223101513Y-123465657D01*
X223116216Y-123492584D01*
X223132809Y-123518403D01*
X223133700Y-123524603D01*
X223134998Y-123526980D01*
X223137832Y-123553338D01*
X223137832Y-123557769D01*
X223118147Y-123624808D01*
X223101514Y-123645449D01*
X223065625Y-123681338D01*
X222973520Y-123830663D01*
X222973518Y-123830668D01*
X222959569Y-123872765D01*
X222918334Y-123997203D01*
X222918334Y-123997204D01*
X222918333Y-123997204D01*
X222907833Y-124099983D01*
X222907833Y-125100001D01*
X222907834Y-125100019D01*
X222918333Y-125202796D01*
X222918334Y-125202799D01*
X222968039Y-125352796D01*
X222973519Y-125369334D01*
X222998851Y-125410404D01*
X223017291Y-125477796D01*
X222996368Y-125544459D01*
X222942726Y-125589229D01*
X222893312Y-125599500D01*
X222759413Y-125599500D01*
X222614425Y-125628340D01*
X222614415Y-125628343D01*
X222477844Y-125684912D01*
X222477831Y-125684919D01*
X222403163Y-125734812D01*
X222388694Y-125744480D01*
X222383905Y-125747680D01*
X222354914Y-125767050D01*
X222354913Y-125767051D01*
X221650385Y-126471578D01*
X221650382Y-126471581D01*
X221607771Y-126535353D01*
X221607772Y-126535354D01*
X221568247Y-126594508D01*
X221511676Y-126731082D01*
X221511673Y-126731092D01*
X221481644Y-126882057D01*
X221479964Y-126881722D01*
X221456852Y-126938937D01*
X221447303Y-126949662D01*
X221390620Y-127006345D01*
X221298520Y-127155663D01*
X221298518Y-127155668D01*
X221277413Y-127219359D01*
X221243334Y-127322203D01*
X221243334Y-127322204D01*
X221243333Y-127322204D01*
X221232833Y-127424983D01*
X221232833Y-128475001D01*
X221232834Y-128475019D01*
X221243333Y-128577796D01*
X221243334Y-128577799D01*
X221264760Y-128642456D01*
X221298519Y-128744334D01*
X221389920Y-128892520D01*
X221390622Y-128893657D01*
X221446514Y-128949549D01*
X221479999Y-129010872D01*
X221482833Y-129037230D01*
X221482833Y-129362770D01*
X221463148Y-129429809D01*
X221446514Y-129450451D01*
X221390622Y-129506342D01*
X221298520Y-129655663D01*
X221298519Y-129655666D01*
X221243334Y-129822203D01*
X221243334Y-129822204D01*
X221243333Y-129822204D01*
X221232833Y-129924983D01*
X221232833Y-130975001D01*
X221232834Y-130975019D01*
X221243333Y-131077796D01*
X221243334Y-131077799D01*
X221298518Y-131244331D01*
X221298520Y-131244336D01*
X221321310Y-131281284D01*
X221365006Y-131352128D01*
X221390622Y-131393657D01*
X221446514Y-131449549D01*
X221479999Y-131510872D01*
X221482833Y-131537230D01*
X221482833Y-131862770D01*
X221463148Y-131929809D01*
X221446514Y-131950451D01*
X221390622Y-132006342D01*
X221298520Y-132155663D01*
X221298518Y-132155668D01*
X221262454Y-132264504D01*
X221222681Y-132321949D01*
X221158166Y-132348772D01*
X221144748Y-132349500D01*
X220715929Y-132349500D01*
X220648890Y-132329815D01*
X220615611Y-132298386D01*
X220590994Y-132264504D01*
X220497161Y-132135354D01*
X220357979Y-131996172D01*
X220198738Y-131880476D01*
X220163293Y-131862416D01*
X220023362Y-131791117D01*
X219836159Y-131730290D01*
X219641755Y-131699500D01*
X219641750Y-131699500D01*
X219444916Y-131699500D01*
X219444911Y-131699500D01*
X219250506Y-131730290D01*
X219063303Y-131791117D01*
X218887927Y-131880476D01*
X218820027Y-131929809D01*
X218728687Y-131996172D01*
X218728685Y-131996174D01*
X218728684Y-131996174D01*
X218589507Y-132135351D01*
X218589507Y-132135352D01*
X218589505Y-132135354D01*
X218574746Y-132155668D01*
X218473809Y-132294594D01*
X218384450Y-132469970D01*
X218323623Y-132657173D01*
X218292833Y-132851577D01*
X218292833Y-133048422D01*
X218323623Y-133242826D01*
X218384450Y-133430029D01*
X218459741Y-133577795D01*
X218473809Y-133605405D01*
X218589505Y-133764646D01*
X218728687Y-133903828D01*
X218887928Y-134019524D01*
X218944546Y-134048372D01*
X219063303Y-134108882D01*
X219063305Y-134108882D01*
X219063308Y-134108884D01*
X219163650Y-134141487D01*
X219250506Y-134169709D01*
X219444911Y-134200500D01*
X219444916Y-134200500D01*
X219641755Y-134200500D01*
X219836159Y-134169709D01*
X219877609Y-134156241D01*
X220023358Y-134108884D01*
X220198738Y-134019524D01*
X220357979Y-133903828D01*
X220497161Y-133764646D01*
X220612857Y-133605405D01*
X220612857Y-133605403D01*
X220615611Y-133601614D01*
X220670941Y-133558949D01*
X220715929Y-133550500D01*
X221144748Y-133550500D01*
X221211787Y-133570185D01*
X221257542Y-133622989D01*
X221262454Y-133635496D01*
X221298518Y-133744331D01*
X221298520Y-133744336D01*
X221390622Y-133893657D01*
X221484014Y-133987049D01*
X221517499Y-134048372D01*
X221520333Y-134074730D01*
X221520333Y-134375270D01*
X221500648Y-134442309D01*
X221484014Y-134462951D01*
X221415622Y-134531342D01*
X221323520Y-134680663D01*
X221323519Y-134680666D01*
X221268334Y-134847203D01*
X221268334Y-134847204D01*
X221268333Y-134847204D01*
X221257833Y-134949983D01*
X221257833Y-135950001D01*
X221257834Y-135950019D01*
X221268333Y-136052796D01*
X221268334Y-136052799D01*
X221323518Y-136219331D01*
X221323520Y-136219336D01*
X221330421Y-136230524D01*
X221404422Y-136350500D01*
X221415622Y-136368657D01*
X221484014Y-136437049D01*
X221498717Y-136463976D01*
X221515310Y-136489795D01*
X221516201Y-136495995D01*
X221517499Y-136498372D01*
X221520333Y-136524730D01*
X221520333Y-136700269D01*
X221500648Y-136767308D01*
X221484014Y-136787950D01*
X221100383Y-137171580D01*
X221100377Y-137171588D01*
X221051145Y-137245268D01*
X221051146Y-137245269D01*
X221018254Y-137294496D01*
X221018247Y-137294508D01*
X220961675Y-137431086D01*
X220961673Y-137431091D01*
X220938081Y-137549693D01*
X220905695Y-137611603D01*
X220844979Y-137646177D01*
X220816464Y-137649500D01*
X220535463Y-137649500D01*
X220535456Y-137649501D01*
X220475849Y-137655908D01*
X220341004Y-137706202D01*
X220340997Y-137706206D01*
X220225788Y-137792452D01*
X220225785Y-137792455D01*
X220139539Y-137907664D01*
X220139535Y-137907671D01*
X220089241Y-138042517D01*
X220083115Y-138099500D01*
X220082834Y-138102123D01*
X220082833Y-138102135D01*
X220082833Y-139797870D01*
X220082834Y-139797876D01*
X220089241Y-139857483D01*
X220139535Y-139992328D01*
X220139539Y-139992335D01*
X220225785Y-140107544D01*
X220225788Y-140107547D01*
X220340997Y-140193793D01*
X220341004Y-140193797D01*
X220385951Y-140210561D01*
X220475850Y-140244091D01*
X220535460Y-140250500D01*
X220808834Y-140250499D01*
X220875872Y-140270183D01*
X220921627Y-140322987D01*
X220932833Y-140374499D01*
X220932833Y-140947769D01*
X220913148Y-141014808D01*
X220896514Y-141035450D01*
X220660385Y-141271578D01*
X220660382Y-141271581D01*
X220627400Y-141320942D01*
X220627401Y-141320943D01*
X220578247Y-141394508D01*
X220521676Y-141531082D01*
X220521673Y-141531092D01*
X220492833Y-141676079D01*
X220492833Y-143324582D01*
X220473148Y-143391621D01*
X220441718Y-143424900D01*
X220396120Y-143458028D01*
X220396115Y-143458032D01*
X220251361Y-143602786D01*
X220131048Y-143768386D01*
X220038114Y-143950776D01*
X219974855Y-144145465D01*
X219942833Y-144347648D01*
X219942833Y-144552351D01*
X219974855Y-144754534D01*
X220038114Y-144949223D01*
X220102024Y-145074653D01*
X220130491Y-145130521D01*
X220131048Y-145131613D01*
X220251361Y-145297213D01*
X220396119Y-145441971D01*
X220501752Y-145518716D01*
X220561723Y-145562287D01*
X220677940Y-145621503D01*
X220744109Y-145655218D01*
X220744111Y-145655218D01*
X220744114Y-145655220D01*
X220816843Y-145678851D01*
X220938798Y-145718477D01*
X221039890Y-145734488D01*
X221140981Y-145750500D01*
X221140982Y-145750500D01*
X221345684Y-145750500D01*
X221345685Y-145750500D01*
X221547867Y-145718477D01*
X221742552Y-145655220D01*
X221924943Y-145562287D01*
X222044396Y-145475500D01*
X222090546Y-145441971D01*
X222090548Y-145441968D01*
X222090552Y-145441966D01*
X222235299Y-145297219D01*
X222235301Y-145297215D01*
X222235304Y-145297213D01*
X222310542Y-145193655D01*
X222355620Y-145131610D01*
X222448553Y-144949219D01*
X222511810Y-144754534D01*
X222543833Y-144552352D01*
X222543833Y-144347648D01*
X222511810Y-144145466D01*
X222511692Y-144145104D01*
X222470649Y-144018786D01*
X222448553Y-143950781D01*
X222448551Y-143950778D01*
X222448551Y-143950776D01*
X222397895Y-143851360D01*
X222355620Y-143768390D01*
X222314392Y-143711644D01*
X222235304Y-143602786D01*
X222090550Y-143458032D01*
X222090545Y-143458028D01*
X222044948Y-143424900D01*
X222002282Y-143369571D01*
X221993833Y-143324582D01*
X221993833Y-142348766D01*
X222013518Y-142281727D01*
X222066322Y-142235972D01*
X222135480Y-142226028D01*
X222142025Y-142227149D01*
X222259413Y-142250500D01*
X222259416Y-142250500D01*
X222407253Y-142250500D01*
X222504795Y-142231096D01*
X222552246Y-142221658D01*
X222688828Y-142165084D01*
X222754211Y-142121396D01*
X222820889Y-142100520D01*
X222823101Y-142100500D01*
X226733236Y-142100500D01*
X226762676Y-142109144D01*
X226792663Y-142115668D01*
X226797678Y-142119422D01*
X226800275Y-142120185D01*
X226820917Y-142136819D01*
X226996514Y-142312416D01*
X227029999Y-142373739D01*
X227032833Y-142400097D01*
X227032833Y-144563330D01*
X227032832Y-144563348D01*
X227032832Y-144729054D01*
X227032831Y-144729054D01*
X227073756Y-144881786D01*
X227084560Y-144900497D01*
X227084561Y-144900502D01*
X227084562Y-144900502D01*
X227152808Y-145018709D01*
X227152812Y-145018714D01*
X227152813Y-145018716D01*
X227264617Y-145130520D01*
X227264618Y-145130521D01*
X227764617Y-145630520D01*
X227764619Y-145630521D01*
X227764623Y-145630524D01*
X227901542Y-145709573D01*
X227901545Y-145709575D01*
X227901549Y-145709577D01*
X228054276Y-145750501D01*
X228054278Y-145750501D01*
X228219987Y-145750501D01*
X228220003Y-145750500D01*
X232046664Y-145750500D01*
X232046680Y-145750501D01*
X232054276Y-145750501D01*
X232212387Y-145750501D01*
X232212390Y-145750501D01*
X232365118Y-145709577D01*
X232418352Y-145678842D01*
X232502049Y-145630520D01*
X232613853Y-145518716D01*
X232613853Y-145518714D01*
X232624057Y-145508511D01*
X232624061Y-145508506D01*
X232889586Y-145242980D01*
X232950907Y-145209497D01*
X233020599Y-145214481D01*
X233064946Y-145242981D01*
X233139677Y-145317712D01*
X233288999Y-145409814D01*
X233455536Y-145464999D01*
X233558324Y-145475500D01*
X234608341Y-145475499D01*
X234608349Y-145475498D01*
X234608352Y-145475498D01*
X234664635Y-145469748D01*
X234711130Y-145464999D01*
X234877667Y-145409814D01*
X235026989Y-145317712D01*
X235151045Y-145193656D01*
X235243147Y-145044334D01*
X235244379Y-145040615D01*
X235245917Y-145038393D01*
X235246202Y-145037783D01*
X235246306Y-145037831D01*
X235249036Y-145033886D01*
X235250367Y-145025809D01*
X235268632Y-145005579D01*
X235284146Y-144983169D01*
X235292911Y-144978689D01*
X235297191Y-144973950D01*
X235328782Y-144960358D01*
X235329588Y-144959947D01*
X235329671Y-144959924D01*
X235377618Y-144947077D01*
X235378187Y-144946748D01*
X235386480Y-144944496D01*
X235413792Y-144945053D01*
X235440961Y-144942125D01*
X235449360Y-144945779D01*
X235456335Y-144945922D01*
X235468550Y-144954129D01*
X235493290Y-144964894D01*
X235498503Y-144968797D01*
X235565155Y-144993656D01*
X235633350Y-145019091D01*
X235692960Y-145025500D01*
X236418705Y-145025499D01*
X236478316Y-145019091D01*
X236613164Y-144968796D01*
X236728379Y-144882546D01*
X236814629Y-144767331D01*
X236864924Y-144632483D01*
X236871333Y-144572873D01*
X236871332Y-144027128D01*
X236864924Y-143967517D01*
X236827929Y-143868330D01*
X236822946Y-143798642D01*
X236827925Y-143781680D01*
X236864924Y-143682483D01*
X236871333Y-143622873D01*
X236871332Y-143077128D01*
X236864924Y-143017517D01*
X236827930Y-142918332D01*
X236814630Y-142882671D01*
X236814626Y-142882664D01*
X236728380Y-142767455D01*
X236728377Y-142767452D01*
X236613168Y-142681206D01*
X236613161Y-142681202D01*
X236478319Y-142630910D01*
X236478318Y-142630909D01*
X236478316Y-142630909D01*
X236418706Y-142624500D01*
X236418696Y-142624500D01*
X235692962Y-142624500D01*
X235692956Y-142624501D01*
X235633349Y-142630908D01*
X235498504Y-142681202D01*
X235498502Y-142681203D01*
X235440311Y-142724766D01*
X235374847Y-142749183D01*
X235366000Y-142749499D01*
X235254276Y-142749499D01*
X235101548Y-142790423D01*
X235101546Y-142790424D01*
X235080114Y-142802796D01*
X235080115Y-142802797D01*
X234964620Y-142869477D01*
X234964615Y-142869481D01*
X234665314Y-143168782D01*
X234665310Y-143168787D01*
X234625639Y-143237500D01*
X234575072Y-143285716D01*
X234518252Y-143299500D01*
X233558331Y-143299500D01*
X233558313Y-143299501D01*
X233455536Y-143310000D01*
X233455533Y-143310001D01*
X233289001Y-143365185D01*
X233288996Y-143365187D01*
X233139675Y-143457289D01*
X233015620Y-143581344D01*
X232979205Y-143640384D01*
X232935248Y-143711651D01*
X232925105Y-143728095D01*
X232873157Y-143774820D01*
X232824818Y-143785805D01*
X232824836Y-143785938D01*
X232823406Y-143786126D01*
X232819566Y-143786999D01*
X232816776Y-143786999D01*
X232709420Y-143815765D01*
X232664043Y-143827924D01*
X232664042Y-143827925D01*
X232613931Y-143856857D01*
X232613928Y-143856860D01*
X232572947Y-143880520D01*
X232527118Y-143906979D01*
X232527115Y-143906981D01*
X232466586Y-143967511D01*
X232415313Y-144018784D01*
X232415311Y-144018786D01*
X232153151Y-144280947D01*
X231920917Y-144513181D01*
X231859594Y-144546666D01*
X231833236Y-144549500D01*
X230890433Y-144549500D01*
X230823394Y-144529815D01*
X230777639Y-144477011D01*
X230767695Y-144407853D01*
X230796720Y-144344297D01*
X230817548Y-144325182D01*
X230878435Y-144280945D01*
X231014278Y-144145102D01*
X231118528Y-144001613D01*
X231173858Y-143958949D01*
X231218846Y-143950500D01*
X231796664Y-143950500D01*
X231796680Y-143950501D01*
X231804276Y-143950501D01*
X231962387Y-143950501D01*
X231962390Y-143950501D01*
X232115118Y-143909577D01*
X232165446Y-143880520D01*
X232165447Y-143880520D01*
X232252042Y-143830524D01*
X232252041Y-143830524D01*
X232252049Y-143830520D01*
X232363853Y-143718716D01*
X232363854Y-143718714D01*
X232863853Y-143218716D01*
X232942910Y-143081784D01*
X232983834Y-142929057D01*
X232983834Y-142770942D01*
X232983834Y-142763347D01*
X232983833Y-142763329D01*
X232983833Y-141824500D01*
X233003518Y-141757461D01*
X233056322Y-141711706D01*
X233107833Y-141700500D01*
X237903116Y-141700500D01*
X237970155Y-141720185D01*
X238015910Y-141772989D01*
X238025854Y-141842147D01*
X238002383Y-141898811D01*
X237977037Y-141932668D01*
X237977037Y-141932669D01*
X237926742Y-142067517D01*
X237920333Y-142127127D01*
X237920333Y-142127134D01*
X237920333Y-142127135D01*
X237920333Y-142672870D01*
X237920334Y-142672876D01*
X237926742Y-142732484D01*
X237963734Y-142831668D01*
X237968718Y-142901360D01*
X237963734Y-142918332D01*
X237926743Y-143017511D01*
X237926742Y-143017515D01*
X237926742Y-143017517D01*
X237920333Y-143077127D01*
X237920333Y-143077134D01*
X237920333Y-143077135D01*
X237920333Y-143622870D01*
X237920334Y-143622876D01*
X237926742Y-143682484D01*
X237963734Y-143781668D01*
X237968718Y-143851360D01*
X237963734Y-143868332D01*
X237926743Y-143967511D01*
X237926742Y-143967515D01*
X237926742Y-143967517D01*
X237920333Y-144027127D01*
X237920333Y-144027134D01*
X237920333Y-144027135D01*
X237920333Y-144572870D01*
X237920334Y-144572876D01*
X237926741Y-144632483D01*
X237977035Y-144767328D01*
X237977039Y-144767335D01*
X238063285Y-144882544D01*
X238063288Y-144882547D01*
X238178496Y-144968792D01*
X238178498Y-144968793D01*
X238178502Y-144968796D01*
X238178506Y-144968797D01*
X238179530Y-144969357D01*
X238180363Y-144970190D01*
X238185602Y-144974112D01*
X238185038Y-144974865D01*
X238228936Y-145018761D01*
X238243790Y-145087033D01*
X238223209Y-145147081D01*
X238173941Y-145220816D01*
X238173935Y-145220827D01*
X238113597Y-145366498D01*
X238113594Y-145366510D01*
X238082833Y-145521153D01*
X238082833Y-145678846D01*
X238113594Y-145833489D01*
X238113597Y-145833501D01*
X238173935Y-145979172D01*
X238173942Y-145979185D01*
X238261543Y-146110288D01*
X238261546Y-146110292D01*
X238373040Y-146221786D01*
X238373044Y-146221789D01*
X238504147Y-146309390D01*
X238504160Y-146309397D01*
X238649831Y-146369735D01*
X238649836Y-146369737D01*
X238804486Y-146400499D01*
X238804489Y-146400500D01*
X238804491Y-146400500D01*
X238962177Y-146400500D01*
X238962178Y-146400499D01*
X239116830Y-146369737D01*
X239262512Y-146309394D01*
X239262518Y-146309390D01*
X239394208Y-146221398D01*
X239460886Y-146200520D01*
X239463099Y-146200500D01*
X240946664Y-146200500D01*
X240946680Y-146200501D01*
X240954276Y-146200501D01*
X241112387Y-146200501D01*
X241112390Y-146200501D01*
X241265118Y-146159577D01*
X241315237Y-146130639D01*
X241402049Y-146080520D01*
X241513853Y-145968716D01*
X241513853Y-145968714D01*
X241524061Y-145958507D01*
X241524063Y-145958504D01*
X241754339Y-145728228D01*
X241754344Y-145728224D01*
X241764547Y-145718020D01*
X241764549Y-145718020D01*
X241876353Y-145606216D01*
X241955410Y-145469284D01*
X241984178Y-145361916D01*
X242020542Y-145302260D01*
X242064945Y-145276308D01*
X242190167Y-145234814D01*
X242339489Y-145142712D01*
X242463545Y-145018656D01*
X242523222Y-144921902D01*
X242530809Y-144915078D01*
X242535048Y-144905797D01*
X242556347Y-144892108D01*
X242575170Y-144875179D01*
X242586805Y-144872534D01*
X242593826Y-144868023D01*
X242628761Y-144863000D01*
X242703325Y-144863000D01*
X242770364Y-144882685D01*
X242808862Y-144921901D01*
X242853121Y-144993656D01*
X242977177Y-145117712D01*
X243126499Y-145209814D01*
X243293036Y-145264999D01*
X243395824Y-145275500D01*
X244395841Y-145275499D01*
X244395849Y-145275498D01*
X244395852Y-145275498D01*
X244452135Y-145269748D01*
X244498630Y-145264999D01*
X244665167Y-145209814D01*
X244814489Y-145117712D01*
X244938545Y-144993656D01*
X244982803Y-144921902D01*
X245034750Y-144875179D01*
X245088341Y-144863000D01*
X245534164Y-144863000D01*
X245534180Y-144863001D01*
X245541776Y-144863001D01*
X245699887Y-144863001D01*
X245699890Y-144863001D01*
X245852618Y-144822077D01*
X245924598Y-144780519D01*
X245989549Y-144743020D01*
X246101353Y-144631216D01*
X246101353Y-144631214D01*
X246111557Y-144621011D01*
X246111561Y-144621006D01*
X246841839Y-143890728D01*
X246841844Y-143890724D01*
X246852047Y-143880520D01*
X246852049Y-143880520D01*
X246963853Y-143768716D01*
X247040591Y-143635801D01*
X247042910Y-143631785D01*
X247083833Y-143479058D01*
X247083833Y-143320943D01*
X247083833Y-140170943D01*
X247078356Y-140150500D01*
X247042910Y-140018215D01*
X247013972Y-139968095D01*
X246963853Y-139881284D01*
X246852049Y-139769480D01*
X246852048Y-139769479D01*
X246847718Y-139765149D01*
X246847707Y-139765139D01*
X246070923Y-138988355D01*
X246070921Y-138988352D01*
X245952050Y-138869481D01*
X245952049Y-138869480D01*
X245865237Y-138819360D01*
X245865237Y-138819359D01*
X245865233Y-138819358D01*
X245815118Y-138790423D01*
X245662390Y-138749499D01*
X245504276Y-138749499D01*
X245496680Y-138749499D01*
X245496664Y-138749500D01*
X245255929Y-138749500D01*
X245188890Y-138729815D01*
X245155611Y-138698386D01*
X245152856Y-138694594D01*
X245037161Y-138535354D01*
X244897979Y-138396172D01*
X244738738Y-138280476D01*
X244563362Y-138191117D01*
X244376159Y-138130290D01*
X244181755Y-138099500D01*
X244181750Y-138099500D01*
X243984916Y-138099500D01*
X243984911Y-138099500D01*
X243790506Y-138130290D01*
X243603303Y-138191117D01*
X243427927Y-138280476D01*
X243350131Y-138336999D01*
X243268687Y-138396172D01*
X243268685Y-138396174D01*
X243268684Y-138396174D01*
X243129507Y-138535351D01*
X243129507Y-138535352D01*
X243129505Y-138535354D01*
X243079818Y-138603741D01*
X243013809Y-138694594D01*
X242924450Y-138869970D01*
X242863624Y-139057172D01*
X242843771Y-139182508D01*
X242843769Y-139182530D01*
X242832833Y-139251583D01*
X242832833Y-139372463D01*
X242832833Y-139448422D01*
X242863623Y-139642826D01*
X242924450Y-139830029D01*
X243007640Y-139993297D01*
X243013809Y-140005405D01*
X243129505Y-140164646D01*
X243268687Y-140303828D01*
X243427928Y-140419524D01*
X243487702Y-140449980D01*
X243603303Y-140508882D01*
X243603305Y-140508882D01*
X243603308Y-140508884D01*
X243703650Y-140541487D01*
X243790506Y-140569709D01*
X243984911Y-140600500D01*
X243984916Y-140600500D01*
X244181755Y-140600500D01*
X244376159Y-140569709D01*
X244407582Y-140559499D01*
X244563358Y-140508884D01*
X244738738Y-140419524D01*
X244897979Y-140303828D01*
X245037161Y-140164646D01*
X245152857Y-140005405D01*
X245152857Y-140005403D01*
X245155611Y-140001614D01*
X245159943Y-139998273D01*
X245162216Y-139993297D01*
X245187315Y-139977166D01*
X245210941Y-139958949D01*
X245217612Y-139957696D01*
X245220994Y-139955523D01*
X245255929Y-139950500D01*
X245283236Y-139950500D01*
X245350275Y-139970185D01*
X245370917Y-139986819D01*
X245846514Y-140462416D01*
X245879999Y-140523739D01*
X245882833Y-140550097D01*
X245882833Y-143099903D01*
X245863148Y-143166942D01*
X245846514Y-143187584D01*
X245408417Y-143625681D01*
X245381489Y-143640384D01*
X245355671Y-143656977D01*
X245349470Y-143657868D01*
X245347094Y-143659166D01*
X245320736Y-143662000D01*
X245088341Y-143662000D01*
X245021302Y-143642315D01*
X244982802Y-143603097D01*
X244938545Y-143531344D01*
X244844882Y-143437681D01*
X244811397Y-143376358D01*
X244816381Y-143306666D01*
X244844882Y-143262319D01*
X244888492Y-143218709D01*
X244938545Y-143168656D01*
X245030647Y-143019334D01*
X245085832Y-142852797D01*
X245096333Y-142750009D01*
X245096332Y-142124992D01*
X245090460Y-142067513D01*
X245085832Y-142022203D01*
X245085831Y-142022200D01*
X245056163Y-141932668D01*
X245030647Y-141855666D01*
X244938545Y-141706344D01*
X244814489Y-141582288D01*
X244665167Y-141490186D01*
X244498630Y-141435001D01*
X244498628Y-141435000D01*
X244395843Y-141424500D01*
X243395831Y-141424500D01*
X243395813Y-141424501D01*
X243293036Y-141435000D01*
X243293033Y-141435001D01*
X243126501Y-141490185D01*
X243126496Y-141490187D01*
X242977175Y-141582289D01*
X242853122Y-141706342D01*
X242853121Y-141706344D01*
X242837738Y-141731285D01*
X242831994Y-141740597D01*
X242824406Y-141747421D01*
X242820168Y-141756703D01*
X242798868Y-141770391D01*
X242780046Y-141787321D01*
X242768410Y-141789965D01*
X242761390Y-141794477D01*
X242726455Y-141799500D01*
X242605631Y-141799500D01*
X242538592Y-141779815D01*
X242500092Y-141740597D01*
X242463545Y-141681344D01*
X242444738Y-141662537D01*
X242411253Y-141601214D01*
X242416237Y-141531522D01*
X242435155Y-141497942D01*
X242438537Y-141493663D01*
X242438545Y-141493656D01*
X242530647Y-141344334D01*
X242585832Y-141177797D01*
X242596333Y-141075009D01*
X242596332Y-140449992D01*
X242585832Y-140347203D01*
X242530647Y-140180666D01*
X242438545Y-140031344D01*
X242344882Y-139937681D01*
X242311397Y-139876358D01*
X242316381Y-139806666D01*
X242344882Y-139762319D01*
X242438545Y-139668656D01*
X242530647Y-139519334D01*
X242585832Y-139352797D01*
X242596333Y-139250009D01*
X242596332Y-138624992D01*
X242585832Y-138522203D01*
X242530647Y-138355666D01*
X242438545Y-138206344D01*
X242314489Y-138082288D01*
X242170796Y-137993658D01*
X242165169Y-137990187D01*
X242165164Y-137990185D01*
X242158537Y-137987989D01*
X241998630Y-137935001D01*
X241998628Y-137935000D01*
X241895843Y-137924500D01*
X240895831Y-137924500D01*
X240895813Y-137924501D01*
X240793036Y-137935000D01*
X240793033Y-137935001D01*
X240626501Y-137990185D01*
X240626496Y-137990187D01*
X240477175Y-138082289D01*
X240353121Y-138206343D01*
X240353118Y-138206347D01*
X240308393Y-138278858D01*
X240256445Y-138325583D01*
X240219051Y-138336699D01*
X240216781Y-138336998D01*
X240216777Y-138336999D01*
X240216776Y-138336999D01*
X240157518Y-138352877D01*
X240064047Y-138377923D01*
X240064042Y-138377926D01*
X239927123Y-138456975D01*
X239927115Y-138456981D01*
X239764619Y-138619477D01*
X239764618Y-138619479D01*
X239764617Y-138619480D01*
X239716971Y-138667126D01*
X239671111Y-138712986D01*
X239609787Y-138746470D01*
X239540096Y-138741486D01*
X239484162Y-138699614D01*
X239477891Y-138690401D01*
X239446361Y-138639282D01*
X239426045Y-138606344D01*
X239301989Y-138482288D01*
X239301988Y-138482287D01*
X239177558Y-138405539D01*
X239130833Y-138353591D01*
X239119610Y-138284629D01*
X239147453Y-138220547D01*
X239177558Y-138194461D01*
X239301989Y-138117712D01*
X239426045Y-137993656D01*
X239518147Y-137844334D01*
X239573332Y-137677797D01*
X239583833Y-137575009D01*
X239583832Y-136524992D01*
X239573332Y-136422203D01*
X239518147Y-136255666D01*
X239426045Y-136106344D01*
X239398920Y-136079219D01*
X239365435Y-136017896D01*
X239363948Y-135982185D01*
X239363833Y-135982185D01*
X239363833Y-135979426D01*
X239363663Y-135975344D01*
X239363831Y-135974060D01*
X239363833Y-135974057D01*
X239363833Y-135815943D01*
X239363833Y-135676764D01*
X239383518Y-135609725D01*
X239393847Y-135596908D01*
X239393836Y-135596900D01*
X239462403Y-135507541D01*
X239491031Y-135470233D01*
X239549020Y-135330236D01*
X239563833Y-135217720D01*
X239563833Y-133322280D01*
X239549020Y-133209764D01*
X239491031Y-133069767D01*
X239398784Y-132949549D01*
X239278566Y-132857302D01*
X239278562Y-132857300D01*
X239211379Y-132829472D01*
X239138569Y-132799313D01*
X239124504Y-132797461D01*
X239026060Y-132784500D01*
X239026053Y-132784500D01*
X238500613Y-132784500D01*
X238500605Y-132784500D01*
X238388097Y-132799313D01*
X238388096Y-132799313D01*
X238248103Y-132857300D01*
X238248100Y-132857301D01*
X238248100Y-132857302D01*
X238127882Y-132949549D01*
X238052428Y-133047883D01*
X238035633Y-133069770D01*
X237977646Y-133209763D01*
X237977646Y-133209764D01*
X237962833Y-133322272D01*
X237962833Y-135217727D01*
X237977646Y-135330235D01*
X237977646Y-135330236D01*
X238035633Y-135470230D01*
X238035635Y-135470233D01*
X238101089Y-135555535D01*
X238113051Y-135586477D01*
X238125921Y-135617032D01*
X238125592Y-135618917D01*
X238126283Y-135620704D01*
X238119621Y-135653181D01*
X238113926Y-135685864D01*
X238112513Y-135687835D01*
X238112244Y-135689149D01*
X238093970Y-135714975D01*
X238092222Y-135716874D01*
X238015313Y-135793784D01*
X238004941Y-135811748D01*
X237995662Y-135821835D01*
X237976989Y-135833064D01*
X237961222Y-135848098D01*
X237943410Y-135855587D01*
X237838999Y-135890186D01*
X237689675Y-135982289D01*
X237565618Y-136106346D01*
X237563870Y-136109182D01*
X237562162Y-136110717D01*
X237561140Y-136112011D01*
X237560918Y-136111836D01*
X237511922Y-136155905D01*
X237442959Y-136167126D01*
X237378877Y-136139282D01*
X237352796Y-136109182D01*
X237351047Y-136106346D01*
X237226990Y-135982289D01*
X237226989Y-135982288D01*
X237077667Y-135890186D01*
X237008950Y-135867415D01*
X236990097Y-135854362D01*
X236969016Y-135845337D01*
X236957640Y-135831889D01*
X236951507Y-135827643D01*
X236945273Y-135819223D01*
X236942783Y-135815544D01*
X236901353Y-135743784D01*
X236879219Y-135721650D01*
X236872585Y-135711850D01*
X236865402Y-135689390D01*
X236854102Y-135668695D01*
X236854957Y-135656728D01*
X236851303Y-135645300D01*
X236857404Y-135622521D01*
X236859086Y-135599003D01*
X236868028Y-135582856D01*
X236869380Y-135577810D01*
X236872286Y-135575166D01*
X236876890Y-135566853D01*
X236951031Y-135470233D01*
X237009020Y-135330236D01*
X237023833Y-135217720D01*
X237023833Y-133322280D01*
X237009020Y-133209764D01*
X236951031Y-133069767D01*
X236858784Y-132949549D01*
X236738566Y-132857302D01*
X236738562Y-132857300D01*
X236671379Y-132829472D01*
X236598569Y-132799313D01*
X236584504Y-132797461D01*
X236486060Y-132784500D01*
X236486053Y-132784500D01*
X235960613Y-132784500D01*
X235960605Y-132784500D01*
X235848097Y-132799313D01*
X235848096Y-132799313D01*
X235708099Y-132857301D01*
X235663819Y-132891279D01*
X235598649Y-132916473D01*
X235530204Y-132902434D01*
X235512847Y-132891279D01*
X235468566Y-132857301D01*
X235369572Y-132816297D01*
X235328569Y-132799313D01*
X235314504Y-132797461D01*
X235216060Y-132784500D01*
X235216053Y-132784500D01*
X234690613Y-132784500D01*
X234690605Y-132784500D01*
X234578097Y-132799313D01*
X234578093Y-132799314D01*
X234505285Y-132829472D01*
X234435816Y-132836941D01*
X234373337Y-132805665D01*
X234337685Y-132745576D01*
X234333833Y-132714911D01*
X234333833Y-131950097D01*
X234353518Y-131883058D01*
X234370152Y-131862416D01*
X235433849Y-130798720D01*
X235433849Y-130798719D01*
X235433853Y-130798716D01*
X235451974Y-130767326D01*
X235457470Y-130761059D01*
X235459217Y-130756202D01*
X235483871Y-130730953D01*
X235512847Y-130708719D01*
X235578015Y-130683526D01*
X235646460Y-130697565D01*
X235663818Y-130708720D01*
X235692790Y-130730950D01*
X235708100Y-130742698D01*
X235848097Y-130800687D01*
X235960613Y-130815500D01*
X235960620Y-130815500D01*
X236486046Y-130815500D01*
X236486053Y-130815500D01*
X236598569Y-130800687D01*
X236738566Y-130742698D01*
X236858784Y-130650451D01*
X236951031Y-130530233D01*
X237009020Y-130390236D01*
X237023833Y-130277720D01*
X237023833Y-128382280D01*
X237009020Y-128269764D01*
X236951031Y-128129767D01*
X236858784Y-128009549D01*
X236738566Y-127917302D01*
X236738562Y-127917300D01*
X236665428Y-127887007D01*
X236598569Y-127859313D01*
X236584504Y-127857461D01*
X236486060Y-127844500D01*
X236486053Y-127844500D01*
X235960613Y-127844500D01*
X235960605Y-127844500D01*
X235848097Y-127859313D01*
X235848093Y-127859314D01*
X235723763Y-127910813D01*
X235654294Y-127918282D01*
X235591815Y-127887007D01*
X235556163Y-127826917D01*
X235554598Y-127818797D01*
X235553834Y-127815945D01*
X235553834Y-127815943D01*
X235512910Y-127663215D01*
X235473240Y-127594505D01*
X235433853Y-127526284D01*
X235322049Y-127414480D01*
X235322048Y-127414479D01*
X235317718Y-127410149D01*
X235317707Y-127410139D01*
X235295923Y-127388355D01*
X235295921Y-127388352D01*
X235177050Y-127269481D01*
X235177049Y-127269480D01*
X235090237Y-127219360D01*
X235090237Y-127219359D01*
X235090233Y-127219358D01*
X235040118Y-127190423D01*
X234887390Y-127149499D01*
X234729276Y-127149499D01*
X234721680Y-127149499D01*
X234721664Y-127149500D01*
X234082429Y-127149500D01*
X234015390Y-127129815D01*
X233969635Y-127077011D01*
X233959691Y-127007853D01*
X233988716Y-126944297D01*
X233994748Y-126937819D01*
X234118033Y-126814534D01*
X234241839Y-126690728D01*
X234241844Y-126690724D01*
X234252047Y-126680520D01*
X234252049Y-126680520D01*
X234363853Y-126568716D01*
X234428476Y-126456785D01*
X234442910Y-126431785D01*
X234483833Y-126279058D01*
X234483833Y-126120943D01*
X234483833Y-125976470D01*
X234486058Y-125968892D01*
X234484790Y-125961098D01*
X234495761Y-125935846D01*
X234503518Y-125909431D01*
X234509485Y-125904260D01*
X234512633Y-125897016D01*
X234535517Y-125881703D01*
X234556322Y-125863676D01*
X234564138Y-125862552D01*
X234570702Y-125858160D01*
X234598227Y-125857650D01*
X234625480Y-125853732D01*
X234634441Y-125856980D01*
X234640559Y-125856867D01*
X234672923Y-125870928D01*
X234698931Y-125886970D01*
X234745655Y-125938916D01*
X234757833Y-125992507D01*
X234757833Y-126088330D01*
X234757832Y-126088348D01*
X234757832Y-126254054D01*
X234757831Y-126254054D01*
X234764531Y-126279057D01*
X234798756Y-126406785D01*
X234798757Y-126406786D01*
X234813189Y-126431785D01*
X234813190Y-126431786D01*
X234877808Y-126543709D01*
X234877814Y-126543717D01*
X234996682Y-126662585D01*
X234996688Y-126662590D01*
X235598472Y-127264374D01*
X235598482Y-127264385D01*
X235602812Y-127268715D01*
X235602813Y-127268716D01*
X235714617Y-127380520D01*
X235797576Y-127428416D01*
X235797577Y-127428417D01*
X235851542Y-127459574D01*
X235851543Y-127459575D01*
X235851545Y-127459575D01*
X235851548Y-127459577D01*
X236004276Y-127500501D01*
X236004279Y-127500501D01*
X236169986Y-127500501D01*
X236170002Y-127500500D01*
X237733236Y-127500500D01*
X237800275Y-127520185D01*
X237820917Y-127536819D01*
X238123083Y-127838985D01*
X238156568Y-127900308D01*
X238151584Y-127970000D01*
X238131150Y-128001813D01*
X238132830Y-128003102D01*
X238127884Y-128009547D01*
X238127882Y-128009549D01*
X238036180Y-128129057D01*
X238035633Y-128129770D01*
X237977646Y-128269763D01*
X237977646Y-128269764D01*
X237962833Y-128382272D01*
X237962833Y-130277727D01*
X237977646Y-130390235D01*
X237977646Y-130390236D01*
X238035146Y-130529054D01*
X238035635Y-130530233D01*
X238127882Y-130650451D01*
X238248100Y-130742698D01*
X238388097Y-130800687D01*
X238500613Y-130815500D01*
X238500620Y-130815500D01*
X239026046Y-130815500D01*
X239026053Y-130815500D01*
X239138569Y-130800687D01*
X239278566Y-130742698D01*
X239398784Y-130650451D01*
X239491031Y-130530233D01*
X239549020Y-130390236D01*
X239563833Y-130277720D01*
X239563833Y-128382280D01*
X239551774Y-128290684D01*
X239562539Y-128221651D01*
X239608919Y-128169395D01*
X239674713Y-128150500D01*
X242683732Y-128150500D01*
X242750771Y-128170185D01*
X242796526Y-128222989D01*
X242806470Y-128292147D01*
X242789271Y-128339594D01*
X242773150Y-128365730D01*
X242748520Y-128405663D01*
X242748519Y-128405666D01*
X242693334Y-128572203D01*
X242693334Y-128572204D01*
X242693333Y-128572204D01*
X242682833Y-128674983D01*
X242682833Y-129725001D01*
X242682834Y-129725019D01*
X242693333Y-129827796D01*
X242693334Y-129827799D01*
X242748518Y-129994331D01*
X242748520Y-129994336D01*
X242783402Y-130050888D01*
X242840621Y-130143656D01*
X242964677Y-130267712D01*
X243111430Y-130358229D01*
X243158153Y-130410174D01*
X243170332Y-130463766D01*
X243170332Y-130529054D01*
X243170331Y-130529054D01*
X243211256Y-130681786D01*
X243212261Y-130683526D01*
X243222062Y-130700501D01*
X243229569Y-130713503D01*
X243235207Y-130736748D01*
X243246040Y-130781400D01*
X243223188Y-130847427D01*
X243223185Y-130847429D01*
X243223185Y-130847430D01*
X243210554Y-130857362D01*
X243168266Y-130890618D01*
X243168262Y-130890618D01*
X243168262Y-130890619D01*
X243168259Y-130890619D01*
X243122183Y-130899500D01*
X243085464Y-130899500D01*
X243085456Y-130899501D01*
X243025849Y-130905908D01*
X242891004Y-130956202D01*
X242890997Y-130956206D01*
X242775788Y-131042452D01*
X242775785Y-131042455D01*
X242689539Y-131157664D01*
X242689535Y-131157671D01*
X242639241Y-131292517D01*
X242632834Y-131352116D01*
X242632833Y-131352128D01*
X242632833Y-133047870D01*
X242632834Y-133047876D01*
X242639241Y-133107483D01*
X242689535Y-133242328D01*
X242689539Y-133242335D01*
X242775785Y-133357544D01*
X242775788Y-133357547D01*
X242890997Y-133443793D01*
X242891004Y-133443797D01*
X243025850Y-133494091D01*
X243025849Y-133494091D01*
X243032777Y-133494835D01*
X243085460Y-133500500D01*
X245381205Y-133500499D01*
X245440816Y-133494091D01*
X245575664Y-133443796D01*
X245690879Y-133357546D01*
X245777129Y-133242331D01*
X245827424Y-133107483D01*
X245833833Y-133047873D01*
X245833832Y-131352128D01*
X245827424Y-131292517D01*
X245823234Y-131281284D01*
X245777130Y-131157671D01*
X245777126Y-131157664D01*
X245690880Y-131042455D01*
X245690877Y-131042452D01*
X245575668Y-130956206D01*
X245575661Y-130956202D01*
X245440815Y-130905908D01*
X245440816Y-130905908D01*
X245381216Y-130899501D01*
X245381214Y-130899500D01*
X245381206Y-130899500D01*
X245381198Y-130899500D01*
X244946682Y-130899500D01*
X244879643Y-130879815D01*
X244833888Y-130827011D01*
X244826909Y-130807600D01*
X244792910Y-130680716D01*
X244780706Y-130659577D01*
X244713857Y-130543790D01*
X244713855Y-130543787D01*
X244713854Y-130543786D01*
X244713853Y-130543784D01*
X244595063Y-130424994D01*
X244561580Y-130363675D01*
X244566564Y-130293983D01*
X244595061Y-130249639D01*
X244701045Y-130143656D01*
X244793147Y-129994334D01*
X244829212Y-129885494D01*
X244868985Y-129828051D01*
X244933500Y-129801228D01*
X244946918Y-129800500D01*
X245246664Y-129800500D01*
X245246680Y-129800501D01*
X245254276Y-129800501D01*
X245412387Y-129800501D01*
X245412390Y-129800501D01*
X245565118Y-129759577D01*
X245635891Y-129718716D01*
X245702049Y-129680520D01*
X245813853Y-129568716D01*
X245813853Y-129568714D01*
X245824057Y-129558511D01*
X245824061Y-129558506D01*
X246491839Y-128890728D01*
X246491844Y-128890724D01*
X246502047Y-128880520D01*
X246502049Y-128880520D01*
X246613853Y-128768716D01*
X246667965Y-128674991D01*
X246686749Y-128642456D01*
X246686750Y-128642455D01*
X246689249Y-128638125D01*
X246692910Y-128631785D01*
X246733834Y-128479057D01*
X246733834Y-128320943D01*
X246733834Y-128313348D01*
X246733833Y-128313330D01*
X246733833Y-112789060D01*
X246733834Y-112789047D01*
X246733834Y-112620944D01*
X246726186Y-112592401D01*
X246692910Y-112468216D01*
X246692906Y-112468209D01*
X246613857Y-112331290D01*
X246613851Y-112331282D01*
X245320923Y-111038355D01*
X245320921Y-111038352D01*
X245202050Y-110919481D01*
X245202049Y-110919480D01*
X245115237Y-110869360D01*
X245115237Y-110869359D01*
X245115233Y-110869358D01*
X245065118Y-110840423D01*
X244912390Y-110799499D01*
X244754276Y-110799499D01*
X244746680Y-110799499D01*
X244746664Y-110799500D01*
X233562935Y-110799500D01*
X233495896Y-110779815D01*
X233452450Y-110731795D01*
X233445617Y-110718385D01*
X233325304Y-110552786D01*
X233180546Y-110408028D01*
X233014946Y-110287715D01*
X233014945Y-110287714D01*
X233014943Y-110287713D01*
X232957986Y-110258691D01*
X232832556Y-110194781D01*
X232637867Y-110131522D01*
X232463328Y-110103878D01*
X232435685Y-110099500D01*
X232230981Y-110099500D01*
X232206662Y-110103351D01*
X232028798Y-110131522D01*
X231834109Y-110194781D01*
X231651719Y-110287715D01*
X231486119Y-110408028D01*
X231341361Y-110552786D01*
X231221048Y-110718386D01*
X231128114Y-110900776D01*
X231064855Y-111095465D01*
X231032833Y-111297648D01*
X231032833Y-111502351D01*
X231064855Y-111704534D01*
X231128114Y-111899223D01*
X231221048Y-112081613D01*
X231341361Y-112247213D01*
X231486119Y-112391971D01*
X231641082Y-112504556D01*
X231651723Y-112512287D01*
X231767940Y-112571503D01*
X231834109Y-112605218D01*
X231834111Y-112605218D01*
X231834114Y-112605220D01*
X231935782Y-112638254D01*
X232028798Y-112668477D01*
X232129890Y-112684488D01*
X232230981Y-112700500D01*
X232230982Y-112700500D01*
X232435684Y-112700500D01*
X232435685Y-112700500D01*
X232637867Y-112668477D01*
X232832552Y-112605220D01*
X233014943Y-112512287D01*
X233107923Y-112444732D01*
X233180546Y-112391971D01*
X233180548Y-112391968D01*
X233180552Y-112391966D01*
X233325299Y-112247219D01*
X233325301Y-112247215D01*
X233325304Y-112247213D01*
X233445617Y-112081614D01*
X233445618Y-112081613D01*
X233445620Y-112081610D01*
X233452450Y-112068204D01*
X233500424Y-112017409D01*
X233562935Y-112000500D01*
X244533236Y-112000500D01*
X244600275Y-112020185D01*
X244620917Y-112036819D01*
X245496514Y-112912416D01*
X245529999Y-112973739D01*
X245532833Y-113000097D01*
X245532833Y-128099903D01*
X245513148Y-128166942D01*
X245496514Y-128187584D01*
X245120917Y-128563181D01*
X245093989Y-128577884D01*
X245068171Y-128594477D01*
X245061970Y-128595368D01*
X245059594Y-128596666D01*
X245033236Y-128599500D01*
X244946918Y-128599500D01*
X244879879Y-128579815D01*
X244834124Y-128527011D01*
X244829212Y-128514504D01*
X244826364Y-128505908D01*
X244793147Y-128405666D01*
X244701045Y-128256344D01*
X244576989Y-128132288D01*
X244472915Y-128068095D01*
X244430237Y-128041771D01*
X244383513Y-127989823D01*
X244371334Y-127936232D01*
X244371334Y-127858444D01*
X244362886Y-127826917D01*
X244330410Y-127705716D01*
X244294101Y-127642826D01*
X244251357Y-127568790D01*
X244251351Y-127568782D01*
X243752050Y-127069481D01*
X243752049Y-127069480D01*
X243665237Y-127019360D01*
X243665237Y-127019359D01*
X243665233Y-127019358D01*
X243615118Y-126990423D01*
X243462390Y-126949499D01*
X243304276Y-126949499D01*
X243296680Y-126949499D01*
X243296664Y-126949500D01*
X242249738Y-126949500D01*
X242182699Y-126929815D01*
X242136944Y-126877011D01*
X242127000Y-126807853D01*
X242156025Y-126744297D01*
X242166078Y-126733974D01*
X242176046Y-126724862D01*
X242209549Y-126705520D01*
X242321353Y-126593716D01*
X242321353Y-126593714D01*
X242521353Y-126393716D01*
X242600410Y-126256784D01*
X242641334Y-126104057D01*
X242641334Y-126030300D01*
X242661019Y-125963261D01*
X242713823Y-125917506D01*
X242726322Y-125912597D01*
X242810167Y-125884814D01*
X242959489Y-125792712D01*
X243083545Y-125668656D01*
X243175647Y-125519334D01*
X243230832Y-125352797D01*
X243241333Y-125250009D01*
X243241332Y-124624992D01*
X243230832Y-124522203D01*
X243175647Y-124355666D01*
X243083545Y-124206344D01*
X242989882Y-124112681D01*
X242956397Y-124051358D01*
X242961381Y-123981666D01*
X242989882Y-123937319D01*
X243034106Y-123893095D01*
X243083545Y-123843656D01*
X243175647Y-123694334D01*
X243230832Y-123527797D01*
X243241333Y-123425009D01*
X243241332Y-122799992D01*
X243230832Y-122697203D01*
X243175647Y-122530666D01*
X243083545Y-122381344D01*
X242959489Y-122257288D01*
X242866721Y-122200069D01*
X242810169Y-122165187D01*
X242810159Y-122165183D01*
X242805485Y-122163634D01*
X242803533Y-122162282D01*
X242801164Y-122162113D01*
X242774957Y-122142494D01*
X242748043Y-122123857D01*
X242747131Y-122121663D01*
X242745231Y-122120241D01*
X242733794Y-122089578D01*
X242721225Y-122059339D01*
X242721643Y-122057000D01*
X242720814Y-122054776D01*
X242727771Y-122022792D01*
X242733545Y-121990564D01*
X242735318Y-121988101D01*
X242735666Y-121986504D01*
X242756811Y-121958256D01*
X242853251Y-121861816D01*
X242914573Y-121828334D01*
X242940930Y-121825500D01*
X243954164Y-121825500D01*
X243954180Y-121825501D01*
X243961776Y-121825501D01*
X244119887Y-121825501D01*
X244119890Y-121825501D01*
X244272618Y-121784577D01*
X244322737Y-121755639D01*
X244409549Y-121705520D01*
X244521353Y-121593716D01*
X244521353Y-121593714D01*
X244721353Y-121393716D01*
X244800410Y-121256784D01*
X244841334Y-121104057D01*
X244841334Y-120945942D01*
X244841334Y-120938347D01*
X244841333Y-120938329D01*
X244841333Y-116945943D01*
X244837099Y-116930144D01*
X244837098Y-116930139D01*
X244830367Y-116905018D01*
X244830367Y-116905019D01*
X244800410Y-116793216D01*
X244759926Y-116723095D01*
X244721357Y-116656290D01*
X244721354Y-116656286D01*
X244721353Y-116656284D01*
X244609549Y-116544480D01*
X244609548Y-116544479D01*
X244605218Y-116540149D01*
X244605207Y-116540139D01*
X244253423Y-116188355D01*
X244253421Y-116188352D01*
X244134550Y-116069481D01*
X244134549Y-116069480D01*
X244047737Y-116019360D01*
X244047737Y-116019359D01*
X244047733Y-116019358D01*
X243997618Y-115990423D01*
X243844890Y-115949499D01*
X243686776Y-115949499D01*
X243679180Y-115949499D01*
X243679164Y-115949500D01*
X235994890Y-115949500D01*
X235836776Y-115949500D01*
X235684048Y-115990423D01*
X235684047Y-115990423D01*
X235684045Y-115990424D01*
X235684042Y-115990425D01*
X235633929Y-116019359D01*
X235633928Y-116019360D01*
X235590522Y-116044420D01*
X235547118Y-116069479D01*
X235547115Y-116069481D01*
X234980314Y-116636282D01*
X234980312Y-116636285D01*
X234930194Y-116723094D01*
X234930192Y-116723096D01*
X234901258Y-116773209D01*
X234901257Y-116773210D01*
X234886465Y-116828416D01*
X234860332Y-116925943D01*
X234860332Y-116925945D01*
X234860332Y-117094046D01*
X234860333Y-117094059D01*
X234860333Y-117669191D01*
X234840648Y-117736230D01*
X234824014Y-117756872D01*
X234792756Y-117788129D01*
X234792750Y-117788137D01*
X234709088Y-117929603D01*
X234709087Y-117929606D01*
X234663235Y-118087426D01*
X234663234Y-118087432D01*
X234660333Y-118124298D01*
X234660333Y-119925701D01*
X234663234Y-119962567D01*
X234663235Y-119962573D01*
X234709087Y-120120393D01*
X234709088Y-120120396D01*
X234709089Y-120120398D01*
X234715147Y-120130641D01*
X234792750Y-120261862D01*
X234792756Y-120261870D01*
X234824013Y-120293126D01*
X234857499Y-120354448D01*
X234860333Y-120380808D01*
X234860333Y-121297865D01*
X234840648Y-121364904D01*
X234787844Y-121410659D01*
X234777470Y-121414733D01*
X234776496Y-121415187D01*
X234627175Y-121507289D01*
X234503122Y-121631342D01*
X234411020Y-121780663D01*
X234411018Y-121780668D01*
X234365714Y-121917387D01*
X234350120Y-121939908D01*
X234337497Y-121964218D01*
X234329506Y-121969681D01*
X234325941Y-121974832D01*
X234309689Y-121985953D01*
X234302196Y-121990249D01*
X234301548Y-121990423D01*
X234251428Y-122019360D01*
X234208022Y-122044420D01*
X234164618Y-122069479D01*
X234164615Y-122069481D01*
X233610514Y-122623583D01*
X233549191Y-122657068D01*
X233479499Y-122652084D01*
X233423566Y-122610212D01*
X233399149Y-122544748D01*
X233398833Y-122535902D01*
X233398833Y-120249997D01*
X233397156Y-120218716D01*
X233395936Y-120195959D01*
X233366471Y-120080520D01*
X233360354Y-120056555D01*
X233360353Y-120056553D01*
X233360352Y-120056548D01*
X233357423Y-120049477D01*
X233313325Y-119968717D01*
X233305637Y-119954637D01*
X233207597Y-119849332D01*
X233207596Y-119849331D01*
X233207594Y-119849329D01*
X233207591Y-119849327D01*
X233200692Y-119843768D01*
X233202353Y-119841705D01*
X233164135Y-119800649D01*
X233151735Y-119731888D01*
X233175758Y-119670840D01*
X233182129Y-119662331D01*
X233232424Y-119527483D01*
X233238833Y-119467873D01*
X233238833Y-119100501D01*
X233238833Y-117931082D01*
X233238833Y-117931079D01*
X233209992Y-117786092D01*
X233209991Y-117786091D01*
X233209991Y-117786087D01*
X233197890Y-117756872D01*
X233153420Y-117649511D01*
X233153410Y-117649493D01*
X233083385Y-117544692D01*
X233062507Y-117478015D01*
X233080947Y-117410708D01*
X233168147Y-117269334D01*
X233223332Y-117102797D01*
X233233833Y-117000009D01*
X233233832Y-115699992D01*
X233223332Y-115597203D01*
X233168147Y-115430666D01*
X233076045Y-115281344D01*
X232951989Y-115157288D01*
X232951985Y-115157285D01*
X232881701Y-115113933D01*
X232834976Y-115061985D01*
X232825181Y-115032586D01*
X232813864Y-114975694D01*
X232804991Y-114931087D01*
X232804989Y-114931082D01*
X232748420Y-114794511D01*
X232748413Y-114794498D01*
X232666285Y-114671585D01*
X232666284Y-114671584D01*
X232561749Y-114567049D01*
X232011754Y-114017052D01*
X232011747Y-114017046D01*
X231938062Y-113967812D01*
X231938062Y-113967813D01*
X231888824Y-113934913D01*
X231752250Y-113878343D01*
X231752240Y-113878340D01*
X231607253Y-113849500D01*
X231607251Y-113849500D01*
X226873971Y-113849500D01*
X226806932Y-113829815D01*
X226768432Y-113790597D01*
X226701045Y-113681344D01*
X226632652Y-113612951D01*
X226599167Y-113551628D01*
X226596333Y-113525270D01*
X226596333Y-113174298D01*
X234660333Y-113174298D01*
X234660333Y-114975701D01*
X234663234Y-115012567D01*
X234663235Y-115012573D01*
X234709087Y-115170393D01*
X234709088Y-115170396D01*
X234792750Y-115311862D01*
X234792756Y-115311870D01*
X234908962Y-115428076D01*
X234908966Y-115428079D01*
X234908968Y-115428081D01*
X235050435Y-115511744D01*
X235077489Y-115519604D01*
X235208259Y-115557597D01*
X235208262Y-115557597D01*
X235208264Y-115557598D01*
X235245139Y-115560500D01*
X235245147Y-115560500D01*
X235676519Y-115560500D01*
X235676527Y-115560500D01*
X235713402Y-115557598D01*
X235713404Y-115557597D01*
X235713406Y-115557597D01*
X235755024Y-115545505D01*
X235871231Y-115511744D01*
X236012698Y-115428081D01*
X236012703Y-115428075D01*
X236018864Y-115423298D01*
X236020766Y-115425750D01*
X236069412Y-115399155D01*
X236139107Y-115404104D01*
X236171528Y-115424940D01*
X236172802Y-115423298D01*
X236178965Y-115428078D01*
X236178968Y-115428081D01*
X236320435Y-115511744D01*
X236347489Y-115519604D01*
X236478259Y-115557597D01*
X236478262Y-115557597D01*
X236478264Y-115557598D01*
X236515139Y-115560500D01*
X236515147Y-115560500D01*
X236946519Y-115560500D01*
X236946527Y-115560500D01*
X236983402Y-115557598D01*
X236983404Y-115557597D01*
X236983406Y-115557597D01*
X237025024Y-115545505D01*
X237141231Y-115511744D01*
X237282698Y-115428081D01*
X237282703Y-115428075D01*
X237288864Y-115423298D01*
X237290766Y-115425750D01*
X237339412Y-115399155D01*
X237409107Y-115404104D01*
X237441528Y-115424940D01*
X237442802Y-115423298D01*
X237448965Y-115428078D01*
X237448968Y-115428081D01*
X237590435Y-115511744D01*
X237617489Y-115519604D01*
X237748259Y-115557597D01*
X237748262Y-115557597D01*
X237748264Y-115557598D01*
X237785139Y-115560500D01*
X237785147Y-115560500D01*
X238216519Y-115560500D01*
X238216527Y-115560500D01*
X238253402Y-115557598D01*
X238253404Y-115557597D01*
X238253406Y-115557597D01*
X238295024Y-115545505D01*
X238411231Y-115511744D01*
X238552698Y-115428081D01*
X238668914Y-115311865D01*
X238752577Y-115170398D01*
X238786338Y-115054191D01*
X238798430Y-115012573D01*
X238798431Y-115012567D01*
X238801332Y-114975701D01*
X238801333Y-114975694D01*
X238801333Y-113174306D01*
X238801332Y-113174298D01*
X239740333Y-113174298D01*
X239740333Y-114975701D01*
X239743234Y-115012567D01*
X239743235Y-115012573D01*
X239789087Y-115170393D01*
X239789088Y-115170396D01*
X239872750Y-115311862D01*
X239872756Y-115311870D01*
X239988962Y-115428076D01*
X239988966Y-115428079D01*
X239988968Y-115428081D01*
X240130435Y-115511744D01*
X240157489Y-115519604D01*
X240288259Y-115557597D01*
X240288262Y-115557597D01*
X240288264Y-115557598D01*
X240325139Y-115560500D01*
X240325147Y-115560500D01*
X240756519Y-115560500D01*
X240756527Y-115560500D01*
X240793402Y-115557598D01*
X240793404Y-115557597D01*
X240793406Y-115557597D01*
X240835024Y-115545505D01*
X240951231Y-115511744D01*
X241092698Y-115428081D01*
X241092703Y-115428075D01*
X241098864Y-115423298D01*
X241100766Y-115425750D01*
X241149412Y-115399155D01*
X241219107Y-115404104D01*
X241251528Y-115424940D01*
X241252802Y-115423298D01*
X241258965Y-115428078D01*
X241258968Y-115428081D01*
X241400435Y-115511744D01*
X241427489Y-115519604D01*
X241558259Y-115557597D01*
X241558262Y-115557597D01*
X241558264Y-115557598D01*
X241595139Y-115560500D01*
X241595147Y-115560500D01*
X242026519Y-115560500D01*
X242026527Y-115560500D01*
X242063402Y-115557598D01*
X242063404Y-115557597D01*
X242063406Y-115557597D01*
X242105024Y-115545505D01*
X242221231Y-115511744D01*
X242362698Y-115428081D01*
X242362703Y-115428075D01*
X242368864Y-115423298D01*
X242370766Y-115425750D01*
X242419412Y-115399155D01*
X242489107Y-115404104D01*
X242521528Y-115424940D01*
X242522802Y-115423298D01*
X242528965Y-115428078D01*
X242528968Y-115428081D01*
X242670435Y-115511744D01*
X242697489Y-115519604D01*
X242828259Y-115557597D01*
X242828262Y-115557597D01*
X242828264Y-115557598D01*
X242865139Y-115560500D01*
X242865147Y-115560500D01*
X243296519Y-115560500D01*
X243296527Y-115560500D01*
X243333402Y-115557598D01*
X243333404Y-115557597D01*
X243333406Y-115557597D01*
X243375024Y-115545505D01*
X243491231Y-115511744D01*
X243632698Y-115428081D01*
X243748914Y-115311865D01*
X243832577Y-115170398D01*
X243866338Y-115054191D01*
X243878430Y-115012573D01*
X243878431Y-115012567D01*
X243881332Y-114975701D01*
X243881333Y-114975694D01*
X243881333Y-113174306D01*
X243878431Y-113137431D01*
X243832577Y-112979602D01*
X243748914Y-112838135D01*
X243748912Y-112838133D01*
X243748909Y-112838129D01*
X243632703Y-112721923D01*
X243632695Y-112721917D01*
X243491229Y-112638255D01*
X243491226Y-112638254D01*
X243333406Y-112592402D01*
X243333400Y-112592401D01*
X243296534Y-112589500D01*
X243296527Y-112589500D01*
X242865139Y-112589500D01*
X242865131Y-112589500D01*
X242828265Y-112592401D01*
X242828259Y-112592402D01*
X242670439Y-112638254D01*
X242670436Y-112638255D01*
X242528970Y-112721917D01*
X242522802Y-112726702D01*
X242520905Y-112724256D01*
X242472191Y-112750857D01*
X242402499Y-112745873D01*
X242370129Y-112725069D01*
X242368864Y-112726702D01*
X242362695Y-112721917D01*
X242221229Y-112638255D01*
X242221226Y-112638254D01*
X242063406Y-112592402D01*
X242063400Y-112592401D01*
X242026534Y-112589500D01*
X242026527Y-112589500D01*
X241595139Y-112589500D01*
X241595131Y-112589500D01*
X241558265Y-112592401D01*
X241558259Y-112592402D01*
X241400439Y-112638254D01*
X241400436Y-112638255D01*
X241258970Y-112721917D01*
X241252802Y-112726702D01*
X241250905Y-112724256D01*
X241202191Y-112750857D01*
X241132499Y-112745873D01*
X241100129Y-112725069D01*
X241098864Y-112726702D01*
X241092695Y-112721917D01*
X240951229Y-112638255D01*
X240951226Y-112638254D01*
X240793406Y-112592402D01*
X240793400Y-112592401D01*
X240756534Y-112589500D01*
X240756527Y-112589500D01*
X240325139Y-112589500D01*
X240325131Y-112589500D01*
X240288265Y-112592401D01*
X240288259Y-112592402D01*
X240130439Y-112638254D01*
X240130436Y-112638255D01*
X239988970Y-112721917D01*
X239988962Y-112721923D01*
X239872756Y-112838129D01*
X239872750Y-112838137D01*
X239789088Y-112979603D01*
X239789087Y-112979606D01*
X239743235Y-113137426D01*
X239743234Y-113137432D01*
X239740333Y-113174298D01*
X238801332Y-113174298D01*
X238798431Y-113137431D01*
X238752577Y-112979602D01*
X238668914Y-112838135D01*
X238668912Y-112838133D01*
X238668909Y-112838129D01*
X238552703Y-112721923D01*
X238552695Y-112721917D01*
X238411229Y-112638255D01*
X238411226Y-112638254D01*
X238253406Y-112592402D01*
X238253400Y-112592401D01*
X238216534Y-112589500D01*
X238216527Y-112589500D01*
X237785139Y-112589500D01*
X237785131Y-112589500D01*
X237748265Y-112592401D01*
X237748259Y-112592402D01*
X237590439Y-112638254D01*
X237590436Y-112638255D01*
X237448970Y-112721917D01*
X237442802Y-112726702D01*
X237440905Y-112724256D01*
X237392191Y-112750857D01*
X237322499Y-112745873D01*
X237290129Y-112725069D01*
X237288864Y-112726702D01*
X237282695Y-112721917D01*
X237141229Y-112638255D01*
X237141226Y-112638254D01*
X236983406Y-112592402D01*
X236983400Y-112592401D01*
X236946534Y-112589500D01*
X236946527Y-112589500D01*
X236515139Y-112589500D01*
X236515131Y-112589500D01*
X236478265Y-112592401D01*
X236478259Y-112592402D01*
X236320439Y-112638254D01*
X236320436Y-112638255D01*
X236178970Y-112721917D01*
X236172802Y-112726702D01*
X236170905Y-112724256D01*
X236122191Y-112750857D01*
X236052499Y-112745873D01*
X236020129Y-112725069D01*
X236018864Y-112726702D01*
X236012695Y-112721917D01*
X235871229Y-112638255D01*
X235871226Y-112638254D01*
X235713406Y-112592402D01*
X235713400Y-112592401D01*
X235676534Y-112589500D01*
X235676527Y-112589500D01*
X235245139Y-112589500D01*
X235245131Y-112589500D01*
X235208265Y-112592401D01*
X235208259Y-112592402D01*
X235050439Y-112638254D01*
X235050436Y-112638255D01*
X234908970Y-112721917D01*
X234908962Y-112721923D01*
X234792756Y-112838129D01*
X234792750Y-112838137D01*
X234709088Y-112979603D01*
X234709087Y-112979606D01*
X234663235Y-113137426D01*
X234663234Y-113137432D01*
X234660333Y-113174298D01*
X226596333Y-113174298D01*
X226596333Y-112188579D01*
X226567492Y-112043592D01*
X226567491Y-112043591D01*
X226567491Y-112043587D01*
X226549644Y-112000500D01*
X226510920Y-111907011D01*
X226510913Y-111906998D01*
X226428785Y-111784085D01*
X226428784Y-111784084D01*
X226324249Y-111679549D01*
X226309806Y-111665106D01*
X226276321Y-111603783D01*
X226275014Y-111558028D01*
X226283833Y-111502352D01*
X226283833Y-111297648D01*
X226251810Y-111095466D01*
X226188553Y-110900781D01*
X226188551Y-110900778D01*
X226188551Y-110900776D01*
X226154836Y-110834607D01*
X226095620Y-110718390D01*
X226087889Y-110707749D01*
X225975304Y-110552786D01*
X225830546Y-110408028D01*
X225664946Y-110287715D01*
X225664945Y-110287714D01*
X225664943Y-110287713D01*
X225607986Y-110258691D01*
X225482556Y-110194781D01*
X225287867Y-110131522D01*
X225113328Y-110103878D01*
X225085685Y-110099500D01*
X224880981Y-110099500D01*
X224856662Y-110103351D01*
X224678798Y-110131522D01*
X224484109Y-110194781D01*
X224301719Y-110287715D01*
X224136119Y-110408028D01*
X223991361Y-110552786D01*
X223871048Y-110718386D01*
X223778114Y-110900776D01*
X223714855Y-111095465D01*
X223682833Y-111297648D01*
X223682833Y-111502351D01*
X223714855Y-111704534D01*
X223778114Y-111899223D01*
X223871048Y-112081613D01*
X223991361Y-112247213D01*
X224136119Y-112391971D01*
X224291082Y-112504556D01*
X224301723Y-112512287D01*
X224417940Y-112571503D01*
X224484109Y-112605218D01*
X224484111Y-112605218D01*
X224484114Y-112605220D01*
X224585782Y-112638254D01*
X224678798Y-112668477D01*
X224779890Y-112684488D01*
X224880981Y-112700500D01*
X224880982Y-112700500D01*
X224971333Y-112700500D01*
X225038372Y-112720185D01*
X225084127Y-112772989D01*
X225095333Y-112824500D01*
X225095333Y-113525270D01*
X225086688Y-113554710D01*
X225080165Y-113584697D01*
X225076410Y-113589712D01*
X225075648Y-113592309D01*
X225059014Y-113612951D01*
X225021014Y-113650951D01*
X224959691Y-113684436D01*
X224889999Y-113679452D01*
X224845652Y-113650951D01*
X224751990Y-113557289D01*
X224751989Y-113557288D01*
X224602667Y-113465186D01*
X224436130Y-113410001D01*
X224436128Y-113410000D01*
X224333343Y-113399500D01*
X223708331Y-113399500D01*
X223708313Y-113399501D01*
X223605536Y-113410000D01*
X223605533Y-113410001D01*
X223439001Y-113465185D01*
X223438996Y-113465187D01*
X223289675Y-113557289D01*
X223164764Y-113682201D01*
X223103441Y-113715686D01*
X223033749Y-113710702D01*
X222989402Y-113682201D01*
X222864490Y-113557289D01*
X222864489Y-113557288D01*
X222715167Y-113465186D01*
X222548630Y-113410001D01*
X222548628Y-113410000D01*
X222445843Y-113399500D01*
X221820831Y-113399500D01*
X221820813Y-113399501D01*
X221718036Y-113410000D01*
X221718033Y-113410001D01*
X221551501Y-113465185D01*
X221551496Y-113465187D01*
X221402175Y-113557289D01*
X221278122Y-113681342D01*
X221186020Y-113830663D01*
X221186019Y-113830666D01*
X221130834Y-113997203D01*
X221130834Y-113997204D01*
X221130833Y-113997204D01*
X221120333Y-114099983D01*
X221120333Y-115100001D01*
X221120334Y-115100019D01*
X221130833Y-115202796D01*
X221130834Y-115202799D01*
X221186018Y-115369331D01*
X221186022Y-115369340D01*
X221278705Y-115519604D01*
X221297145Y-115586996D01*
X221276222Y-115653660D01*
X221222580Y-115698429D01*
X221173166Y-115708700D01*
X220883763Y-115708700D01*
X220883756Y-115708701D01*
X220824149Y-115715108D01*
X220689304Y-115765402D01*
X220689297Y-115765406D01*
X220574088Y-115851652D01*
X220574085Y-115851655D01*
X220487839Y-115966864D01*
X220487835Y-115966871D01*
X220437541Y-116101717D01*
X220431134Y-116161316D01*
X220431134Y-116161323D01*
X220431133Y-116161335D01*
X220431133Y-117857070D01*
X220431134Y-117857076D01*
X220437541Y-117916683D01*
X220487835Y-118051528D01*
X220487836Y-118051530D01*
X220520542Y-118095219D01*
X220542316Y-118124306D01*
X220573100Y-118165427D01*
X220580838Y-118186175D01*
X220592810Y-118204803D01*
X220595961Y-118226719D01*
X220597517Y-118230891D01*
X220597833Y-118239738D01*
X220597833Y-118334903D01*
X220578148Y-118401942D01*
X220561514Y-118422584D01*
X220020917Y-118963181D01*
X219959594Y-118996666D01*
X219933236Y-118999500D01*
X219497170Y-118999500D01*
X219430131Y-118979815D01*
X219384376Y-118927011D01*
X219374432Y-118857853D01*
X219374697Y-118856101D01*
X219383833Y-118798421D01*
X219383833Y-118601577D01*
X219353042Y-118407173D01*
X219319288Y-118303291D01*
X219292217Y-118219975D01*
X219292215Y-118219972D01*
X219292215Y-118219970D01*
X219206391Y-118051531D01*
X219202857Y-118044595D01*
X219087161Y-117885354D01*
X218947979Y-117746172D01*
X218788738Y-117630476D01*
X218747963Y-117609700D01*
X218613362Y-117541117D01*
X218426159Y-117480290D01*
X218231755Y-117449500D01*
X218231750Y-117449500D01*
X218034916Y-117449500D01*
X218034911Y-117449500D01*
X217840506Y-117480290D01*
X217653303Y-117541117D01*
X217477927Y-117630476D01*
X217387917Y-117695873D01*
X217318687Y-117746172D01*
X217318685Y-117746174D01*
X217318684Y-117746174D01*
X217179507Y-117885351D01*
X217179507Y-117885352D01*
X217179505Y-117885354D01*
X217140832Y-117938583D01*
X217063809Y-118044594D01*
X216974450Y-118219970D01*
X216913623Y-118407173D01*
X216882833Y-118601577D01*
X216383833Y-118601577D01*
X216383833Y-107674500D01*
X216403518Y-107607461D01*
X216456322Y-107561706D01*
X216507833Y-107550500D01*
X248458833Y-107550500D01*
X248525872Y-107570185D01*
G37*
%TD.AperFunction*%
%TD*%
M02*
