%TF.GenerationSoftware,KiCad,Pcbnew,9.0.2*%
%TF.CreationDate,2025-05-22T13:04:18+05:30*%
%TF.ProjectId,GaN_pwr_delivery_module,47614e5f-7077-4725-9f64-656c69766572,rev?*%
%TF.SameCoordinates,Original*%
%TF.FileFunction,Copper,L2,Bot*%
%TF.FilePolarity,Positive*%
%FSLAX46Y46*%
G04 Gerber Fmt 4.6, Leading zero omitted, Abs format (unit mm)*
G04 Created by KiCad (PCBNEW 9.0.2) date 2025-05-22 13:04:18*
%MOMM*%
%LPD*%
G01*
G04 APERTURE LIST*
G04 Aperture macros list*
%AMRoundRect*
0 Rectangle with rounded corners*
0 $1 Rounding radius*
0 $2 $3 $4 $5 $6 $7 $8 $9 X,Y pos of 4 corners*
0 Add a 4 corners polygon primitive as box body*
4,1,4,$2,$3,$4,$5,$6,$7,$8,$9,$2,$3,0*
0 Add four circle primitives for the rounded corners*
1,1,$1+$1,$2,$3*
1,1,$1+$1,$4,$5*
1,1,$1+$1,$6,$7*
1,1,$1+$1,$8,$9*
0 Add four rect primitives between the rounded corners*
20,1,$1+$1,$2,$3,$4,$5,0*
20,1,$1+$1,$4,$5,$6,$7,0*
20,1,$1+$1,$6,$7,$8,$9,0*
20,1,$1+$1,$8,$9,$2,$3,0*%
G04 Aperture macros list end*
%TA.AperFunction,ComponentPad*%
%ADD10C,1.440000*%
%TD*%
%TA.AperFunction,ComponentPad*%
%ADD11RoundRect,0.250000X-0.550000X-0.550000X0.550000X-0.550000X0.550000X0.550000X-0.550000X0.550000X0*%
%TD*%
%TA.AperFunction,ComponentPad*%
%ADD12C,1.600000*%
%TD*%
%TA.AperFunction,ComponentPad*%
%ADD13RoundRect,0.250000X0.550000X0.550000X-0.550000X0.550000X-0.550000X-0.550000X0.550000X-0.550000X0*%
%TD*%
%TA.AperFunction,ViaPad*%
%ADD14C,0.200000*%
%TD*%
%TA.AperFunction,ViaPad*%
%ADD15C,0.600000*%
%TD*%
%TA.AperFunction,Conductor*%
%ADD16C,0.200000*%
%TD*%
G04 APERTURE END LIST*
D10*
%TO.P,RV1,1,1*%
%TO.N,Net-(R3-Pad2)*%
X230083333Y-143350000D03*
%TO.P,RV1,2,2*%
%TO.N,GND*%
X230083333Y-140810000D03*
%TO.P,RV1,3,3*%
X230083333Y-138270000D03*
%TD*%
D11*
%TO.P,J3,1,Pin_1*%
%TO.N,GND*%
X221383333Y-111400000D03*
D12*
%TO.P,J3,2,Pin_2*%
%TO.N,drainV*%
X224983333Y-111400000D03*
%TD*%
D11*
%TO.P,J2,1,Pin_1*%
%TO.N,GND*%
X228733333Y-111400000D03*
D12*
%TO.P,J2,2,Pin_2*%
%TO.N,negGateV*%
X232333333Y-111400000D03*
%TD*%
D13*
%TO.P,J1,1,Pin_1*%
%TO.N,GND*%
X224843333Y-144450000D03*
D12*
%TO.P,J1,2,Pin_2*%
%TO.N,+28V*%
X221243333Y-144450000D03*
%TD*%
D14*
%TO.N,GND*%
X241933333Y-134400000D03*
X235433333Y-139150000D03*
X232483333Y-113700000D03*
X235433333Y-140083333D03*
X238738888Y-110500000D03*
X219083333Y-116594444D03*
X239483333Y-138700000D03*
X244100000Y-123300000D03*
X224695658Y-117898795D03*
X234533333Y-121200000D03*
X245033333Y-123300000D03*
X233300000Y-119700000D03*
X237458333Y-139166667D03*
X228372222Y-112950000D03*
X219083333Y-117400000D03*
X237127777Y-110500000D03*
X247183333Y-118416667D03*
X241033333Y-120750000D03*
X220233333Y-120500000D03*
X231338889Y-112950000D03*
X244683333Y-114383333D03*
X232950000Y-112950000D03*
X245633333Y-141350000D03*
X235433333Y-140550000D03*
X242350000Y-135400000D03*
X235433333Y-138700000D03*
X225883333Y-133666667D03*
X245283333Y-116750000D03*
X247083333Y-111500000D03*
X237150000Y-142966667D03*
X234183333Y-116450000D03*
X234633333Y-117200000D03*
X240833333Y-137550000D03*
X236683333Y-143733333D03*
X240477777Y-110500000D03*
X237083333Y-132300000D03*
X237458333Y-137316667D03*
X238683333Y-140550000D03*
X225883333Y-129200000D03*
X244100000Y-125000000D03*
X227183333Y-110988889D03*
X243516666Y-137550000D03*
X237616666Y-142966667D03*
X221033333Y-119950000D03*
X245283333Y-127050000D03*
X239483333Y-136850000D03*
X237616666Y-142200000D03*
X222600000Y-112950000D03*
X227938888Y-136650000D03*
X239483333Y-136383333D03*
X238083333Y-143733333D03*
X240183333Y-136450000D03*
X245283333Y-119200000D03*
X247183333Y-113800000D03*
X240383333Y-123850000D03*
X236383333Y-140550000D03*
X233050000Y-114700000D03*
X230783333Y-133100000D03*
X229227777Y-135300000D03*
X230533333Y-112950000D03*
X230783333Y-132166667D03*
X243433333Y-110500000D03*
X237150000Y-142583333D03*
X225883333Y-136516667D03*
X238233333Y-140550000D03*
X237458333Y-138700000D03*
X238472222Y-112350000D03*
X247183333Y-122116667D03*
X243972222Y-112350000D03*
X237150000Y-144500000D03*
X231827777Y-136650000D03*
X233550000Y-115650000D03*
X234733333Y-120400000D03*
X237616666Y-143733333D03*
X247183333Y-125766667D03*
X233783333Y-110533333D03*
X244683333Y-113450000D03*
X244733333Y-116083333D03*
X225883333Y-137450000D03*
X219833333Y-110988889D03*
X241116666Y-136450000D03*
X226633333Y-122050000D03*
X245283333Y-118266667D03*
X236683333Y-142200000D03*
X229677777Y-136650000D03*
X233600000Y-121200000D03*
X236633333Y-112350000D03*
X235433333Y-137300000D03*
X221794444Y-112950000D03*
X244383333Y-124150000D03*
X241766666Y-137550000D03*
X239083333Y-132200000D03*
X233333333Y-117800000D03*
X242866666Y-136450000D03*
X233583333Y-116950000D03*
X227183333Y-110183333D03*
X240983333Y-121500000D03*
X237983333Y-131350000D03*
X233400000Y-113800000D03*
X240083333Y-112350000D03*
X238083333Y-144116667D03*
X238083333Y-142200000D03*
X238083333Y-142966667D03*
X219833333Y-110183333D03*
X225433333Y-128050000D03*
X245033333Y-125000000D03*
X233783333Y-112950000D03*
X245283333Y-115816667D03*
X235033333Y-116200000D03*
X244733333Y-122400000D03*
X247183333Y-114616667D03*
X240833333Y-122150000D03*
X227183333Y-111794444D03*
X232144444Y-112950000D03*
X235433333Y-136850000D03*
X219833333Y-112600000D03*
X236094444Y-110500000D03*
X247183333Y-120366667D03*
X235233333Y-142125000D03*
X241016666Y-112350000D03*
X239483333Y-137766667D03*
X219283333Y-114133333D03*
X234233333Y-119700000D03*
X247183333Y-121300000D03*
X226683333Y-120850000D03*
X235433333Y-138233333D03*
X236833333Y-140550000D03*
X247183333Y-124950000D03*
X227533333Y-122900000D03*
X233600000Y-118850000D03*
X237150000Y-143733333D03*
X225883333Y-135700000D03*
X234977777Y-110500000D03*
X244333333Y-126150000D03*
X247183333Y-129550000D03*
X237458333Y-135933333D03*
X237458333Y-139633333D03*
X239277777Y-112350000D03*
X234333333Y-113800000D03*
X237458333Y-136400000D03*
X229983333Y-112950000D03*
X237458333Y-138250000D03*
X239150000Y-140550000D03*
X228744444Y-136650000D03*
X246727777Y-110500000D03*
X242627777Y-110500000D03*
X242583333Y-137550000D03*
X235233333Y-142700000D03*
X225691256Y-116190136D03*
X244350000Y-127050000D03*
X238083333Y-144500000D03*
X239544444Y-110500000D03*
X237458333Y-140100000D03*
X237666666Y-112350000D03*
X238083333Y-142583333D03*
X225883333Y-131916667D03*
X234533333Y-118850000D03*
X235916666Y-140550000D03*
X237616666Y-144500000D03*
X237150000Y-144116667D03*
X244333333Y-141000000D03*
X233783333Y-112144444D03*
X247183333Y-128616667D03*
X240583333Y-122944444D03*
X241594444Y-110500000D03*
X239283333Y-115650000D03*
X227408396Y-117574039D03*
X235433333Y-136383333D03*
X242866666Y-134400000D03*
X227203149Y-116259180D03*
X247183333Y-126700000D03*
X239483333Y-139616667D03*
X224088889Y-112950000D03*
X241683333Y-120700000D03*
X224862060Y-116002623D03*
X241483333Y-121400000D03*
X243400000Y-126150000D03*
X247183333Y-112866667D03*
X231500000Y-144250000D03*
X220988889Y-112950000D03*
X227583333Y-120200000D03*
X224894444Y-112950000D03*
X237616666Y-142583333D03*
X243800000Y-122400000D03*
X226783333Y-123400000D03*
X239483333Y-140550000D03*
X243283333Y-135400000D03*
X247183333Y-117600000D03*
X234233333Y-117800000D03*
X244733333Y-115150000D03*
X230033333Y-135300000D03*
X225883333Y-134600000D03*
X236683333Y-142583333D03*
X237458333Y-137783333D03*
X226471960Y-115899999D03*
X245283333Y-121350000D03*
X226728518Y-116727398D03*
X235983333Y-131500000D03*
X219283333Y-114938889D03*
X237533333Y-127700000D03*
X247183333Y-127800000D03*
X239483333Y-138233333D03*
X232633333Y-136650000D03*
X247183333Y-116666667D03*
X225883333Y-130950000D03*
X241533333Y-135400000D03*
X247183333Y-119350000D03*
X243166666Y-112350000D03*
X227235219Y-115585716D03*
X235516666Y-112350000D03*
X226728518Y-117535555D03*
X229177777Y-112950000D03*
X225883333Y-130016667D03*
X241933333Y-136450000D03*
X237766666Y-140550000D03*
X237616666Y-144116667D03*
X244577777Y-110500000D03*
X223283333Y-112950000D03*
X236683333Y-142966667D03*
X237150000Y-142200000D03*
X237300000Y-140550000D03*
X243400000Y-141000000D03*
X233983333Y-114700000D03*
X247183333Y-123050000D03*
X239483333Y-139150000D03*
X236683333Y-143350000D03*
X220183333Y-112950000D03*
X235433333Y-137766667D03*
X239483333Y-140083333D03*
X237616666Y-143350000D03*
X230794444Y-136650000D03*
X235433333Y-139616667D03*
X245694444Y-110500000D03*
X225883333Y-132850000D03*
X238083333Y-143350000D03*
X219300000Y-120500000D03*
X245283333Y-120416667D03*
X240600000Y-135400000D03*
X233800000Y-120400000D03*
X240183333Y-134400000D03*
X236683333Y-144116667D03*
X243450000Y-124150000D03*
X236683333Y-144500000D03*
X219833333Y-111794444D03*
X227483333Y-121600000D03*
X242133333Y-112350000D03*
X227566666Y-112950000D03*
X247183333Y-115550000D03*
X227183333Y-112600000D03*
X241116666Y-134400000D03*
X239483333Y-137300000D03*
X234483333Y-115650000D03*
X227077777Y-135300000D03*
X237458333Y-136850000D03*
X237933333Y-110500000D03*
X237150000Y-143350000D03*
X247183333Y-124016667D03*
X235233333Y-141550000D03*
X228194444Y-135300000D03*
X245633333Y-142283333D03*
X223109276Y-118275080D03*
D15*
%TO.N,posGateV*%
X233733333Y-133400000D03*
X238883333Y-145600000D03*
%TO.N,+28V*%
X240133333Y-121350000D03*
X225383333Y-126050000D03*
%TO.N,isGateOn*%
X226733333Y-127350000D03*
X225583333Y-118500000D03*
%TD*%
D16*
%TO.N,posGateV*%
X233733333Y-133400000D02*
X233733333Y-138350000D01*
X232933333Y-145450000D02*
X233083333Y-145600000D01*
X233733333Y-138350000D02*
X232933333Y-139150000D01*
X233083333Y-145600000D02*
X238883333Y-145600000D01*
X232933333Y-139150000D02*
X232933333Y-145450000D01*
%TO.N,+28V*%
X235433333Y-126350000D02*
X237583333Y-126350000D01*
X226000433Y-126050000D02*
X226250433Y-126300000D01*
X238383333Y-122350000D02*
X239783333Y-122350000D01*
X240133333Y-122000000D02*
X240133333Y-121350000D01*
X239783333Y-122350000D02*
X240133333Y-122000000D01*
X238058333Y-125875000D02*
X238058333Y-122675000D01*
X238058333Y-122675000D02*
X238383333Y-122350000D01*
X226250433Y-126300000D02*
X235383333Y-126300000D01*
X225383333Y-126050000D02*
X226000433Y-126050000D01*
X235383333Y-126300000D02*
X235433333Y-126350000D01*
X237583333Y-126350000D02*
X238058333Y-125875000D01*
%TO.N,isGateOn*%
X225133333Y-118950000D02*
X225583333Y-118500000D01*
X218533333Y-119300000D02*
X218883333Y-118950000D01*
X219183333Y-126950000D02*
X218533333Y-126300000D01*
X218533333Y-126300000D02*
X218533333Y-119300000D01*
X226733333Y-127350000D02*
X226333333Y-126950000D01*
X218883333Y-118950000D02*
X225133333Y-118950000D01*
X226333333Y-126950000D02*
X219183333Y-126950000D01*
%TD*%
%TA.AperFunction,Conductor*%
%TO.N,GND*%
G36*
X248525872Y-107570185D02*
G01*
X248571627Y-107622989D01*
X248582833Y-107674500D01*
X248582833Y-147725500D01*
X248563148Y-147792539D01*
X248510344Y-147838294D01*
X248458833Y-147849500D01*
X216507833Y-147849500D01*
X216440794Y-147829815D01*
X216395039Y-147777011D01*
X216383833Y-147725500D01*
X216383833Y-144347648D01*
X219942833Y-144347648D01*
X219942833Y-144552351D01*
X219974855Y-144754534D01*
X220038114Y-144949223D01*
X220131048Y-145131613D01*
X220251361Y-145297213D01*
X220396119Y-145441971D01*
X220505106Y-145521153D01*
X220561723Y-145562287D01*
X220677940Y-145621503D01*
X220744109Y-145655218D01*
X220744111Y-145655218D01*
X220744114Y-145655220D01*
X220825873Y-145681785D01*
X220938798Y-145718477D01*
X221023547Y-145731900D01*
X221140981Y-145750500D01*
X221140982Y-145750500D01*
X221345684Y-145750500D01*
X221345685Y-145750500D01*
X221547867Y-145718477D01*
X221742552Y-145655220D01*
X221924943Y-145562287D01*
X221970684Y-145529054D01*
X232332831Y-145529054D01*
X232373756Y-145681785D01*
X232402691Y-145731900D01*
X232402692Y-145731904D01*
X232402693Y-145731904D01*
X232452812Y-145818714D01*
X232452814Y-145818717D01*
X232571682Y-145937585D01*
X232571688Y-145937590D01*
X232598472Y-145964374D01*
X232598482Y-145964385D01*
X232602812Y-145968715D01*
X232602813Y-145968716D01*
X232714617Y-146080520D01*
X232766178Y-146110288D01*
X232801428Y-146130639D01*
X232801430Y-146130641D01*
X232839484Y-146152611D01*
X232851548Y-146159577D01*
X233004276Y-146200501D01*
X233004279Y-146200501D01*
X233169986Y-146200501D01*
X233170002Y-146200500D01*
X238303567Y-146200500D01*
X238370606Y-146220185D01*
X238372458Y-146221398D01*
X238504147Y-146309390D01*
X238504160Y-146309397D01*
X238649831Y-146369735D01*
X238649836Y-146369737D01*
X238804486Y-146400499D01*
X238804489Y-146400500D01*
X238804491Y-146400500D01*
X238962177Y-146400500D01*
X238962178Y-146400499D01*
X239116830Y-146369737D01*
X239262512Y-146309394D01*
X239393622Y-146221789D01*
X239505122Y-146110289D01*
X239592727Y-145979179D01*
X239653070Y-145833497D01*
X239683833Y-145678842D01*
X239683833Y-145521158D01*
X239683833Y-145521155D01*
X239683832Y-145521153D01*
X239653070Y-145366503D01*
X239624372Y-145297219D01*
X239592730Y-145220827D01*
X239592723Y-145220814D01*
X239505122Y-145089711D01*
X239505119Y-145089707D01*
X239393625Y-144978213D01*
X239393621Y-144978210D01*
X239262518Y-144890609D01*
X239262505Y-144890602D01*
X239116834Y-144830264D01*
X239116822Y-144830261D01*
X238962178Y-144799500D01*
X238962175Y-144799500D01*
X238804491Y-144799500D01*
X238804488Y-144799500D01*
X238649843Y-144830261D01*
X238649831Y-144830264D01*
X238504160Y-144890602D01*
X238504147Y-144890609D01*
X238372458Y-144978602D01*
X238305780Y-144999480D01*
X238303567Y-144999500D01*
X233657833Y-144999500D01*
X233590794Y-144979815D01*
X233545039Y-144927011D01*
X233533833Y-144875500D01*
X233533833Y-139450096D01*
X233553518Y-139383057D01*
X233570148Y-139362419D01*
X234102046Y-138830521D01*
X234102049Y-138830520D01*
X234213853Y-138718716D01*
X234263972Y-138631904D01*
X234292910Y-138581785D01*
X234333834Y-138429057D01*
X234333834Y-138270943D01*
X234333834Y-138263348D01*
X234333833Y-138263330D01*
X234333833Y-133979765D01*
X234353518Y-133912726D01*
X234354731Y-133910874D01*
X234442723Y-133779185D01*
X234442723Y-133779184D01*
X234442727Y-133779179D01*
X234503070Y-133633497D01*
X234533833Y-133478842D01*
X234533833Y-133321158D01*
X234533833Y-133321155D01*
X234533832Y-133321153D01*
X234503071Y-133166510D01*
X234503070Y-133166503D01*
X234503068Y-133166498D01*
X234442730Y-133020827D01*
X234442723Y-133020814D01*
X234355122Y-132889711D01*
X234355119Y-132889707D01*
X234243625Y-132778213D01*
X234243621Y-132778210D01*
X234112518Y-132690609D01*
X234112505Y-132690602D01*
X233966834Y-132630264D01*
X233966822Y-132630261D01*
X233812178Y-132599500D01*
X233812175Y-132599500D01*
X233654491Y-132599500D01*
X233654488Y-132599500D01*
X233499843Y-132630261D01*
X233499831Y-132630264D01*
X233354160Y-132690602D01*
X233354147Y-132690609D01*
X233223044Y-132778210D01*
X233223040Y-132778213D01*
X233111546Y-132889707D01*
X233111543Y-132889711D01*
X233023942Y-133020814D01*
X233023935Y-133020827D01*
X232963597Y-133166498D01*
X232963594Y-133166510D01*
X232932833Y-133321153D01*
X232932833Y-133478846D01*
X232963594Y-133633489D01*
X232963597Y-133633501D01*
X233023935Y-133779172D01*
X233023942Y-133779185D01*
X233111935Y-133910874D01*
X233132813Y-133977551D01*
X233132833Y-133979765D01*
X233132833Y-138049902D01*
X233113148Y-138116941D01*
X233096514Y-138137583D01*
X232452814Y-138781282D01*
X232452812Y-138781284D01*
X232432832Y-138815891D01*
X232424387Y-138830520D01*
X232373756Y-138918215D01*
X232332832Y-139070943D01*
X232332832Y-139229057D01*
X232332832Y-139229059D01*
X232332833Y-139239053D01*
X232332833Y-145363330D01*
X232332832Y-145363348D01*
X232332832Y-145529054D01*
X232332831Y-145529054D01*
X221970684Y-145529054D01*
X222017923Y-145494732D01*
X222090546Y-145441971D01*
X222090548Y-145441968D01*
X222090552Y-145441966D01*
X222235299Y-145297219D01*
X222235301Y-145297215D01*
X222235304Y-145297213D01*
X222290810Y-145220814D01*
X222355620Y-145131610D01*
X222448553Y-144949219D01*
X222511810Y-144754534D01*
X222543833Y-144552352D01*
X222543833Y-144347648D01*
X222511810Y-144145466D01*
X222511692Y-144145104D01*
X222448551Y-143950776D01*
X222414836Y-143884607D01*
X222355620Y-143768390D01*
X222347889Y-143757749D01*
X222235304Y-143602786D01*
X222090550Y-143458032D01*
X222090545Y-143458028D01*
X221941018Y-143349391D01*
X221924946Y-143337714D01*
X221760541Y-143253945D01*
X228862833Y-143253945D01*
X228862833Y-143446054D01*
X228892886Y-143635802D01*
X228952249Y-143818506D01*
X228952251Y-143818509D01*
X229039468Y-143989681D01*
X229152388Y-144145102D01*
X229288231Y-144280945D01*
X229443652Y-144393865D01*
X229614824Y-144481082D01*
X229614826Y-144481083D01*
X229706178Y-144510764D01*
X229797532Y-144540447D01*
X229987278Y-144570500D01*
X229987279Y-144570500D01*
X230179387Y-144570500D01*
X230179388Y-144570500D01*
X230369134Y-144540447D01*
X230551842Y-144481082D01*
X230723014Y-144393865D01*
X230878435Y-144280945D01*
X231014278Y-144145102D01*
X231127198Y-143989681D01*
X231214415Y-143818509D01*
X231273780Y-143635801D01*
X231303833Y-143446055D01*
X231303833Y-143253945D01*
X231273780Y-143064199D01*
X231214415Y-142881491D01*
X231127198Y-142710319D01*
X231014278Y-142554898D01*
X230878435Y-142419055D01*
X230723014Y-142306135D01*
X230551839Y-142218916D01*
X230369135Y-142159553D01*
X230274261Y-142144526D01*
X230179388Y-142129500D01*
X229987278Y-142129500D01*
X229924029Y-142139517D01*
X229797530Y-142159553D01*
X229614826Y-142218916D01*
X229443651Y-142306135D01*
X229354978Y-142370560D01*
X229288231Y-142419055D01*
X229288229Y-142419057D01*
X229288228Y-142419057D01*
X229152390Y-142554895D01*
X229152390Y-142554896D01*
X229152388Y-142554898D01*
X229103893Y-142621645D01*
X229039468Y-142710318D01*
X228952249Y-142881493D01*
X228892886Y-143064197D01*
X228862833Y-143253945D01*
X221760541Y-143253945D01*
X221742556Y-143244781D01*
X221547867Y-143181522D01*
X221373328Y-143153878D01*
X221345685Y-143149500D01*
X221140981Y-143149500D01*
X221116662Y-143153351D01*
X220938798Y-143181522D01*
X220744109Y-143244781D01*
X220561719Y-143337715D01*
X220396119Y-143458028D01*
X220251361Y-143602786D01*
X220131048Y-143768386D01*
X220038114Y-143950776D01*
X219974855Y-144145465D01*
X219942833Y-144347648D01*
X216383833Y-144347648D01*
X216383833Y-126379054D01*
X217932831Y-126379054D01*
X217932832Y-126379057D01*
X217973756Y-126531785D01*
X217983984Y-126549500D01*
X218052810Y-126668712D01*
X218052814Y-126668717D01*
X218171682Y-126787585D01*
X218171688Y-126787590D01*
X218698472Y-127314374D01*
X218698482Y-127314385D01*
X218702812Y-127318715D01*
X218702813Y-127318716D01*
X218814617Y-127430520D01*
X218901428Y-127480639D01*
X218901430Y-127480641D01*
X218939484Y-127502611D01*
X218951548Y-127509577D01*
X219104276Y-127550501D01*
X219104279Y-127550501D01*
X219269986Y-127550501D01*
X219270002Y-127550500D01*
X225867074Y-127550500D01*
X225934113Y-127570185D01*
X225979868Y-127622989D01*
X225981635Y-127627048D01*
X226023935Y-127729172D01*
X226023942Y-127729185D01*
X226111543Y-127860288D01*
X226111546Y-127860292D01*
X226223040Y-127971786D01*
X226223044Y-127971789D01*
X226354147Y-128059390D01*
X226354160Y-128059397D01*
X226499831Y-128119735D01*
X226499836Y-128119737D01*
X226654486Y-128150499D01*
X226654489Y-128150500D01*
X226654491Y-128150500D01*
X226812177Y-128150500D01*
X226812178Y-128150499D01*
X226966830Y-128119737D01*
X227112512Y-128059394D01*
X227243622Y-127971789D01*
X227355122Y-127860289D01*
X227442727Y-127729179D01*
X227503070Y-127583497D01*
X227533833Y-127428842D01*
X227533833Y-127271158D01*
X227533833Y-127271155D01*
X227533832Y-127271153D01*
X227503071Y-127116510D01*
X227503070Y-127116503D01*
X227484617Y-127071952D01*
X227477148Y-127002483D01*
X227508424Y-126940004D01*
X227568513Y-126904352D01*
X227599178Y-126900500D01*
X235154970Y-126900500D01*
X235193513Y-126908165D01*
X235193699Y-126907473D01*
X235201547Y-126909575D01*
X235201549Y-126909577D01*
X235354276Y-126950501D01*
X235354278Y-126950501D01*
X235519987Y-126950501D01*
X235520003Y-126950500D01*
X237496664Y-126950500D01*
X237496680Y-126950501D01*
X237504276Y-126950501D01*
X237662387Y-126950501D01*
X237662390Y-126950501D01*
X237815118Y-126909577D01*
X237865237Y-126880639D01*
X237952049Y-126830520D01*
X238063853Y-126718716D01*
X238063853Y-126718714D01*
X238074061Y-126708507D01*
X238074063Y-126708504D01*
X238416839Y-126365728D01*
X238416844Y-126365724D01*
X238427047Y-126355520D01*
X238427049Y-126355520D01*
X238538853Y-126243716D01*
X238617910Y-126106784D01*
X238654251Y-125971158D01*
X238658833Y-125954058D01*
X238658833Y-125795943D01*
X238658833Y-123074500D01*
X238678518Y-123007461D01*
X238731322Y-122961706D01*
X238782833Y-122950500D01*
X239696664Y-122950500D01*
X239696680Y-122950501D01*
X239704276Y-122950501D01*
X239862387Y-122950501D01*
X239862390Y-122950501D01*
X240015118Y-122909577D01*
X240065237Y-122880639D01*
X240152049Y-122830520D01*
X240263853Y-122718716D01*
X240263854Y-122718714D01*
X240613853Y-122368716D01*
X240692910Y-122231784D01*
X240733834Y-122079057D01*
X240733834Y-121929764D01*
X240753519Y-121862725D01*
X240754732Y-121860873D01*
X240842723Y-121729185D01*
X240842723Y-121729184D01*
X240842727Y-121729179D01*
X240903070Y-121583497D01*
X240933833Y-121428842D01*
X240933833Y-121271158D01*
X240933833Y-121271155D01*
X240933832Y-121271153D01*
X240903071Y-121116510D01*
X240903070Y-121116503D01*
X240903068Y-121116498D01*
X240842730Y-120970827D01*
X240842723Y-120970814D01*
X240755122Y-120839711D01*
X240755119Y-120839707D01*
X240643625Y-120728213D01*
X240643621Y-120728210D01*
X240512518Y-120640609D01*
X240512505Y-120640602D01*
X240366834Y-120580264D01*
X240366822Y-120580261D01*
X240212178Y-120549500D01*
X240212175Y-120549500D01*
X240054491Y-120549500D01*
X240054488Y-120549500D01*
X239899843Y-120580261D01*
X239899831Y-120580264D01*
X239754160Y-120640602D01*
X239754147Y-120640609D01*
X239623044Y-120728210D01*
X239623040Y-120728213D01*
X239511546Y-120839707D01*
X239511543Y-120839711D01*
X239423942Y-120970814D01*
X239423935Y-120970827D01*
X239363597Y-121116498D01*
X239363594Y-121116510D01*
X239332833Y-121271153D01*
X239332833Y-121428846D01*
X239363594Y-121583489D01*
X239365364Y-121589324D01*
X239362612Y-121590158D01*
X239368836Y-121647359D01*
X239337642Y-121709878D01*
X239277599Y-121745608D01*
X239246778Y-121749500D01*
X238304273Y-121749500D01*
X238263352Y-121760464D01*
X238263352Y-121760465D01*
X238226084Y-121770451D01*
X238151547Y-121790423D01*
X238151542Y-121790426D01*
X238014623Y-121869475D01*
X238014615Y-121869481D01*
X237577814Y-122306282D01*
X237577813Y-122306284D01*
X237541768Y-122368716D01*
X237498756Y-122443215D01*
X237457832Y-122595943D01*
X237457832Y-122595945D01*
X237457832Y-122764046D01*
X237457833Y-122764059D01*
X237457833Y-125574903D01*
X237449188Y-125604343D01*
X237442665Y-125634330D01*
X237438910Y-125639345D01*
X237438148Y-125641942D01*
X237421514Y-125662584D01*
X237370917Y-125713181D01*
X237309594Y-125746666D01*
X237283236Y-125749500D01*
X235661697Y-125749500D01*
X235623153Y-125741834D01*
X235622968Y-125742527D01*
X235615119Y-125740424D01*
X235615118Y-125740423D01*
X235462390Y-125699499D01*
X235304276Y-125699499D01*
X235296680Y-125699499D01*
X235296664Y-125699500D01*
X226550531Y-125699500D01*
X226483492Y-125679815D01*
X226462850Y-125663181D01*
X226369150Y-125569481D01*
X226369149Y-125569480D01*
X226282337Y-125519360D01*
X226282337Y-125519359D01*
X226282333Y-125519358D01*
X226232218Y-125490423D01*
X226079490Y-125449499D01*
X225963097Y-125449499D01*
X225896058Y-125429814D01*
X225894206Y-125428601D01*
X225762518Y-125340609D01*
X225762505Y-125340602D01*
X225616834Y-125280264D01*
X225616822Y-125280261D01*
X225462178Y-125249500D01*
X225462175Y-125249500D01*
X225304491Y-125249500D01*
X225304488Y-125249500D01*
X225149843Y-125280261D01*
X225149831Y-125280264D01*
X225004160Y-125340602D01*
X225004147Y-125340609D01*
X224873044Y-125428210D01*
X224873040Y-125428213D01*
X224761546Y-125539707D01*
X224761543Y-125539711D01*
X224673942Y-125670814D01*
X224673935Y-125670827D01*
X224613597Y-125816498D01*
X224613594Y-125816510D01*
X224582833Y-125971153D01*
X224582833Y-126128846D01*
X224597247Y-126201309D01*
X224591020Y-126270900D01*
X224548157Y-126326078D01*
X224482267Y-126349322D01*
X224475630Y-126349500D01*
X219483430Y-126349500D01*
X219416391Y-126329815D01*
X219395749Y-126313181D01*
X219170152Y-126087584D01*
X219136667Y-126026261D01*
X219133833Y-125999903D01*
X219133833Y-119674500D01*
X219153518Y-119607461D01*
X219206322Y-119561706D01*
X219257833Y-119550500D01*
X225046664Y-119550500D01*
X225046680Y-119550501D01*
X225054276Y-119550501D01*
X225212387Y-119550501D01*
X225212390Y-119550501D01*
X225365118Y-119509577D01*
X225415237Y-119480639D01*
X225502049Y-119430520D01*
X225597996Y-119334572D01*
X225659317Y-119301088D01*
X225661485Y-119300637D01*
X225662174Y-119300500D01*
X225662175Y-119300500D01*
X225816830Y-119269737D01*
X225962512Y-119209394D01*
X226093622Y-119121789D01*
X226205122Y-119010289D01*
X226292727Y-118879179D01*
X226353070Y-118733497D01*
X226383833Y-118578842D01*
X226383833Y-118421158D01*
X226383833Y-118421155D01*
X226383832Y-118421153D01*
X226353071Y-118266510D01*
X226353070Y-118266503D01*
X226353068Y-118266498D01*
X226292730Y-118120827D01*
X226292723Y-118120814D01*
X226205122Y-117989711D01*
X226205119Y-117989707D01*
X226093625Y-117878213D01*
X226093621Y-117878210D01*
X225962518Y-117790609D01*
X225962505Y-117790602D01*
X225816834Y-117730264D01*
X225816822Y-117730261D01*
X225662178Y-117699500D01*
X225662175Y-117699500D01*
X225504491Y-117699500D01*
X225504488Y-117699500D01*
X225349843Y-117730261D01*
X225349831Y-117730264D01*
X225204160Y-117790602D01*
X225204147Y-117790609D01*
X225073044Y-117878210D01*
X225073040Y-117878213D01*
X224961546Y-117989707D01*
X224961543Y-117989711D01*
X224873942Y-118120814D01*
X224873935Y-118120827D01*
X224811265Y-118272131D01*
X224808810Y-118271114D01*
X224776823Y-118319930D01*
X224713012Y-118348390D01*
X224696455Y-118349500D01*
X218970003Y-118349500D01*
X218969987Y-118349499D01*
X218962391Y-118349499D01*
X218804276Y-118349499D01*
X218727912Y-118369961D01*
X218651547Y-118390423D01*
X218651542Y-118390426D01*
X218514623Y-118469475D01*
X218514615Y-118469481D01*
X218157550Y-118826546D01*
X218157547Y-118826548D01*
X218157548Y-118826549D01*
X218052811Y-118931286D01*
X218024333Y-118980612D01*
X218010094Y-119005276D01*
X217973756Y-119068215D01*
X217932832Y-119220943D01*
X217932832Y-119379057D01*
X217932832Y-119379059D01*
X217932833Y-119389053D01*
X217932833Y-126213330D01*
X217932832Y-126213348D01*
X217932832Y-126379054D01*
X217932831Y-126379054D01*
X216383833Y-126379054D01*
X216383833Y-111297648D01*
X223682833Y-111297648D01*
X223682833Y-111502351D01*
X223714855Y-111704534D01*
X223778114Y-111899223D01*
X223871048Y-112081613D01*
X223991361Y-112247213D01*
X224136119Y-112391971D01*
X224291082Y-112504556D01*
X224301723Y-112512287D01*
X224417940Y-112571503D01*
X224484109Y-112605218D01*
X224484111Y-112605218D01*
X224484114Y-112605220D01*
X224588470Y-112639127D01*
X224678798Y-112668477D01*
X224779890Y-112684488D01*
X224880981Y-112700500D01*
X224880982Y-112700500D01*
X225085684Y-112700500D01*
X225085685Y-112700500D01*
X225287867Y-112668477D01*
X225482552Y-112605220D01*
X225664943Y-112512287D01*
X225757923Y-112444732D01*
X225830546Y-112391971D01*
X225830548Y-112391968D01*
X225830552Y-112391966D01*
X225975299Y-112247219D01*
X225975301Y-112247215D01*
X225975304Y-112247213D01*
X226028065Y-112174590D01*
X226095620Y-112081610D01*
X226188553Y-111899219D01*
X226251810Y-111704534D01*
X226283833Y-111502352D01*
X226283833Y-111297648D01*
X231032833Y-111297648D01*
X231032833Y-111502351D01*
X231064855Y-111704534D01*
X231128114Y-111899223D01*
X231221048Y-112081613D01*
X231341361Y-112247213D01*
X231486119Y-112391971D01*
X231641082Y-112504556D01*
X231651723Y-112512287D01*
X231767940Y-112571503D01*
X231834109Y-112605218D01*
X231834111Y-112605218D01*
X231834114Y-112605220D01*
X231938470Y-112639127D01*
X232028798Y-112668477D01*
X232129890Y-112684488D01*
X232230981Y-112700500D01*
X232230982Y-112700500D01*
X232435684Y-112700500D01*
X232435685Y-112700500D01*
X232637867Y-112668477D01*
X232832552Y-112605220D01*
X233014943Y-112512287D01*
X233107923Y-112444732D01*
X233180546Y-112391971D01*
X233180548Y-112391968D01*
X233180552Y-112391966D01*
X233325299Y-112247219D01*
X233325301Y-112247215D01*
X233325304Y-112247213D01*
X233378065Y-112174590D01*
X233445620Y-112081610D01*
X233538553Y-111899219D01*
X233601810Y-111704534D01*
X233633833Y-111502352D01*
X233633833Y-111297648D01*
X233601810Y-111095466D01*
X233538553Y-110900781D01*
X233538551Y-110900778D01*
X233538551Y-110900776D01*
X233504836Y-110834607D01*
X233445620Y-110718390D01*
X233437889Y-110707749D01*
X233325304Y-110552786D01*
X233180546Y-110408028D01*
X233014946Y-110287715D01*
X233014945Y-110287714D01*
X233014943Y-110287713D01*
X232957986Y-110258691D01*
X232832556Y-110194781D01*
X232637867Y-110131522D01*
X232463328Y-110103878D01*
X232435685Y-110099500D01*
X232230981Y-110099500D01*
X232206662Y-110103351D01*
X232028798Y-110131522D01*
X231834109Y-110194781D01*
X231651719Y-110287715D01*
X231486119Y-110408028D01*
X231341361Y-110552786D01*
X231221048Y-110718386D01*
X231128114Y-110900776D01*
X231064855Y-111095465D01*
X231032833Y-111297648D01*
X226283833Y-111297648D01*
X226251810Y-111095466D01*
X226188553Y-110900781D01*
X226188551Y-110900778D01*
X226188551Y-110900776D01*
X226154836Y-110834607D01*
X226095620Y-110718390D01*
X226087889Y-110707749D01*
X225975304Y-110552786D01*
X225830546Y-110408028D01*
X225664946Y-110287715D01*
X225664945Y-110287714D01*
X225664943Y-110287713D01*
X225607986Y-110258691D01*
X225482556Y-110194781D01*
X225287867Y-110131522D01*
X225113328Y-110103878D01*
X225085685Y-110099500D01*
X224880981Y-110099500D01*
X224856662Y-110103351D01*
X224678798Y-110131522D01*
X224484109Y-110194781D01*
X224301719Y-110287715D01*
X224136119Y-110408028D01*
X223991361Y-110552786D01*
X223871048Y-110718386D01*
X223778114Y-110900776D01*
X223714855Y-111095465D01*
X223682833Y-111297648D01*
X216383833Y-111297648D01*
X216383833Y-107674500D01*
X216403518Y-107607461D01*
X216456322Y-107561706D01*
X216507833Y-107550500D01*
X248458833Y-107550500D01*
X248525872Y-107570185D01*
G37*
%TD.AperFunction*%
%TD*%
M02*
